SplineFontDB: 3.2
FontName: linja_laso_Medium
FullName: linja laso Medium
FamilyName: linja laso
Weight: Medium
Copyright: Copyright (c) 2026, mute ante
Version: 1.2
ItalicAngle: 0
UnderlinePosition: -95.3125
UnderlineWidth: 46.875
Ascent: 900
Descent: 100
InvalidEm: 0
sfntRevision: 0x0000e666
LayerCount: 2
Layer: 0 0 "Back" 1
Layer: 1 0 "Fore" 0
XUID: [1021 412 1039766594 11549582]
StyleMap: 0x0040
FSType: 0
OS2Version: 4
OS2_WeightWidthSlopeOnly: 0
OS2_UseTypoMetrics: 1
CreationTime: 1759787008
ModificationTime: 1773444731
PfmFamily: 17
TTFWeight: 500
TTFWidth: 5
LineGap: 92
VLineGap: 0
Panose: 2 0 5 3 0 0 0 0 0 0
OS2TypoAscent: 1100
OS2TypoAOffset: 0
OS2TypoDescent: -500
OS2TypoDOffset: 0
OS2TypoLinegap: 92
OS2WinAscent: 1050
OS2WinAOffset: 0
OS2WinDescent: 450
OS2WinDOffset: 0
HheadAscent: 1100
HheadAOffset: 0
HheadDescent: -500
HheadDOffset: 0
OS2SubXSize: 650
OS2SubYSize: 700
OS2SubXOff: 0
OS2SubYOff: 139
OS2SupXSize: 650
OS2SupYSize: 700
OS2SupXOff: 0
OS2SupYOff: 480
OS2StrikeYSize: 48
OS2StrikeYPos: 258
OS2Vendor: 'PfEd'
OS2CodePages: 00000001.00000000
OS2UnicodeRanges: 00000001.02000000.04000000.00000000
Lookup: 4 0 1 "LIGA basics" { "LIGA basics"  } ['liga' ('DFLT' <'dflt' > 'latn' <'dflt' > ) ]
Lookup: 4 0 1 "LIGA ni directions" { "LIGA ni directions-1"  } ['liga' ('DFLT' <'dflt' > 'latn' <'dflt' > ) ]
Lookup: 4 0 1 "LIGA alternates" { "LIGA alternates"  } ['liga' ('DFLT' <'dflt' > 'latn' <'dflt' > ) ]
Lookup: 1 0 0 "SS01 allow half spaces" { "SS01 allow half spaces"  } ['ss01' ('DFLT' <'dflt' > 'latn' <'dflt' > ) ]
Lookup: 5 0 0 "CALT colon te spacing" { "CALT colon te spacing"  } ['calt' ('DFLT' <'dflt' > 'latn' <'dflt' > ) ]
Lookup: 1 0 0 "SS20 colon te spacing" { "SS20 colon te spacing"  } ['ss20' ('DFLT' <'dflt' > 'latn' <'dflt' > ) ]
Lookup: 6 0 0 "CALT cartouches" { "CALT cartouches"  } ['calt' ('DFLT' <'dflt' > 'latn' <'dflt' > ) ]
Lookup: 2 0 0 "CCMP cartouches" { "CCMP cartouches"  } ['stch' ('DFLT' <'dflt' > 'latn' <'dflt' > ) ]

StartChar: .notdef
Encoding: 279 -1 0
GlifName: _notdef
Width: 1000
GlyphClass: 1
Flags: W
HStem: 0 21G<100 900> 780 20G<100 900>
VStem: 100 800<0 800>
LayerCount: 2
Fore
SplineSet
100 0 m 1
 100 800 l 1
 900 800 l 1
 900 0 l 1
 100 0 l 1
EndSplineSet
EndChar

StartChar: t.a
Encoding: 101 989440 2
GlifName: t.a
Width: 1000
GlyphClass: 1
Flags: W
HStem: -25 100<414.713 536.948> 275 100<414.713 535.202>
VStem: 275 100<114.713 235.287> 425 100<450 825> 681 99<-1.20202 66.353>
LayerCount: 2
Fore
SplineSet
653 83 m 1
 620 19 552 -25 475 -25 c 0
 366 -25 275 66 275 175 c 0
 275 284 366 375 475 375 c 0
 530 375 581 352 617 316 c 0
 703 230 760 120 780 0 c 1
 681 -17 l 1
 675 17 665 52 653 83 c 1
475 275 m 0
 420 275 375 230 375 175 c 0
 375 120 420 75 475 75 c 0
 530 75 575 120 575 175 c 0
 575 203 564 226 545 245 c 0
 526 264 503 275 475 275 c 0
425 450 m 1
 425 825 l 1
 525 825 l 1
 525 450 l 1
 425 450 l 1
EndSplineSet
MultipleSubs2: "CCMP cartouches" t.a cart.body
Ligature2: "LIGA basics" a
EndChar

StartChar: t.akesi
Encoding: 102 989441 3
GlifName: t.akesi
Width: 1000
GlyphClass: 1
Flags: W
HStem: -25 100<439.713 560.287> 175 100<200 300 400 600 700 800> 375 100<200 300 400 600 700 800> 575 100<439.713 560.287> 700 150<298.417 401.583 598.417 701.583>
VStem: 275 150<723.417 826.583> 300 100<116.067 175 275 375 475 533.933> 575 150<723.417 826.583> 600 100<116.067 175 275 375 475 533.933>
LayerCount: 2
Fore
SplineSet
575 775 m 0xf9
 575 816 609 850 650 850 c 0
 691 850 725 816 725 775 c 0
 725 734 691 700 650 700 c 0
 609 700 575 734 575 775 c 0xf9
275 775 m 0xfc
 275 816 309 850 350 850 c 0
 391 850 425 816 425 775 c 0
 425 734 391 700 350 700 c 0
 309 700 275 734 275 775 c 0xfc
400 175 m 1xfa80
 400 120 445 75 500 75 c 0
 555 75 600 120 600 175 c 1
 400 175 l 1xfa80
400 375 m 1
 400 275 l 1
 600 275 l 1
 600 375 l 1
 400 375 l 1
500 575 m 0
 445 575 400 530 400 475 c 1
 600 475 l 1
 600 530 555 575 500 575 c 0
500 675 m 0
 609 675 700 584 700 475 c 1
 800 475 l 1
 800 375 l 1
 700 375 l 1
 700 275 l 1
 800 275 l 1
 800 175 l 1
 700 175 l 1
 700 66 609 -25 500 -25 c 0
 391 -25 300 66 300 175 c 1
 200 175 l 1
 200 275 l 1
 300 275 l 1
 300 375 l 1
 200 375 l 1
 200 475 l 1
 300 475 l 1
 300 584 391 675 500 675 c 0
EndSplineSet
LCarets2: 4 -75 -75 -75 -75
MultipleSubs2: "CCMP cartouches" t.akesi cart.body
Ligature2: "LIGA basics" a k e s i
EndChar

StartChar: t.ala
Encoding: 103 989442 4
GlifName: t.ala
Width: 1000
GlyphClass: 1
Flags: W
HStem: 0 21G<150 190 810 850> 780 20G<150 190 810 850>
LayerCount: 2
Fore
SplineSet
170 800 m 1
 500 470 l 1
 830 800 l 1
 900 730 l 1
 570 400 l 1
 900 70 l 1
 830 0 l 1
 500 330 l 1
 170 0 l 1
 100 70 l 1
 430 400 l 1
 100 730 l 1
 170 800 l 1
EndSplineSet
LCarets2: 2 -169 -169
MultipleSubs2: "CCMP cartouches" t.ala cart.body
Ligature2: "LIGA basics" a l a
EndChar

StartChar: t.alasa
Encoding: 104 989443 5
GlifName: t.alasa
Width: 1000
GlyphClass: 1
Flags: W
HStem: 0 21G<200 303> 353 95<50 200> 355 90<300 497 595.683 742.286> 362 76<598 800>
VStem: 200 100<117 353 448 683> 497 101<285.578 358 444 514.422>
LayerCount: 2
Fore
SplineSet
497 358 m 1xac
 300 355 l 1
 300 117 l 1
 406 155 481 249 497 358 c 1xac
300 683 m 1
 300 445 l 1
 497 444 l 1
 481 553 406 645 300 683 c 1
200 800 m 1
 406 800 578 643 598 441 c 1
 800 438 l 1
 638 575 l 1
 712 650 l 1
 962 400 l 1
 712 150 l 1
 638 225 l 1
 800 362 l 1x9c
 598 359 l 1
 578 157 406 0 200 0 c 1
 200 353 l 1
 50 350 l 1
 50 450 l 1
 200 448 l 1xcc
 200 800 l 1
EndSplineSet
LCarets2: 4 -75 -75 -75 -75
MultipleSubs2: "CCMP cartouches" t.alasa cart.body
Ligature2: "LIGA basics" a l a s a
EndChar

StartChar: t.ale
Encoding: 105 989444 6
GlifName: t.ale
Width: 1000
GlyphClass: 1
Flags: W
HStem: 188 100<198.045 327.481 672.519 801.955> 512 100<198.045 327.481 672.519 801.955>
VStem: 50 100<336.045 463.955> 850 100<336.045 463.955>
LayerCount: 2
Fore
SplineSet
738 512 m 0
 708 512 681 501 661 481 c 2
 573 400 l 1
 661 319 l 2
 681 299 708 288 738 288 c 0
 800 288 850 338 850 400 c 0
 850 462 800 512 738 512 c 0
262 512 m 0
 200 512 150 462 150 400 c 0
 150 338 200 288 262 288 c 0
 292 288 319 299 339 319 c 2
 427 400 l 1
 339 481 l 2
 319 501 292 512 262 512 c 0
262 612 m 0
 317 612 369 593 408 555 c 2
 500 469 l 1
 592 555 l 2
 631 593 683 612 738 612 c 0
 855 612 950 517 950 400 c 0
 950 283 855 188 738 188 c 0
 683 188 631 207 592 245 c 2
 500 331 l 1
 408 245 l 2
 369 207 317 188 262 188 c 0
 145 188 50 283 50 400 c 0
 50 517 145 612 262 612 c 0
EndSplineSet
LCarets2: 2 -75 -75
MultipleSubs2: "CCMP cartouches" t.ale cart.body
Ligature2: "LIGA basics" a l e
EndChar

StartChar: t.anpa
Encoding: 106 989445 7
GlifName: t.anpa
Width: 1000
GlyphClass: 1
Flags: W
HStem: 75 150<448.417 551.583> 300 100<200 800>
VStem: 100 100<400 650> 425 150<98.4173 201.583> 800 100<400 650>
CounterMasks: 1 38
LayerCount: 2
Fore
SplineSet
425 150 m 0
 425 191 459 225 500 225 c 0
 541 225 575 191 575 150 c 0
 575 109 541 75 500 75 c 0
 459 75 425 109 425 150 c 0
100 650 m 1
 200 650 l 1
 200 400 l 1
 800 400 l 1
 800 650 l 1
 900 650 l 1
 900 300 l 1
 100 300 l 1
 100 650 l 1
EndSplineSet
LCarets2: 3 -75 -75 -75
MultipleSubs2: "CCMP cartouches" t.anpa cart.body
Ligature2: "LIGA basics" a n p a
EndChar

StartChar: t.ante
Encoding: 107 989446 8
GlifName: t.ante
Width: 1000
GlyphClass: 1
Flags: W
HStem: 0 21G<148.506 191.391 808.609 851.494> 780 20G<148.506 191.391 808.609 851.494>
LayerCount: 2
Fore
SplineSet
500 350 m 1
 894 83 l 1
 838 0 l 1
 500 230 l 1
 162 0 l 1
 106 83 l 1
 500 350 l 1
162 800 m 1
 500 570 l 1
 838 800 l 1
 894 717 l 1
 500 450 l 1
 106 717 l 1
 162 800 l 1
EndSplineSet
LCarets2: 3 0 0 0
MultipleSubs2: "CCMP cartouches" t.ante cart.body
Ligature2: "LIGA basics" a n t e
EndChar

StartChar: t.anu
Encoding: 108 989447 9
GlifName: t.anu
Width: 1000
GlyphClass: 1
Flags: W
VStem: 450 100<25 412>
LayerCount: 2
Fore
SplineSet
217 788 m 1
 500 505 l 1
 783 788 l 1
 855 717 l 1
 550 412 l 1
 550 25 l 1
 450 25 l 1
 450 412 l 1
 145 717 l 1
 217 788 l 1
EndSplineSet
LCarets2: 2 0 0
MultipleSubs2: "CCMP cartouches" t.anu cart.body
Ligature2: "LIGA basics" a n u
EndChar

StartChar: t.awen
Encoding: 109 989448 10
GlifName: t.awen
Width: 1000
GlyphClass: 1
Flags: W
HStem: 0 100<75 250 750 925> 780 20G<444.286 555.714>
LayerCount: 2
Fore
SplineSet
450 800 m 1
 550 800 l 1
 750 100 l 1
 925 100 l 1
 925 0 l 1
 675 0 l 1
 500 611 l 1
 325 0 l 1
 75 0 l 1
 75 100 l 1
 250 100 l 1
 450 800 l 1
EndSplineSet
LCarets2: 3 -75 -75 -75
MultipleSubs2: "CCMP cartouches" t.awen cart.body
Ligature2: "LIGA basics" a w e n
EndChar

StartChar: t.e
Encoding: 110 989449 11
GlifName: t.e
Width: 1000
GlyphClass: 1
Flags: W
LayerCount: 2
Fore
SplineSet
138 825 m 1
 562 400 l 1
 138 -25 l 1
 67 45 l 1
 420 400 l 1
 67 755 l 1
 138 825 l 1
500 825 m 1
 925 400 l 1
 500 -25 l 1
 430 45 l 1
 784 400 l 1
 430 755 l 1
 500 825 l 1
EndSplineSet
MultipleSubs2: "CCMP cartouches" t.e cart.body
Ligature2: "LIGA basics" e
EndChar

StartChar: t.en
Encoding: 111 989450 12
GlifName: t.en
Width: 1000
GlyphClass: 1
Flags: W
HStem: 350 100<150 450 550 850>
VStem: 450 100<50 350 450 750>
LayerCount: 2
Fore
SplineSet
450 750 m 1
 550 750 l 1
 550 450 l 1
 850 450 l 1
 850 350 l 1
 550 350 l 1
 550 50 l 1
 450 50 l 1
 450 350 l 1
 150 350 l 1
 150 450 l 1
 450 450 l 1
 450 750 l 1
EndSplineSet
LCarets2: 1 -75
MultipleSubs2: "CCMP cartouches" t.en cart.body
Ligature2: "LIGA basics" e n
EndChar

StartChar: t.esun
Encoding: 112 989451 13
GlifName: t.esun
Width: 1000
GlyphClass: 1
Flags: W
HStem: -25 100<239.713 360.882> 275 100<239.713 418.935> 425 100<581.065 760.287> 725 100<639.118 760.287>
VStem: 100 100<114.713 235.287> 800 100<564.713 685.287>
LayerCount: 2
Fore
SplineSet
538 336 m 1
 682 288 806 198 900 75 c 1
 820 16 l 1
 742 121 636 196 517 238 c 1
 497 141 l 2
 480 46 397 -25 300 -25 c 0
 191 -25 100 66 100 175 c 0
 100 284 191 375 300 375 c 0
 348 375 396 371 441 362 c 1
 462 464 l 1
 318 512 194 602 100 725 c 1
 180 784 l 1
 258 679 364 604 483 562 c 1
 503 659 l 2
 520 754 603 825 700 825 c 0
 809 825 900 734 900 625 c 0
 900 516 809 425 700 425 c 0
 652 425 604 429 559 438 c 1
 538 336 l 1
580 536 m 1
 619 530 659 525 700 525 c 0
 755 525 800 570 800 625 c 0
 800 680 755 725 700 725 c 0
 652 725 610 690 602 642 c 2
 580 536 l 1
420 264 m 1
 381 270 341 275 300 275 c 0
 245 275 200 230 200 175 c 0
 200 120 245 75 300 75 c 0
 348 75 390 110 398 158 c 2
 420 264 l 1
EndSplineSet
LCarets2: 3 -75 -75 -75
MultipleSubs2: "CCMP cartouches" t.esun cart.body
Ligature2: "LIGA basics" e s u n
EndChar

StartChar: t.ijo
Encoding: 113 989452 14
GlifName: t.ijo
Width: 1000
GlyphClass: 1
Flags: W
HStem: -25 100<385.978 614.022> 725 100<385.978 614.022>
VStem: 75 100<285.978 514.022> 825 100<285.978 514.022>
LayerCount: 2
Fore
SplineSet
500 725 m 0
 320 725 175 580 175 400 c 0
 175 220 320 75 500 75 c 0
 680 75 825 220 825 400 c 0
 825 580 680 725 500 725 c 0
500 825 m 0
 734 825 925 634 925 400 c 0
 925 166 734 -25 500 -25 c 0
 266 -25 75 166 75 400 c 0
 75 634 266 825 500 825 c 0
EndSplineSet
LCarets2: 2 -75 -75
MultipleSubs2: "CCMP cartouches" t.ijo cart.body
Ligature2: "LIGA basics" i j o
EndChar

StartChar: t.ike
Encoding: 114 989453 15
GlifName: t.ike
Width: 1000
GlyphClass: 1
Flags: W
HStem: 525 100<390.343 609.657>
VStem: 100 100<225 334.182> 800 100<225 334.182>
LayerCount: 2
Fore
SplineSet
500 625 m 0
 720 625 900 445 900 225 c 1
 800 225 l 1
 800 391 666 525 500 525 c 0
 334 525 200 391 200 225 c 1
 100 225 l 1
 100 445 280 625 500 625 c 0
EndSplineSet
LCarets2: 2 -75 -75
MultipleSubs2: "CCMP cartouches" t.ike cart.body
Ligature2: "LIGA basics" i k e
EndChar

StartChar: t.ilo
Encoding: 115 989454 16
GlifName: t.ilo
Width: 1000
GlyphClass: 1
Flags: W
HStem: 0 21G<450 550> 350 100<200 450 550 800> 700 100<200 450 550 800>
VStem: 100 100<450 700> 450 100<0 350 450 700> 800 100<450 700>
CounterMasks: 1 1c
LayerCount: 2
Fore
SplineSet
550 700 m 1
 550 450 l 1
 800 450 l 1
 800 700 l 1
 550 700 l 1
200 700 m 1
 200 450 l 1
 450 450 l 1
 450 700 l 1
 200 700 l 1
100 800 m 1
 900 800 l 1
 900 350 l 1
 550 350 l 1
 550 0 l 1
 450 0 l 1
 450 350 l 1
 100 350 l 1
 100 800 l 1
EndSplineSet
LCarets2: 2 -75 -75
MultipleSubs2: "CCMP cartouches" t.ilo cart.body
Ligature2: "LIGA basics" i l o
EndChar

StartChar: t.insa
Encoding: 116 989455 17
GlifName: t.insa
Width: 1000
GlyphClass: 1
Flags: W
HStem: 200 100<200 800> 400 150<448.417 551.583>
VStem: 100 100<300 600> 425 150<423.417 526.583> 800 100<300 600>
CounterMasks: 1 38
LayerCount: 2
Fore
SplineSet
425 475 m 0
 425 516 459 550 500 550 c 0
 541 550 575 516 575 475 c 0
 575 434 541 400 500 400 c 0
 459 400 425 434 425 475 c 0
100 600 m 1
 200 600 l 1
 200 300 l 1
 800 300 l 1
 800 600 l 1
 900 600 l 1
 900 200 l 1
 100 200 l 1
 100 600 l 1
EndSplineSet
LCarets2: 3 -75 -75 -75
MultipleSubs2: "CCMP cartouches" t.insa cart.body
Ligature2: "LIGA basics" i n s a
EndChar

StartChar: t.jaki
Encoding: 117 989456 18
GlifName: t.jaki
Width: 1000
VWidth: 1300
GlyphClass: 1
Flags: W
HStem: -50 100<559.229 653.341> 100 100<263.348 298 427 638> 312 100<386 539.195> 375 100<75 131> 450 100<632.368 766.439> 725 100<341.067 594>
VStem: 150 100<213.26 301.091> 200 100<524.031 685.287> 662 100<58.88 100> 825 100<255.404 393.156>
LayerCount: 2
Fore
SplineSet
700 450 m 0xecc0
 695 450 691 448 688 448 c 2
 386 412 l 1
 450 412 l 1
 581 412 699 331 744 208 c 1
 792 227 825 270 825 325 c 0
 825 394 769 450 700 450 c 0xecc0
538 531 m 1
 677 548 l 2
 682 550 691 550 700 550 c 0
 823 550 925 448 925 325 c 0
 925 222 856 136 762 109 c 0
 762 106 762 103 762 100 c 0
 762 17 695 -50 612 -50 c 0
 571 -50 534 -34 506 -6 c 1
 577 66 l 1
 586 57 600 50 612 50 c 0
 640 50 662 72 662 100 c 1
 427 100 l 1
 450 0 l 1
 353 -23 l 1
 323 100 l 1
 306 100 l 2
 220 100 150 170 150 256 c 0xcec0
 150 311 180 363 227 391 c 1
 179 382 127 375 75 375 c 1
 75 475 l 1
 227 494 l 1
 206 577 l 2
 201 593 200 609 200 625 c 0xd5c0
 200 734 291 825 400 825 c 2
 625 825 l 1
 652 809 l 1
 738 761 l 1
 686 670 618 592 538 531 c 1
400 725 m 2
 345 725 300 680 300 625 c 0xc5c0
 300 617 301 610 303 602 c 2
 322 523 l 1
 428 565 522 634 594 725 c 1
 400 725 l 2
450 312 m 1xe4c0
 373 312 l 1
 402 200 l 1
 638 200 l 1
 600 269 528 312 450 312 c 1xe4c0
273 302 m 1
 257 291 250 275 250 256 c 0xc6c0
 250 228 270 207 298 202 c 1
 273 302 l 1
EndSplineSet
LCarets2: 3 0 0 0
MultipleSubs2: "CCMP cartouches" t.jaki cart.body
Ligature2: "LIGA basics" j a k i
EndChar

StartChar: t.jan
Encoding: 118 989457 19
GlifName: t.jan
Width: 1000
GlyphClass: 1
Flags: W
HStem: 75 100<393.766 606.234> 725 100<395.318 604.682>
VStem: 125 100<343.411 554.682> 775 100<343.411 554.682>
LayerCount: 2
Fore
SplineSet
500 725 m 0
 348 725 225 602 225 450 c 0
 225 298 348 175 500 175 c 0
 652 175 775 298 775 450 c 0
 775 602 652 725 500 725 c 0
500 825 m 0
 706 825 875 656 875 450 c 0
 875 352 837 262 775 195 c 1
 934 34 l 1
 866 -34 l 1
 698 131 l 1
 642 95 573 75 500 75 c 0
 427 75 358 95 302 131 c 1
 134 -34 l 1
 66 34 l 1
 225 195 l 1
 163 262 125 352 125 450 c 0
 125 656 294 825 500 825 c 0
EndSplineSet
LCarets2: 2 -75 -75
MultipleSubs2: "CCMP cartouches" t.jan cart.body
Ligature2: "LIGA basics" j a n
EndChar

StartChar: t.jelo
Encoding: 119 989458 20
GlifName: t.jelo
Width: 1000
GlyphClass: 1
Flags: W
HStem: 0 100<341 659> 450 100<150 312.276 687.724 850> 600 250<450.326 549.674>
VStem: 150 250<450.326 549.674> 450 100<687.724 850> 600 250<450.326 549.674>
CounterMasks: 1 1c
LayerCount: 2
Fore
SplineSet
500 259 m 1
 341 100 l 1
 659 100 l 1
 500 259 l 1
500 600 m 0
 445 600 400 555 400 500 c 0
 400 445 445 400 500 400 c 0
 555 400 600 445 600 500 c 0
 600 555 555 600 500 600 c 0
450 850 m 1
 550 850 l 1
 550 694 l 1
 620 675 675 620 694 550 c 1
 850 550 l 1
 850 450 l 1
 694 450 l 1
 678 391 636 344 581 319 c 1
 900 0 l 1
 100 0 l 1
 419 319 l 1
 364 344 322 391 306 450 c 1
 150 450 l 1
 150 550 l 1
 306 550 l 1
 325 620 380 675 450 694 c 1
 450 850 l 1
EndSplineSet
LCarets2: 3 0 0 0
MultipleSubs2: "CCMP cartouches" t.jelo cart.body
Ligature2: "LIGA basics" j e l o
EndChar

StartChar: t.jo
Encoding: 120 989459 21
GlifName: t.jo
Width: 1000
GlyphClass: 1
Flags: W
HStem: -25 100<409.398 592.617> 200 100<500 702> 375 100<430.434 568.156> 725 100<431.844 568.156>
VStem: 175 100<209.398 398.121> 275 100<536.509 668.156> 625 100<531.844 668.156>
LayerCount: 2
Fore
SplineSet
500 200 m 1xfa
 500 300 l 1
 725 300 l 1
 825 300 l 1
 825 120 680 -25 500 -25 c 0
 320 -25 175 120 175 300 c 0xfa
 175 395 217 483 283 542 c 1
 278 561 275 580 275 600 c 0xf6
 275 723 377 825 500 825 c 0
 623 825 725 723 725 600 c 0
 725 477 623 375 500 375 c 0
 433 375 372 405 331 450 c 1
 295 409 275 358 275 300 c 0
 275 177 377 75 500 75 c 0
 588 75 664 127 702 200 c 1
 500 200 l 1xfa
500 725 m 0
 431 725 375 669 375 600 c 0xf6
 375 531 431 475 500 475 c 0
 569 475 625 531 625 600 c 0
 625 669 569 725 500 725 c 0
EndSplineSet
LCarets2: 1 0
MultipleSubs2: "CCMP cartouches" t.jo cart.body
Ligature2: "LIGA basics" j o
EndChar

StartChar: t.kala
Encoding: 121 989460 22
GlifName: t.kala
Width: 1000
GlyphClass: 1
Flags: W
HStem: 125 100<530.123 752.299> 575 100<530.123 752.299>
VStem: 75 100<124.37 224.825 575.175 675.63> 850 100<317.304 482.696>
LayerCount: 2
Fore
SplineSet
661 575 m 0
 552 575 428 528 336 444 c 0
 320 432 306 416 294 400 c 1
 306 384 320 368 336 356 c 0
 428 272 552 225 661 225 c 0
 770 225 850 303 850 400 c 0
 850 497 770 575 661 575 c 0
175 684 m 1
 181 614 202 545 236 484 c 1
 245 495 258 508 269 517 c 0
 378 619 527 675 677 675 c 0
 827 675 950 552 950 400 c 0
 950 248 827 125 677 125 c 0
 527 125 378 181 269 283 c 0
 258 292 245 305 236 316 c 1
 202 255 181 186 175 116 c 1
 75 125 l 1
 84 223 117 319 170 400 c 1
 117 481 84 577 75 675 c 1
 175 684 l 1
EndSplineSet
LCarets2: 3 0 0 0
MultipleSubs2: "CCMP cartouches" t.kala cart.body
Ligature2: "LIGA basics" k a l a
EndChar

StartChar: t.kalama
Encoding: 122 989461 23
GlifName: t.kalama
Width: 1000
GlyphClass: 1
Flags: W
HStem: 25 100<401.708 598.292> 325 100<255 745>
VStem: 450 100<575 825>
LayerCount: 2
Fore
SplineSet
450 575 m 1
 450 825 l 1
 550 825 l 1
 550 575 l 1
 450 575 l 1
606 559 m 1
 741 769 l 1
 825 716 l 1
 691 505 l 1
 606 559 l 1
394 559 m 1
 309 505 l 1
 175 716 l 1
 259 769 l 1
 394 559 l 1
150 425 m 1
 850 425 l 1
 850 375 l 2
 850 181 694 25 500 25 c 0
 306 25 150 181 150 375 c 2
 150 425 l 1
255 325 m 1
 278 211 380 125 500 125 c 0
 620 125 722 211 745 325 c 1
 255 325 l 1
EndSplineSet
LCarets2: 5 0 0 0 0 0
MultipleSubs2: "CCMP cartouches" t.kalama cart.body
Ligature2: "LIGA basics" k a l a m a
EndChar

StartChar: t.kama
Encoding: 123 989462 24
GlifName: t.kama
Width: 1000
GlyphClass: 1
Flags: W
HStem: -12 21G<323.75 380.61 617.258 676.25> 780 20G<494.382 608.914>
LayerCount: 2
Fore
SplineSet
600 800 m 1
 912 100 l 1
 625 -12 l 1
 589 81 l 1
 778 155 l 1
 559 644 l 1
 375 -12 l 1
 88 100 l 1
 123 194 l 1
 309 120 l 1
 500 800 l 1
 600 800 l 1
EndSplineSet
LCarets2: 3 0 0 0
MultipleSubs2: "CCMP cartouches" t.kama cart.body
Ligature2: "LIGA basics" k a m a
EndChar

StartChar: t.kasi
Encoding: 124 989463 25
GlifName: t.kasi
Width: 1000
GlyphClass: 1
Flags: W
HStem: 0 21G<450 550> 300 100<340.818 450 550 659.182> 700 100<150 259.109 740.891 850>
VStem: 50 100<590.818 700> 450 100<0 300 400 510.132> 850 100<590.818 700>
CounterMasks: 1 1c
LayerCount: 2
Fore
SplineSet
850 700 m 1
 684 700 550 566 550 400 c 1
 716 400 850 534 850 700 c 1
150 700 m 1
 150 534 284 400 450 400 c 1
 450 566 316 700 150 700 c 1
50 800 m 1
 50 800 93 800 123 800 c 0
 139 800 150 800 150 800 c 0
 302 800 431 717 500 594 c 1
 569 717 698 800 850 800 c 2
 950 800 l 1
 950 700 l 2
 950 480 770 300 550 300 c 1
 550 0 l 1
 450 0 l 1
 450 300 l 1
 230 300 50 480 50 700 c 2
 50 800 l 1
EndSplineSet
LCarets2: 3 -75 -75 -75
MultipleSubs2: "CCMP cartouches" t.kasi cart.body
Ligature2: "LIGA basics" k a s i
EndChar

StartChar: t.ken
Encoding: 125 989464 26
GlifName: t.ken
Width: 1000
GlyphClass: 1
Flags: W
HStem: 0 21G<200 300 700 800> 350 100<300 510.132> 780 20G<200 300 700 800>
VStem: 200 100<0 350 450 800> 700 100<0 159.88 639.868 800>
LayerCount: 2
Fore
SplineSet
700 800 m 1
 800 800 l 1
 800 800 800 786 800 770 c 2
 800 750 l 2
 800 605 721 470 594 400 c 1
 721 330 800 195 800 50 c 0
 800 36 800 23 800 9 c 0
 800 6 800 3 800 0 c 1
 700 0 l 2
 700 6 700 11 700 17 c 0
 700 28 700 39 700 50 c 0
 700 216 568 348 402 350 c 2
 300 350 l 1
 300 0 l 1
 200 0 l 1
 200 800 l 1
 300 800 l 1
 300 450 l 1
 400 450 l 2
 566 450 700 584 700 750 c 0
 700 767 700 800 700 800 c 1
EndSplineSet
LCarets2: 2 -75 -75
MultipleSubs2: "CCMP cartouches" t.ken cart.body
Ligature2: "LIGA basics" k e n
EndChar

StartChar: t.kepeken
Encoding: 126 989465 27
GlifName: t.kepeken
Width: 1000
GlyphClass: 1
Flags: W
HStem: 0 21G<255 375 725 825> 450 100<312 488 588 762> 725 100<312 488 588 762>
VStem: 212 100<550 725> 275 100<141 207.709> 488 100<394 450 550 725> 725 100<0 206.022> 762 100<550 725>
LayerCount: 2
Fore
SplineSet
125 150 m 1xee
 195 220 l 1
 275 141 l 1xee
 281 264 371 367 488 394 c 1
 488 450 l 1
 212 450 l 1
 212 825 l 1
 862 825 l 1
 862 450 l 1xf5
 588 450 l 1
 588 397 l 1
 722 378 825 264 825 125 c 2
 825 0 l 1
 725 0 l 1
 725 125 l 2
 725 222 647 300 550 300 c 0
 453 300 375 222 375 125 c 2
 375 0 l 1
 275 0 l 1
 125 150 l 1xee
588 725 m 1
 588 550 l 1
 762 550 l 1
 762 725 l 1xe5
 588 725 l 1
312 725 m 1xf4
 312 550 l 1
 488 550 l 1
 488 725 l 1
 312 725 l 1xf4
EndSplineSet
LCarets2: 6 0 0 0 0 0 0
MultipleSubs2: "CCMP cartouches" t.kepeken cart.body
Ligature2: "LIGA basics" k e p e k e n
EndChar

StartChar: t.kili
Encoding: 127 989466 28
GlifName: t.kili
Width: 1000
GlyphClass: 1
Flags: W
HStem: 25 100<386.59 618.461> 588 100<241.804 385.25 614.386 760.745>
VStem: 75 100<336.232 522.391> 450 100<450 521.809 644 775> 825 100<331.337 521.881>
CounterMasks: 1 38
LayerCount: 2
Fore
SplineSet
450 775 m 1
 550 775 l 1
 550 644 l 1
 591 672 641 688 689 688 c 0
 714 688 741 683 764 675 c 0
 848 647 914 566 923 477 c 0
 925 466 925 456 925 445 c 0
 925 376 906 306 873 247 c 0
 811 131 696 49 566 30 c 0
 546 27 522 25 502 25 c 0
 402 25 304 59 227 125 c 0
 132 205 73 327 75 450 c 0
 75 462 76 477 78 489 c 0
 92 580 162 657 250 680 c 0
 270 686 291 688 311 688 c 0
 359 688 409 672 450 644 c 1
 450 775 l 1
306 588 m 0
 298 588 290 586 284 584 c 0
 222 572 173 512 175 450 c 0
 173 361 214 273 280 212 c 0
 339 156 421 125 502 125 c 0
 529 125 554 128 581 134 c 0
 693 162 788 257 816 369 c 0
 822 392 825 418 825 445 c 0
 825 467 820 489 811 509 c 0
 789 556 740 588 688 588 c 0
 679 588 668 586 659 584 c 0
 598 573 552 517 550 455 c 2
 550 450 l 1
 450 450 l 1
 450 459 l 2
 448 476 444 493 436 509 c 0
 414 556 364 588 312 588 c 0
 310 588 308 588 306 588 c 0
EndSplineSet
LCarets2: 3 0 0 0
MultipleSubs2: "CCMP cartouches" t.kili cart.body
Ligature2: "LIGA basics" k i l i
EndChar

StartChar: t.kiwen
Encoding: 128 989467 29
GlifName: t.kiwen
Width: 1000
GlyphClass: 1
Flags: W
HStem: 0 21G<481.111 518.889> 675 100<352 648>
LayerCount: 2
Fore
SplineSet
352 675 m 1
 203 459 l 1
 500 145 l 1
 797 459 l 1
 648 675 l 1
 352 675 l 1
300 775 m 1
 700 775 l 1
 925 450 l 1
 500 0 l 1
 75 450 l 1
 300 775 l 1
EndSplineSet
LCarets2: 4 0 0 0 0
MultipleSubs2: "CCMP cartouches" t.kiwen cart.body
Ligature2: "LIGA basics" k i w e n
EndChar

StartChar: t.ko
Encoding: 129 989468 30
GlifName: t.ko
Width: 1000
VWidth: 1300
GlyphClass: 1
Flags: W
HStem: -25 100<504.013 622.303> 50 98<204.953 316.647> 212 100<744 805.597> 488 100<744 805.597> 652 98<204.953 316.647> 727 98<504.626 619.308>
VStem: 75 98<180.692 292.411 507.589 619.308> 652 98<105.383 211.414 588.422 693.505> 838 100<343.122 456.878>
LayerCount: 2
Fore
SplineSet
938 400 m 0x3780
 938 297 853 212 750 212 c 0
 748 212 746 212 744 212 c 1
 749 196 750 179 750 162 c 0
 750 59 665 -25 562 -25 c 0xb780
 481 -25 415 27 388 97 c 1
 355 67 310 50 262 50 c 0
 159 50 75 135 75 238 c 0
 75 308 113 369 169 400 c 1
 113 431 75 492 75 562 c 0
 75 665 159 750 262 750 c 0x7b80
 310 750 355 733 388 703 c 1
 415 773 481 825 562 825 c 0
 665 825 750 741 750 638 c 0
 750 621 749 604 744 588 c 1
 746 588 748 588 750 588 c 0
 853 588 938 503 938 400 c 0x3780
838 400 m 0
 838 450 800 488 750 488 c 0
 750 488 747 488 745 488 c 0
 743 488 746 488 744 488 c 0
 689 488 644 533 644 588 c 0
 644 597 645 606 647 614 c 0
 649 622 652 630 652 638 c 0
 652 688 612 727 562 727 c 2xb780
 524 727 492 703 480 669 c 0
 466 631 432 603 388 603 c 0
 363 603 339 612 320 628 c 0
 304 642 284 652 262 652 c 0
 212 652 173 612 173 562 c 0
 173 531 192 502 219 486 c 0
 249 469 269 438 269 400 c 0
 269 362 249 331 219 314 c 0
 192 298 173 269 173 238 c 0
 173 188 212 148 262 148 c 0x7b80
 284 148 304 158 320 172 c 0
 339 188 363 197 388 197 c 0
 432 197 466 169 480 131 c 0
 492 97 524 75 562 75 c 0
 612 75 652 112 652 162 c 0
 652 170 649 178 647 186 c 0
 645 194 644 203 644 212 c 0
 644 267 689 312 744 312 c 0
 746 312 745 312 747 312 c 0
 749 312 748 312 750 312 c 0
 800 312 838 350 838 400 c 0
EndSplineSet
LCarets2: 1 -75
MultipleSubs2: "CCMP cartouches" t.ko cart.body
Ligature2: "LIGA basics" k o
EndChar

StartChar: t.kon
Encoding: 130 989469 31
GlifName: t.kon
Width: 1000
GlyphClass: 1
Flags: W
HStem: -25 100<228 302.316 578 652.316> 725 100<347.684 422 697.684 772>
VStem: 172 100<496.784 651.083> 378 100<148.917 303.216> 522 100<496.784 651.083> 728 100<148.917 303.216>
LayerCount: 2
Fore
SplineSet
772 725 m 1
 689 725 622 658 622 575 c 0
 622 520 650 471 698 444 c 0
 778 400 828 316 828 225 c 0
 828 87 716 -25 578 -25 c 1
 578 75 l 1
 661 75 728 142 728 225 c 0
 728 280 700 329 652 356 c 0
 572 400 522 484 522 575 c 0
 522 713 634 825 772 825 c 1
 772 725 l 1
228 75 m 1
 311 75 378 142 378 225 c 0
 378 280 350 329 302 356 c 0
 222 400 172 484 172 575 c 0
 172 713 284 825 422 825 c 1
 422 725 l 1
 339 725 272 658 272 575 c 0
 272 520 300 471 348 444 c 0
 428 400 478 316 478 225 c 0
 478 87 366 -25 228 -25 c 1
 228 75 l 1
EndSplineSet
LCarets2: 2 -75 -75
MultipleSubs2: "CCMP cartouches" t.kon cart.body
Ligature2: "LIGA basics" k o n
EndChar

StartChar: t.kule
Encoding: 131 989470 32
GlifName: t.kule
Width: 1000
GlyphClass: 1
Flags: W
HStem: 0 100<238 762> 288 112<100 219 388 612 781 900>
LayerCount: 2
Fore
SplineSet
100 288 m 1
 100 400 l 1
 275 400 l 1
 500 850 l 1
 725 400 l 1
 900 400 l 1
 900 288 l 1
 781 288 l 1
 925 0 l 1
 75 0 l 1
 219 288 l 1
 100 288 l 1
612 400 m 1
 500 627 l 1
 388 400 l 1
 612 400 l 1
669 288 m 1
 331 288 l 1
 238 100 l 1
 762 100 l 1
 669 288 l 1
EndSplineSet
LCarets2: 3 0 0 0
MultipleSubs2: "CCMP cartouches" t.kule cart.body
Ligature2: "LIGA basics" k u l e
EndChar

StartChar: t.kulupu
Encoding: 132 989471 33
GlifName: t.kulupu
Width: 1000
GlyphClass: 1
Flags: W
HStem: -12 100<201.713 322.287 677.713 798.287> 288 100<201.713 322.287 677.713 798.287> 412 100<439.713 560.287> 712 100<439.713 560.287>
VStem: 62 100<127.713 248.287> 300 100<551.713 672.287> 362 100<127.713 248.287> 538 100<127.713 248.287> 600 100<551.713 672.287> 838 100<127.713 248.287>
LayerCount: 2
Fore
SplineSet
738 288 m 0xf940
 683 288 638 243 638 188 c 0
 638 133 683 88 738 88 c 0
 793 88 838 133 838 188 c 0
 838 243 793 288 738 288 c 0xf940
738 388 m 0
 847 388 938 297 938 188 c 0
 938 79 847 -12 738 -12 c 0
 629 -12 538 79 538 188 c 0
 538 297 629 388 738 388 c 0
262 288 m 0
 207 288 162 243 162 188 c 0
 162 133 207 88 262 88 c 0
 317 88 362 133 362 188 c 0xfa40
 362 243 317 288 262 288 c 0
262 388 m 0
 371 388 462 297 462 188 c 0
 462 79 371 -12 262 -12 c 0
 153 -12 62 79 62 188 c 0
 62 297 153 388 262 388 c 0
500 712 m 0
 445 712 400 667 400 612 c 0
 400 557 445 512 500 512 c 0
 555 512 600 557 600 612 c 0xfcc0
 600 667 555 712 500 712 c 0
500 812 m 0
 609 812 700 721 700 612 c 0
 700 503 609 412 500 412 c 0
 391 412 300 503 300 612 c 0
 300 721 391 812 500 812 c 0
EndSplineSet
LCarets2: 5 -75 -75 -75 -75 -75
MultipleSubs2: "CCMP cartouches" t.kulupu cart.body
Ligature2: "LIGA basics" k u l u p u
EndChar

StartChar: t.kute
Encoding: 133 989472 34
GlifName: t.kute
Width: 1000
GlyphClass: 1
Flags: W
HStem: 0 100<275 401.114> 530 20G<450 550> 725 100<412.3 587.7>
VStem: 200 100<525 611.073> 450 100<419.178 550> 700 100<396.165 612.7>
CounterMasks: 1 1c
LayerCount: 2
Fore
SplineSet
450 550 m 1
 450 550 493 550 523 550 c 0
 539 550 550 550 550 550 c 1
 550 455 525 368 481 291 c 1
 394 339 l 1
 428 401 450 473 450 550 c 1
500 825 m 0
 666 825 800 691 800 525 c 0
 800 234 566 0 275 0 c 1
 275 100 l 1
 509 100 700 291 700 525 c 0
 700 634 609 725 500 725 c 0
 391 725 300 634 300 525 c 1
 200 525 l 1
 200 691 334 825 500 825 c 0
EndSplineSet
LCarets2: 3 0 0 0
MultipleSubs2: "CCMP cartouches" t.kute cart.body
Ligature2: "LIGA basics" k u t e
EndChar

StartChar: t.la
Encoding: 134 989473 35
GlifName: t.la
Width: 1000
GlyphClass: 1
Flags: W
VStem: 550 100<270.46 529.54>
LayerCount: 2
Fore
SplineSet
412 827 m 1
 556 739 650 580 650 400 c 0
 650 220 556 61 412 -27 c 1
 359 59 l 1
 473 129 550 256 550 400 c 0
 550 544 473 671 359 741 c 1
 412 827 l 1
EndSplineSet
LCarets2: 1 0
MultipleSubs2: "CCMP cartouches" t.la cart.body
Ligature2: "LIGA basics" l a
EndChar

StartChar: t.lape
Encoding: 135 989474 36
GlifName: t.lape
Width: 1000
GlyphClass: 1
Flags: W
HStem: 200 100<664.693 785.287> 350 100<75 537.163> 500 100<664.693 785.287>
VStem: 825 100<339.713 460.287>
CounterMasks: 1 e0
LayerCount: 2
Fore
SplineSet
725 600 m 0
 834 600 925 509 925 400 c 0
 925 291 834 200 725 200 c 0
 631 200 553 264 531 350 c 1
 75 350 l 1
 75 450 l 1
 531 450 l 1
 553 536 631 600 725 600 c 0
725 500 m 0
 670 500 625 455 625 400 c 0
 625 345 670 300 725 300 c 0
 780 300 825 345 825 400 c 0
 825 455 780 500 725 500 c 0
EndSplineSet
LCarets2: 3 0 0 0
MultipleSubs2: "CCMP cartouches" t.lape cart.body
Ligature2: "LIGA basics" l a p e
EndChar

StartChar: t.laso
Encoding: 136 989475 37
GlifName: t.laso
Width: 1000
GlyphClass: 1
Flags: W
HStem: 0 100<341 659> 400 100<353.936 445 555 646.064> 700 100<205 302.796 697.204 795>
VStem: 450 100<350 400>
LayerCount: 2
Fore
SplineSet
500 259 m 1
 341 100 l 1
 659 100 l 1
 500 259 l 1
795 700 m 1
 678 698 578 616 555 500 c 1
 672 502 772 584 795 700 c 1
205 700 m 1
 228 584 328 502 445 500 c 1
 422 616 322 698 205 700 c 1
200 800 m 2
 327 800 439 732 500 630 c 1
 561 732 673 800 800 800 c 2
 900 800 l 1
 900 750 l 2
 900 556 744 400 550 400 c 1
 550 350 l 1
 900 0 l 1
 100 0 l 1
 450 350 l 1
 450 400 l 1
 256 400 100 556 100 750 c 2
 100 800 l 1
 100 800 111 798 127 798 c 0
 157 798 200 800 200 800 c 2
EndSplineSet
LCarets2: 3 0 0 0
MultipleSubs2: "CCMP cartouches" t.laso cart.body
Ligature2: "LIGA basics" l a s o
EndChar

StartChar: t.lawa
Encoding: 137 989476 38
GlifName: t.lawa
Width: 1000
GlyphClass: 1
Flags: W
HStem: 38 100<317.102 507.024> 475 100<228 597 745 925> 662 100<316.692 511.067>
VStem: 75 100<282.785 467.898> 650 100<282.785 475>
LayerCount: 2
Fore
SplineSet
750 375 m 2
 750 189 598 38 412 38 c 0
 226 38 75 189 75 375 c 2
 75 425 l 2
 75 611 226 762 412 762 c 0
 540 762 660 691 716 575 c 1
 925 575 l 1
 925 475 l 1
 745 475 l 1
 747 458 750 442 750 425 c 2
 750 375 l 2
650 375 m 2
 650 425 l 2
 650 442 650 459 645 475 c 1
 180 475 l 1
 175 459 175 442 175 425 c 2
 175 375 l 2
 175 244 281 138 412 138 c 0
 543 138 650 244 650 375 c 2
412 662 m 0
 342 662 273 630 228 575 c 1
 597 575 l 1
 552 630 482 662 412 662 c 0
EndSplineSet
LCarets2: 3 0 0 0
MultipleSubs2: "CCMP cartouches" t.lawa cart.body
Ligature2: "LIGA basics" l a w a
EndChar

StartChar: t.len
Encoding: 138 989477 39
GlifName: t.len
Width: 1000
GlyphClass: 1
Flags: W
HStem: 0 21G<175 275 450 550 725 825> 200 100<275 450 550 725> 700 100<275 725>
VStem: 175 100<0 200 300 700> 450 100<0 200> 725 100<0 200 300 700>
CounterMasks: 1 1c
LayerCount: 2
Fore
SplineSet
275 700 m 1
 275 300 l 1
 725 300 l 1
 725 700 l 1
 275 700 l 1
175 800 m 1
 825 800 l 1
 825 0 l 1
 725 0 l 1
 725 200 l 1
 550 200 l 1
 550 0 l 1
 450 0 l 1
 450 200 l 1
 275 200 l 1
 275 0 l 1
 175 0 l 1
 175 800 l 1
EndSplineSet
LCarets2: 2 0 0
MultipleSubs2: "CCMP cartouches" t.len cart.body
Ligature2: "LIGA basics" l e n
EndChar

StartChar: t.lete
Encoding: 139 989478 40
GlifName: t.lete
Width: 1000
GlyphClass: 1
Flags: W
HStem: 350 100<100 412 588 900>
LayerCount: 2
Fore
SplineSet
656 770 m 1
 744 720 l 1
 588 450 l 1
 900 450 l 1
 900 350 l 1
 588 350 l 1
 744 80 l 1
 656 30 l 1
 500 300 l 1
 344 30 l 1
 256 80 l 1
 412 350 l 1
 100 350 l 1
 100 450 l 1
 412 450 l 1
 256 720 l 1
 344 770 l 1
 500 500 l 1
 656 770 l 1
EndSplineSet
LCarets2: 3 -75 -75 -75
MultipleSubs2: "CCMP cartouches" t.lete cart.body
Ligature2: "LIGA basics" l e t e
EndChar

StartChar: t.li
Encoding: 140 989479 41
GlifName: t.li
Width: 1000
GlyphClass: 1
Flags: W
LayerCount: 2
Fore
SplineSet
269 825 m 1
 800 400 l 1
 269 -25 l 1
 206 53 l 1
 641 400 l 1
 206 747 l 1
 269 825 l 1
EndSplineSet
LCarets2: 1 -75
MultipleSubs2: "CCMP cartouches" t.li cart.body
Ligature2: "LIGA basics" l i
EndChar

StartChar: t.lili
Encoding: 141 989480 42
GlifName: t.lili
Width: 1000
GlyphClass: 1
Flags: W
HStem: 539 20G<327.881 368.876 631.124 672.119>
LayerCount: 2
Fore
SplineSet
355 559 m 1
 500 350 l 1
 645 559 l 1
 725 500 l 1
 500 200 l 1
 275 500 l 1
 355 559 l 1
EndSplineSet
LCarets2: 3 0 0 0
MultipleSubs2: "CCMP cartouches" t.lili cart.body
Ligature2: "LIGA basics" l i l i
EndChar

StartChar: t.linja
Encoding: 142 989481 43
GlifName: t.linja
Width: 1000
GlyphClass: 1
Flags: W
HStem: 200 100<625.552 776.083> 500 100<223.917 374.448>
VStem: 50 100<275 424.316> 850 100<375.684 525>
LayerCount: 2
Fore
SplineSet
300 600 m 0
 392 600 476 550 520 469 c 2
 569 380 l 2
 596 332 645 300 700 300 c 0
 783 300 850 367 850 450 c 2
 850 525 l 1
 950 525 l 1
 950 450 l 2
 950 312 838 200 700 200 c 0
 608 200 524 250 480 331 c 2
 431 420 l 2
 404 468 355 500 300 500 c 0
 217 500 150 433 150 350 c 2
 150 275 l 1
 50 275 l 1
 50 350 l 2
 50 488 162 600 300 600 c 0
EndSplineSet
LCarets2: 4 -75 -75 -75 -75
MultipleSubs2: "CCMP cartouches" t.linja cart.body
Ligature2: "LIGA basics" l i n j a
EndChar

StartChar: t.lipu
Encoding: 143 989482 44
GlifName: t.lipu
Width: 1000
GlyphClass: 1
Flags: W
HStem: 0 100<275 725> 700 100<275 725>
VStem: 175 100<100 700> 725 100<100 700>
LayerCount: 2
Fore
SplineSet
275 700 m 1
 275 100 l 1
 725 100 l 1
 725 700 l 1
 275 700 l 1
175 800 m 1
 825 800 l 1
 825 0 l 1
 175 0 l 1
 175 800 l 1
EndSplineSet
LCarets2: 3 -75 -75 -75
MultipleSubs2: "CCMP cartouches" t.lipu cart.body
Ligature2: "LIGA basics" l i p u
EndChar

StartChar: t.loje
Encoding: 144 989483 45
GlifName: t.loje
Width: 1000
GlyphClass: 1
Flags: W
HStem: 0 100<377 623> 700 100<300 700>
VStem: 200 100<614.984 700> 700 100<614.984 700>
LayerCount: 2
Fore
SplineSet
500 306 m 1
 377 100 l 1
 623 100 l 1
 500 306 l 1
300 700 m 1
 300 591 391 500 500 500 c 0
 609 500 700 591 700 700 c 1
 300 700 l 1
200 800 m 1
 800 800 l 1
 800 700 l 2
 800 555 694 432 556 405 c 1
 800 0 l 1
 200 0 l 1
 444 405 l 1
 306 432 200 555 200 700 c 2
 200 800 l 1
EndSplineSet
LCarets2: 3 -75 -75 -75
MultipleSubs2: "CCMP cartouches" t.loje cart.body
Ligature2: "LIGA basics" l o j e
EndChar

StartChar: t.lon
Encoding: 145 989484 46
GlifName: t.lon
Width: 1000
GlyphClass: 1
Flags: W
HStem: 200 100<100 900> 425 150<448.417 551.583>
VStem: 425 150<448.417 551.583>
LayerCount: 2
Fore
SplineSet
425 500 m 0
 425 541 459 575 500 575 c 0
 541 575 575 541 575 500 c 0
 575 459 541 425 500 425 c 0
 459 425 425 459 425 500 c 0
100 200 m 1
 100 300 l 1
 900 300 l 1
 900 200 l 1
 100 200 l 1
EndSplineSet
LCarets2: 2 -75 -75
MultipleSubs2: "CCMP cartouches" t.lon cart.body
Ligature2: "LIGA basics" l o n
EndChar

StartChar: t.luka
Encoding: 146 989485 47
GlifName: t.luka
Width: 1000
GlyphClass: 1
Flags: W
HStem: 0 21G<286.154 400 800 900> 725 100<512.3 687.7>
VStem: 300 100<175 611.073> 800 100<0 611.073>
LayerCount: 2
Fore
SplineSet
600 825 m 0
 766 825 900 691 900 525 c 2
 900 0 l 1
 800 0 l 1
 800 525 l 2
 800 634 709 725 600 725 c 0
 491 725 400 634 400 525 c 2
 400 0 l 1
 300 0 l 1
 75 325 l 1
 156 381 l 1
 300 175 l 1
 300 525 l 2
 300 691 434 825 600 825 c 0
EndSplineSet
LCarets2: 3 -75 -75 -75
MultipleSubs2: "CCMP cartouches" t.luka cart.body
Ligature2: "LIGA basics" l u k a
EndChar

StartChar: t.lukin
Encoding: 147 989486 48
GlifName: t.lukin
Width: 1000
GlyphClass: 1
Flags: W
HStem: 150 100<372.405 627.595> 325 150<448.417 551.583> 550 100<372.405 627.595>
VStem: 425 150<348.417 451.583>
CounterMasks: 1 e0
LayerCount: 2
Fore
SplineSet
500 550 m 0
 373 550 261 492 188 400 c 1
 261 308 373 250 500 250 c 0
 627 250 739 308 812 400 c 1
 739 492 627 550 500 550 c 0
500 650 m 0
 684 650 847 550 933 400 c 1
 847 250 684 150 500 150 c 0
 316 150 153 250 67 400 c 1
 153 550 316 650 500 650 c 0
425 400 m 0
 425 441 459 475 500 475 c 0
 541 475 575 441 575 400 c 0
 575 359 541 325 500 325 c 0
 459 325 425 359 425 400 c 0
EndSplineSet
LCarets2: 4 -75 -75 -75 -75
MultipleSubs2: "CCMP cartouches" t.lukin cart.body
Ligature2: "LIGA basics" l u k i n
EndChar

StartChar: t.lupa
Encoding: 148 989487 49
GlifName: t.lupa
Width: 1000
GlyphClass: 1
Flags: W
HStem: -25 100<409.398 590.602> 780 20G<175 275 725 825>
VStem: 175 100<210.848 800> 725 100<210.848 800>
LayerCount: 2
Fore
SplineSet
500 -25 m 0
 320 -25 175 120 175 300 c 2
 175 800 l 1
 275 800 l 1
 275 300 l 2
 275 177 377 75 500 75 c 0
 623 75 725 177 725 300 c 2
 725 800 l 1
 825 800 l 1
 825 300 l 2
 825 120 680 -25 500 -25 c 0
EndSplineSet
LCarets2: 3 -75 -75 -75
MultipleSubs2: "CCMP cartouches" t.lupa cart.body
Ligature2: "LIGA basics" l u p a
EndChar

StartChar: t.ma
Encoding: 149 989488 50
GlifName: t.ma
Width: 1000
GlyphClass: 1
Flags: W
HStem: -25 105<375.352 450 550 624.648> 350 100<180 450 550 820> 720 105<375.352 450 550 624.648>
VStem: 75 105<275.352 350 450 524.648> 450 100<80 350 450 720> 820 105<275.352 350 450 524.648>
CounterMasks: 1 fc
LayerCount: 2
Fore
SplineSet
550 350 m 1
 550 350 550 228 550 148 c 0
 550 107 550 80 550 80 c 1
 689 102 798 211 820 350 c 1
 550 350 l 1
180 350 m 1
 202 211 311 102 450 80 c 1
 450 350 l 1
 180 350 l 1
550 720 m 1
 550 450 l 1
 550 450 672 450 752 450 c 0
 793 450 820 450 820 450 c 1
 798 589 689 698 550 720 c 1
450 720 m 1
 311 698 202 589 180 450 c 1
 450 450 l 1
 450 720 l 1
500 825 m 0
 734 825 925 634 925 400 c 0
 925 166 734 -25 500 -25 c 0
 266 -25 75 166 75 400 c 0
 75 634 266 825 500 825 c 0
EndSplineSet
LCarets2: 1 -75
MultipleSubs2: "CCMP cartouches" t.ma cart.body
Ligature2: "LIGA basics" m a
EndChar

StartChar: t.mama
Encoding: 150 989489 51
GlifName: t.mama
Width: 1000
GlyphClass: 1
Flags: W
HStem: -50 100<458.659 541.341> 150 100<461.944 538.056> 750 100<403.327 596.673>
VStem: 150 100<401.751 596.673> 350 100<58.6588 141.06> 550 100<58.6588 141.06> 750 100<401.751 596.673>
LayerCount: 2
Fore
SplineSet
500 750 m 0
 362 750 250 638 250 500 c 0
 250 362 362 250 500 250 c 0
 638 250 750 362 750 500 c 0
 750 638 638 750 500 750 c 0
500 850 m 0
 694 850 850 694 850 500 c 0
 850 353 760 227 630 175 c 1
 642 153 650 127 650 100 c 0
 650 17 583 -50 500 -50 c 0
 417 -50 350 17 350 100 c 0
 350 127 358 153 370 175 c 1
 240 227 150 353 150 500 c 0
 150 694 306 850 500 850 c 0
500 150 m 0
 472 150 450 128 450 100 c 0
 450 72 472 50 500 50 c 0
 528 50 550 72 550 100 c 0
 550 128 528 150 500 150 c 0
EndSplineSet
LCarets2: 3 0 0 0
MultipleSubs2: "CCMP cartouches" t.mama cart.body
Ligature2: "LIGA basics" m a m a
EndChar

StartChar: t.mani
Encoding: 151 989490 52
GlifName: t.mani
Width: 1000
GlyphClass: 1
Flags: W
HStem: 0 100<403.327 596.673> 600 100<402.044 597.956>
VStem: 50 100<660.974 750> 150 100<253.327 449.551> 750 100<253.327 449.551> 850 100<661.854 750>
LayerCount: 2
Fore
SplineSet
50 750 m 1xe0
 150 750 l 1
 150 681 184 620 239 584 c 1
 303 654 395 700 500 700 c 0
 605 700 697 655 761 583 c 1
 816 619 850 681 850 750 c 1
 950 750 l 1xe4
 950 647 897 555 816 500 c 1
 838 455 850 405 850 350 c 0
 850 156 694 0 500 0 c 0
 306 0 150 156 150 350 c 0xd8
 150 405 162 455 184 500 c 1
 103 555 50 645 50 750 c 1xe0
500 600 m 0
 362 600 250 488 250 350 c 0
 250 212 362 100 500 100 c 0
 638 100 750 212 750 350 c 0xd8
 750 488 638 600 500 600 c 0
EndSplineSet
LCarets2: 3 -75 -75 -75
MultipleSubs2: "CCMP cartouches" t.mani cart.body
Ligature2: "LIGA basics" m a n i
EndChar

StartChar: t.meli
Encoding: 152 989491 53
GlifName: t.meli
Width: 1000
GlyphClass: 1
Flags: W
HStem: 78 100<300 450 550 700> 256 97<413.927 450 550 586.073> 753 100<412.3 587.7>
VStem: 200 100<466.571 640.7> 450 100<-47 78 178 259.905> 700 100<466.571 640.7>
CounterMasks: 1 1c
LayerCount: 2
Fore
SplineSet
500 753 m 0
 391 753 300 662 300 553 c 0
 300 444 391 353 500 353 c 0
 609 353 700 444 700 553 c 0
 700 662 609 753 500 753 c 0
500 853 m 0
 666 853 800 719 800 553 c 0
 800 405 692 279 550 256 c 1
 550 178 l 1
 700 178 l 1
 700 78 l 1
 550 78 l 1
 550 -47 l 1
 450 -47 l 1
 450 78 l 1
 300 78 l 1
 300 178 l 1
 450 178 l 1
 450 256 l 1
 308 279 200 405 200 553 c 0
 200 719 334 853 500 853 c 0
EndSplineSet
LCarets2: 3 -75 -75 -75
MultipleSubs2: "CCMP cartouches" t.meli cart.body
Ligature2: "LIGA basics" m e l i
EndChar

StartChar: t.mi
Encoding: 153 989492 54
GlifName: t.mi
Width: 1000
GlyphClass: 1
Flags: W
HStem: -12 21G<449 549.904> 350 100<430.361 568.156> 700 100<431.844 568.156>
VStem: 275 100<508.869 643.156> 625 100<506.844 643.156>
LayerCount: 2
Fore
SplineSet
625 575 m 0
 625 644 569 700 500 700 c 0
 431 700 375 644 375 575 c 0
 375 506 431 450 500 450 c 0
 569 450 625 506 625 575 c 0
725 575 m 0
 725 452 623 350 500 350 c 0
 466 350 435 358 405 370 c 1
 441 251 508 145 600 61 c 1
 531 -12 l 1
 367 140 275 352 275 575 c 0
 275 698 377 800 500 800 c 0
 623 800 725 698 725 575 c 0
EndSplineSet
LCarets2: 1 0
MultipleSubs2: "CCMP cartouches" t.mi cart.body
Ligature2: "LIGA basics" m i
EndChar

StartChar: t.mije
Encoding: 154 989493 55
GlifName: t.mije
Width: 1000
GlyphClass: 1
Flags: W
HStem: -22 100<287.3 462.7> 478 100<287.3 461.93> 703 100<550 738>
VStem: 75 100<190.3 365.7> 575 100<190.3 365.156> 800 100<453 641>
LayerCount: 2
Fore
SplineSet
375 478 m 0
 266 478 175 387 175 278 c 0
 175 169 266 78 375 78 c 0
 484 78 575 169 575 278 c 0
 575 387 484 478 375 478 c 0
619 452 m 1
 653 404 675 344 675 278 c 0
 675 112 541 -22 375 -22 c 0
 209 -22 75 112 75 278 c 0
 75 444 209 578 375 578 c 0
 441 578 500 556 548 522 c 1
 738 703 l 1
 550 703 l 1
 550 803 l 1
 900 803 l 1
 900 453 l 1
 800 453 l 1
 800 641 l 1
 619 452 l 1
EndSplineSet
LCarets2: 3 -75 -75 -75
MultipleSubs2: "CCMP cartouches" t.mije cart.body
Ligature2: "LIGA basics" m i j e
EndChar

StartChar: t.moku
Encoding: 155 989494 56
GlifName: t.moku
Width: 1000
GlyphClass: 1
Flags: W
HStem: 0 21G<260 375 725 825> 350 150<468.319 631.681> 700 100<350 750>
VStem: 250 100<613.927 700> 275 100<162 258.203> 725 100<0 258.203> 750 100<613.927 700>
LayerCount: 2
Fore
SplineSet
250 800 m 1xf0
 850 800 l 1
 850 800 850 757 850 727 c 0
 850 711 850 700 850 700 c 0xf2
 850 577 773 468 667 423 c 1
 761 379 825 284 825 175 c 2
 825 0 l 1
 725 0 l 1
 725 175 l 2
 725 272 647 350 550 350 c 0
 453 350 375 272 375 175 c 2
 375 0 l 1
 275 0 l 1
 125 200 l 1
 205 259 l 1
 275 162 l 1
 275 175 l 2xec
 275 284 339 379 433 423 c 1
 327 468 250 577 250 700 c 2
 250 800 l 1xf0
350 700 m 1
 350 591 441 500 550 500 c 0
 659 500 750 591 750 700 c 1
 350 700 l 1
EndSplineSet
LCarets2: 3 -75 -75 -75
MultipleSubs2: "CCMP cartouches" t.moku cart.body
Ligature2: "LIGA basics" m o k u
EndChar

StartChar: t.moli
Encoding: 156 989495 57
GlifName: t.moli
Width: 1000
GlyphClass: 1
Flags: W
HStem: 178 100<305.281 694.719>
LayerCount: 2
Fore
SplineSet
500 278 m 0
 600 278 695 264 786 234 c 1
 756 139 l 1
 675 166 589 178 500 178 c 0
 411 178 325 166 244 139 c 0
 214 234 l 1
 305 264 400 278 500 278 c 0
573 659 m 1
 644 730 l 1
 750 623 l 1
 856 730 l 1
 927 659 l 1
 820 553 l 1
 927 447 l 1
 856 377 l 1
 750 481 l 1
 644 377 l 1
 573 447 l 1
 680 553 l 1
 573 659 l 1
73 659 m 1
 144 730 l 1
 250 623 l 1
 356 730 l 1
 427 659 l 1
 320 553 l 1
 427 447 l 1
 356 377 l 1
 250 481 l 1
 144 377 l 1
 73 447 l 1
 180 553 l 1
 73 659 l 1
EndSplineSet
LCarets2: 3 -75 -75 -75
MultipleSubs2: "CCMP cartouches" t.moli cart.body
Ligature2: "LIGA basics" m o l i
EndChar

StartChar: t.monsi
Encoding: 157 989496 58
GlifName: t.monsi
Width: 1000
GlyphClass: 1
Flags: W
HStem: 3 100<525 800> 328 150<248.417 351.583> 703 100<525 800>
VStem: 225 150<351.417 454.583> 425 100<103 703>
CounterMasks: 1 e0
LayerCount: 2
Fore
SplineSet
225 403 m 0
 225 444 259 478 300 478 c 0
 341 478 375 444 375 403 c 0
 375 362 341 328 300 328 c 0
 259 328 225 362 225 403 c 0
800 803 m 1
 800 703 l 1
 525 703 l 1
 525 103 l 1
 800 103 l 1
 800 3 l 1
 425 3 l 1
 425 803 l 1
 800 803 l 1
EndSplineSet
LCarets2: 4 -75 -75 -75 -75
MultipleSubs2: "CCMP cartouches" t.monsi cart.body
Ligature2: "LIGA basics" m o n s i
EndChar

StartChar: t.mu
Encoding: 158 989497 59
GlifName: t.mu
Width: 1000
GlyphClass: 1
Flags: W
HStem: -22 100<399.381 600.619> 153 150<448.417 551.583> 603 100<443.313 556.687> 753 100<189.713 310.19 689.81 810.287>
VStem: 50 100<591.791 713.287> 138 100<240.264 444.386> 425 150<176.417 279.583> 762 100<240.264 444.386> 850 100<591.791 713.287>
LayerCount: 2
Fore
SplineSet
500 303 m 0xf2
 541 303 575 269 575 228 c 0
 575 187 541 153 500 153 c 0
 459 153 425 187 425 228 c 0
 425 269 459 303 500 303 c 0xf2
500 603 m 0
 355 603 238 486 238 341 c 0
 238 196 355 78 500 78 c 0
 645 78 762 196 762 341 c 0xf7
 762 486 645 603 500 603 c 0
750 753 m 0
 702 753 660 717 652 670 c 1
 707 645 752 608 788 561 c 1
 824 577 850 611 850 653 c 0xf280
 850 708 805 753 750 753 c 0
250 753 m 0
 195 753 150 708 150 653 c 0xfa
 150 611 176 577 212 561 c 1
 248 608 293 645 348 670 c 1
 340 717 298 753 250 753 c 0
250 853 m 0
 345 853 425 786 445 698 c 1
 464 701 481 703 500 703 c 0
 519 703 536 701 555 698 c 1
 575 786 655 853 750 853 c 0
 859 853 950 762 950 653 c 0xfa80
 950 573 905 504 838 473 c 1
 854 432 862 388 862 341 c 0
 862 141 700 -22 500 -22 c 0
 300 -22 138 141 138 341 c 0xf7
 138 388 146 432 162 473 c 1
 95 504 50 573 50 653 c 0
 50 762 141 853 250 853 c 0
EndSplineSet
LCarets2: 1 -75
MultipleSubs2: "CCMP cartouches" t.mu cart.body
Ligature2: "LIGA basics" m u
EndChar

StartChar: t.mun
Encoding: 159 989498 60
GlifName: t.mun
Width: 1000
GlyphClass: 1
Flags: W
HStem: -25 100<373.808 601.921> 725 100<373.808 601.921>
VStem: 438 100<312.271 487.729> 812 100<285.978 514.022>
LayerCount: 2
Fore
SplineSet
488 725 m 0
 432 725 376 709 331 684 c 1
 451 645 538 533 538 400 c 0
 538 267 451 155 331 116 c 1
 376 91 432 75 488 75 c 0
 668 75 812 220 812 400 c 0
 812 580 668 725 488 725 c 0
488 825 m 0
 722 825 912 634 912 400 c 0
 912 166 722 -25 488 -25 c 0
 368 -25 258 25 181 105 c 0
 136 152 101 211 81 275 c 1
 115 231 170 202 231 200 c 0
 233 200 236 200 238 200 c 0
 347 200 438 291 438 400 c 0
 438 509 347 600 238 600 c 0
 236 600 233 600 231 600 c 0
 170 598 115 569 81 525 c 1
 101 589 136 648 181 695 c 0
 258 775 368 825 488 825 c 0
EndSplineSet
LCarets2: 2 0 0
MultipleSubs2: "CCMP cartouches" t.mun cart.body
Ligature2: "LIGA basics" m u n
EndChar

StartChar: t.musi
Encoding: 160 989499 61
GlifName: t.musi
Width: 1000
GlyphClass: 1
Flags: W
HStem: -50 100<395.318 604.682> 450 100<247.429 308.491 691.509 752.571> 750 100<189.713 310.287 689.713 810.287>
VStem: 50 100<588.233 710.287> 125 100<220.318 431.775> 350 100<589.927 710.287> 550 100<589.841 710.287> 775 100<220.318 431.775> 850 100<588.233 710.287>
LayerCount: 2
Fore
SplineSet
750 750 m 0xe680
 695 750 650 705 650 650 c 0
 650 595 695 550 750 550 c 0
 805 550 850 595 850 650 c 0
 850 705 805 750 750 750 c 0xe680
250 750 m 0
 195 750 150 705 150 650 c 0xf6
 150 595 195 550 250 550 c 0
 305 550 350 595 350 650 c 0
 350 705 305 750 250 750 c 0
250 850 m 2
 359 850 450 759 450 650 c 0
 450 541 363 455 255 450 c 1
 236 412 225 370 225 325 c 0
 225 173 348 50 500 50 c 0
 652 50 775 173 775 325 c 0xef
 775 370 764 412 745 450 c 1
 637 453 550 541 550 650 c 0
 550 759 641 850 750 850 c 0
 859 850 950 759 950 650 c 0xe680
 950 573 906 507 844 473 c 1
 864 428 875 378 875 325 c 2
 875 119 706 -50 500 -50 c 0
 294 -50 125 119 125 325 c 0xef
 125 378 136 428 156 473 c 1
 94 507 50 573 50 650 c 0
 50 759 141 850 250 850 c 2
EndSplineSet
LCarets2: 3 0 0 0
MultipleSubs2: "CCMP cartouches" t.musi cart.body
Ligature2: "LIGA basics" m u s i
EndChar

StartChar: t.mute
Encoding: 161 989500 62
GlifName: t.mute
Width: 1000
GlyphClass: 1
Flags: W
HStem: 0 21G<200 300 450 550 700 800> 780 20G<200 300 450 550 700 800>
VStem: 200 100<0 800> 450 100<0 800> 700 100<0 800>
CounterMasks: 1 38
LayerCount: 2
Fore
SplineSet
700 0 m 1
 700 800 l 1
 800 800 l 1
 800 0 l 1
 700 0 l 1
200 0 m 1
 200 800 l 1
 300 800 l 1
 300 0 l 1
 200 0 l 1
450 0 m 1
 450 800 l 1
 550 800 l 1
 550 0 l 1
 450 0 l 1
EndSplineSet
LCarets2: 3 -75 -75 -75
MultipleSubs2: "CCMP cartouches" t.mute cart.body
Ligature2: "LIGA basics" m u t e
EndChar

StartChar: t.nanpa
Encoding: 162 989501 63
GlifName: t.nanpa
Width: 1000
GlyphClass: 1
Flags: W
HStem: 200 100<75 300 400 600 700 925> 500 100<75 300 400 600 700 925>
VStem: 300 100<-25 200 300 500 600 825> 600 100<-25 200 300 500 600 825>
LayerCount: 2
Fore
SplineSet
700 600 m 1
 925 600 l 1
 925 500 l 1
 700 500 l 1
 700 300 l 1
 925 300 l 1
 925 200 l 1
 700 200 l 1
 700 -25 l 1
 600 -25 l 1
 600 200 l 1
 400 200 l 1
 400 -25 l 1
 300 -25 l 1
 300 200 l 1
 75 200 l 1
 75 300 l 1
 300 300 l 1
 300 500 l 1
 75 500 l 1
 75 600 l 1
 300 600 l 1
 300 825 l 1
 400 825 l 1
 400 600 l 1
 600 600 l 1
 600 825 l 1
 700 825 l 1
 700 600 l 1
600 500 m 1
 400 500 l 1
 400 300 l 1
 600 300 l 1
 600 500 l 1
EndSplineSet
LCarets2: 4 -75 -75 -75 -75
MultipleSubs2: "CCMP cartouches" t.nanpa cart.body
Ligature2: "LIGA basics" n a n p a
EndChar

StartChar: t.nasa
Encoding: 163 989502 64
GlifName: t.nasa
Width: 1000
GlyphClass: 1
Flags: W
HStem: -50 100<474.756 600> 150 100<512.3 687.7> 550 100<439.713 560.287> 750 100<390.343 609.657>
VStem: 100 100<323.409 559.657> 300 100<362.3 510.287> 600 100<389.533 510.287> 800 100<362.3 559.657>
LayerCount: 2
Fore
SplineSet
500 850 m 0
 720 850 900 670 900 450 c 0
 900 284 766 150 600 150 c 0
 434 150 300 284 300 450 c 0
 300 559 391 650 500 650 c 0
 609 650 700 559 700 450 c 0
 700 397 679 347 641 309 c 1
 570 380 l 1
 589 399 600 423 600 450 c 0
 600 505 555 550 500 550 c 0
 445 550 400 505 400 450 c 0
 400 341 491 250 600 250 c 0
 709 250 800 341 800 450 c 0
 800 616 666 750 500 750 c 0
 334 750 200 616 200 450 c 0
 200 230 380 50 600 50 c 1
 600 -50 l 1
 323 -50 100 173 100 450 c 0
 100 670 280 850 500 850 c 0
EndSplineSet
LCarets2: 3 -75 -75 -75
MultipleSubs2: "CCMP cartouches" t.nasa cart.body
Ligature2: "LIGA basics" n a s a
EndChar

StartChar: t.nasin
Encoding: 164 989503 65
GlifName: t.nasin
Width: 1000
GlyphClass: 1
Flags: W
HStem: 0 21G<450 550> 780 20G<450 550>
VStem: 450 100<0 462 600 800>
LayerCount: 2
Fore
SplineSet
450 800 m 1
 550 800 l 1
 550 600 l 1
 825 325 l 1
 750 250 l 1
 550 462 l 1
 550 0 l 1
 450 0 l 1
 450 462 l 1
 250 250 l 1
 175 325 l 1
 450 600 l 1
 450 800 l 1
EndSplineSet
LCarets2: 4 0 0 0 0
MultipleSubs2: "CCMP cartouches" t.nasin cart.body
Ligature2: "LIGA basics" n a s i n
EndChar

StartChar: t.nena
Encoding: 165 989504 66
GlifName: t.nena
Width: 1000
GlyphClass: 1
Flags: W
HStem: 0 21G<175 275 725 825> 725 100<409.398 590.602>
VStem: 175 100<0 589.152> 725 100<0 589.152>
LayerCount: 2
Fore
SplineSet
500 825 m 0
 680 825 825 680 825 500 c 2
 825 0 l 1
 725 0 l 1
 725 500 l 2
 725 623 623 725 500 725 c 0
 377 725 275 623 275 500 c 2
 275 0 l 1
 175 0 l 1
 175 500 l 2
 175 680 320 825 500 825 c 0
EndSplineSet
LCarets2: 3 -75 -75 -75
MultipleSubs2: "CCMP cartouches" t.nena cart.body
Ligature2: "LIGA basics" n e n a
EndChar

StartChar: t.ni
Encoding: 166 989505 67
GlifName: t.ni
Width: 1000
GlyphClass: 1
Flags: W
HStem: -12 21G<479.938 520.062> 780 20G<450 550>
VStem: 450 100<175 800>
LayerCount: 2
Fore
SplineSet
450 800 m 1
 550 800 l 1
 550 175 l 1
 750 388 l 1
 825 312 l 1
 500 -12 l 1
 175 312 l 1
 250 388 l 1
 450 175 l 1
 450 800 l 1
EndSplineSet
LCarets2: 2 0 0
Ligature2: "LIGA alternates" t.ni zero one
MultipleSubs2: "CCMP cartouches" t.ni cart.body
Ligature2: "LIGA basics" n i
EndChar

StartChar: t.nimi
Encoding: 167 989506 68
GlifName: t.nimi
Width: 1000
GlyphClass: 1
Flags: W
HStem: 188 100<183.88 816.12> 512 100<183.88 816.12>
VStem: 75 100<296.88 503.12> 825 100<296.88 503.12>
LayerCount: 2
Fore
SplineSet
225 512 m 2
 197 512 175 490 175 462 c 2
 175 338 l 2
 175 310 197 288 225 288 c 2
 775 288 l 2
 803 288 825 310 825 338 c 2
 825 462 l 2
 825 490 803 512 775 512 c 2
 225 512 l 2
225 612 m 2
 775 612 l 2
 858 612 925 545 925 462 c 2
 925 338 l 2
 925 255 858 188 775 188 c 2
 225 188 l 2
 142 188 75 255 75 338 c 2
 75 462 l 2
 75 545 142 612 225 612 c 2
EndSplineSet
LCarets2: 3 -75 -75 -75
MultipleSubs2: "CCMP cartouches" t.nimi cart.body
Ligature2: "LIGA basics" n i m i
EndChar

StartChar: t.noka
Encoding: 168 989507 69
GlifName: t.noka
Width: 1000
GlyphClass: 1
Flags: W
HStem: 0 100<275 716.439> 350 100<550 716.439> 780 20G<175 275 450 550>
VStem: 175 100<100 800> 450 100<450 800> 775 100<156.844 293.156>
LayerCount: 2
Fore
SplineSet
175 800 m 1
 275 800 l 1
 275 100 l 1
 650 100 l 2
 719 100 775 156 775 225 c 0
 775 294 719 350 650 350 c 2
 450 350 l 1
 450 800 l 1
 550 800 l 1
 550 450 l 1
 650 450 l 2
 773 450 875 348 875 225 c 0
 875 102 773 0 650 0 c 2
 175 0 l 1
 175 800 l 1
EndSplineSet
LCarets2: 3 -75 -75 -75
MultipleSubs2: "CCMP cartouches" t.noka cart.body
Ligature2: "LIGA basics" n o k a
EndChar

StartChar: t.o
Encoding: 169 989508 70
GlifName: t.o
Width: 1000
GlyphClass: 1
Flags: W
HStem: -25 100<439.713 560.287> 275 100<439.713 560.287>
VStem: 300 100<114.713 235.287> 450 100<450 825> 600 100<114.713 235.287>
CounterMasks: 1 38
LayerCount: 2
Fore
SplineSet
500 275 m 0
 445 275 400 230 400 175 c 0
 400 120 445 75 500 75 c 0
 555 75 600 120 600 175 c 0
 600 230 555 275 500 275 c 0
500 375 m 0
 609 375 700 284 700 175 c 0
 700 66 609 -25 500 -25 c 0
 391 -25 300 66 300 175 c 0
 300 284 391 375 500 375 c 0
450 450 m 1
 450 825 l 1
 550 825 l 1
 550 450 l 1
 450 450 l 1
EndSplineSet
MultipleSubs2: "CCMP cartouches" t.o cart.body
Ligature2: "LIGA basics" o
EndChar

StartChar: t.olin
Encoding: 170 989509 71
GlifName: t.olin
Width: 1000
GlyphClass: 1
Flags: W
HStem: 312 100<336.758 445.594 550.999 659.899> 762 100<336.758 445.594 550.999 659.899>
VStem: 223 100<196.577 298.899 646.577 748.899> 673 100<196.277 298.899 646.549 748.899>
LayerCount: 2
Fore
SplineSet
386 312 m 0
 348 312 323 288 323 250 c 0
 323 241 324 213 355 186 c 2
 498 62 l 1
 641 186 l 2
 660 202 673 223 673 250 c 0
 673 288 649 312 611 312 c 0
 549 312 523 262 498 212 c 1
 473 262 448 312 386 312 c 0
386 412 m 0
 430 412 473 388 498 350 c 1
 523 388 567 412 611 412 c 0
 702 412 773 341 773 250 c 0
 773 198 750 153 712 123 c 2
 498 -50 l 1
 284 123 l 2
 246 153 223 198 223 250 c 0
 223 341 295 412 386 412 c 0
386 762 m 0
 348 762 323 738 323 700 c 0
 323 691 324 663 355 636 c 2
 498 512 l 1
 641 636 l 2
 660 653 673 675 673 700 c 0
 673 738 649 762 611 762 c 0
 549 762 523 712 498 662 c 1
 473 712 448 762 386 762 c 0
386 862 m 0
 430 862 473 838 498 800 c 1
 523 838 567 862 611 862 c 0
 702 862 773 791 773 700 c 0
 773 648 750 603 712 573 c 2
 498 400 l 1
 284 573 l 2
 246 603 223 648 223 700 c 0
 223 791 295 862 386 862 c 0
EndSplineSet
MultipleSubs2: "CCMP cartouches" t.olin cart.body
LCarets2: 3 -73 -73 -73
Ligature2: "LIGA basics" o l i n
EndChar

StartChar: t.ona
Encoding: 171 989510 72
GlifName: t.ona
Width: 1000
GlyphClass: 1
Flags: W
HStem: 175 100<621.699 755.952> 525 100<619.64 755.952>
VStem: 462 100<330.361 468.156> 812 100<331.844 468.156>
LayerCount: 2
Fore
SplineSet
688 525 m 0
 619 525 562 469 562 400 c 0
 562 331 619 275 688 275 c 0
 757 275 812 331 812 400 c 0
 812 469 757 525 688 525 c 0
688 625 m 0
 811 625 912 523 912 400 c 0
 912 277 811 175 688 175 c 0
 465 175 252 267 100 431 c 1
 173 500 l 1
 257 408 364 341 483 305 c 1
 471 335 462 366 462 400 c 0
 462 523 565 625 688 625 c 0
EndSplineSet
LCarets2: 2 0 0
MultipleSubs2: "CCMP cartouches" t.ona cart.body
Ligature2: "LIGA basics" o n a
EndChar

StartChar: t.open
Encoding: 172 989511 73
GlifName: t.open
Width: 1000
GlyphClass: 1
Flags: W
HStem: 0 100<275 725> 250 100<275 725> 780 20G<175 275 725 825>
VStem: 175 100<100 250 350 800> 725 100<100 250 350 800>
LayerCount: 2
Fore
SplineSet
175 800 m 1
 275 800 l 1
 275 650 275 500 275 350 c 1
 725 350 l 1
 725 500 725 650 725 800 c 1
 825 800 l 1
 825 0 l 1
 175 0 l 1
 175 800 l 1
275 250 m 1
 275 200 275 150 275 100 c 1
 725 100 l 1
 725 150 725 200 725 250 c 1
 275 250 l 1
EndSplineSet
LCarets2: 3 -75 -75 -75
MultipleSubs2: "CCMP cartouches" t.open cart.body
Ligature2: "LIGA basics" o p e n
EndChar

StartChar: t.pakala
Encoding: 173 989512 74
GlifName: t.pakala
Width: 1000
GlyphClass: 1
Flags: W
HStem: 0 100<250 384 500 750> 350 100<472 528> 700 100<250 500 616 750>
VStem: 150 100<100 700> 750 100<100 700>
CounterMasks: 1 e0
LayerCount: 2
Fore
SplineSet
616 700 m 1
 472 450 l 1
 700 450 l 1
 500 100 l 1
 750 100 l 1
 750 700 l 1
 616 700 l 1
250 700 m 1
 250 100 l 1
 384 100 l 1
 528 350 l 1
 300 350 l 1
 500 700 l 1
 250 700 l 1
150 800 m 1
 850 800 l 1
 850 0 l 1
 150 0 l 1
 150 800 l 1
EndSplineSet
LCarets2: 5 -75 -75 -75 -75 -75
MultipleSubs2: "CCMP cartouches" t.pakala cart.body
Ligature2: "LIGA basics" p a k a l a
EndChar

StartChar: t.pali
Encoding: 174 989513 75
GlifName: t.pali
Width: 1000
GlyphClass: 1
Flags: W
HStem: 0 21G<260 375 725 825> 325 125<477.831 622.169> 725 100<477.332 622.668>
VStem: 312 100<514.276 660.475> 688 100<514.276 660.475> 725 100<0 233.571>
LayerCount: 2
Fore
SplineSet
550 725 m 0xf8
 473 725 412 665 412 588 c 0
 412 511 473 450 550 450 c 0
 627 450 688 511 688 588 c 0
 688 665 627 725 550 725 c 0xf8
550 825 m 0
 681 825 788 719 788 588 c 0xf8
 788 507 745 435 683 391 c 1
 767 344 825 255 825 150 c 2
 825 0 l 1
 725 0 l 1
 725 150 l 2xf4
 725 247 647 325 550 325 c 0
 453 325 375 247 375 150 c 2
 375 0 l 1
 275 0 l 1
 125 200 l 1
 205 259 l 1
 275 167 l 1
 275 166 l 1
 281 263 337 347 417 391 c 1
 355 435 312 507 312 588 c 0
 312 719 419 825 550 825 c 0
EndSplineSet
LCarets2: 3 -75 -75 -75
MultipleSubs2: "CCMP cartouches" t.pali cart.body
Ligature2: "LIGA basics" p a l i
EndChar

StartChar: t.palisa
Encoding: 175 989514 76
GlifName: t.palisa
Width: 1000
GlyphClass: 1
Flags: W
HStem: -25 100<448.124 551.876> 725 100<448.124 551.876>
VStem: 325 100<98.4173 701.583> 575 100<98.4173 701.583>
LayerCount: 2
Fore
SplineSet
500 725 m 0
 459 725 425 691 425 650 c 2
 425 150 l 2
 425 109 459 75 500 75 c 0
 541 75 575 109 575 150 c 2
 575 650 l 2
 575 691 541 725 500 725 c 0
500 825 m 0
 597 825 675 747 675 650 c 2
 675 150 l 2
 675 53 597 -25 500 -25 c 0
 403 -25 325 53 325 150 c 2
 325 650 l 2
 325 747 403 825 500 825 c 0
EndSplineSet
LCarets2: 5 -75 -75 -75 -75 -75
MultipleSubs2: "CCMP cartouches" t.palisa cart.body
Ligature2: "LIGA basics" p a l i s a
EndChar

StartChar: t.pan
Encoding: 176 989515 77
GlifName: t.pan
Width: 1000
GlyphClass: 1
Flags: W
LayerCount: 2
Fore
SplineSet
298 580 m 1
 500 338 l 1
 702 580 l 1
 775 512 l 1
 500 212 l 1
 225 512 l 1
 298 580 l 1
298 830 m 1
 500 588 l 1
 702 830 l 1
 775 762 l 1
 500 462 l 1
 225 762 l 1
 298 830 l 1
298 330 m 1
 500 88 l 1
 702 330 l 1
 775 262 l 1
 500 -38 l 1
 225 262 l 1
 298 330 l 1
EndSplineSet
LCarets2: 2 -75 -75
MultipleSubs2: "CCMP cartouches" t.pan cart.body
Ligature2: "LIGA basics" p a n
EndChar

StartChar: t.pana
Encoding: 177 989516 78
GlifName: t.pana
Width: 1000
GlyphClass: 1
Flags: W
HStem: 0 21G<260 375 725 825> 450 100<467.304 632.696> 559 21G<336.8 383.102 716.898 763.2>
VStem: 275 100<167 356.822> 500 100<625 825> 725 100<0 356.822>
CounterMasks: 1 1c
LayerCount: 2
Fore
SplineSet
550 550 m 0
 702 550 825 427 825 275 c 2
 825 0 l 1
 725 0 l 1
 725 275 l 2
 725 372 647 450 550 450 c 0
 453 450 375 372 375 275 c 2
 375 6 l 2
 375 4 375 2 375 0 c 1
 275 0 l 1
 125 200 l 1
 205 259 l 1
 275 167 l 1
 275 275 l 2
 275 427 398 550 550 550 c 0
762 783 m 1
 850 734 l 1
 752 559 l 1
 666 608 l 1
 762 783 l 1
338 783 m 1
 434 608 l 1
 348 559 l 1
 250 734 l 1
 338 783 l 1
500 825 m 1
 600 825 l 1
 600 625 l 1
 500 625 l 1
 500 825 l 1
EndSplineSet
LCarets2: 3 -75 -75 -75
MultipleSubs2: "CCMP cartouches" t.pana cart.body
Ligature2: "LIGA basics" p a n a
EndChar

StartChar: t.pi
Encoding: 178 989517 79
GlifName: t.pi
Width: 1000
GlyphClass: 1
Flags: W
HStem: 0 100<250 900> 780 20G<150 250>
VStem: 150 100<100 800>
LayerCount: 2
Fore
SplineSet
150 800 m 1
 250 800 l 1
 250 100 l 1
 900 100 l 1
 900 0 l 1
 150 0 l 1
 150 800 l 1
EndSplineSet
LCarets2: 1 -75
MultipleSubs2: "CCMP cartouches" t.pi cart.body
Ligature2: "LIGA basics" p i
EndChar

StartChar: t.pilin
Encoding: 179 989518 80
GlifName: t.pilin
Width: 1000
GlyphClass: 1
Flags: W
HStem: 700 100<239.525 373.435 626.565 760.475>
VStem: 75 100<488.291 634.668> 825 100<488.291 634.668>
LayerCount: 2
Fore
SplineSet
312 700 m 0
 235 700 175 639 175 562 c 0
 175 528 188 496 208 473 c 2
 500 130 l 1
 792 473 l 2
 812 496 825 528 825 562 c 0
 825 639 765 700 688 700 c 0
 611 700 550 600 500 525 c 1
 450 600 389 700 312 700 c 0
312 800 m 0
 385 800 462 750 500 675 c 1
 538 750 615 800 688 800 c 0
 819 800 925 693 925 562 c 0
 925 503 903 450 869 409 c 2
 500 -25 l 1
 131 409 l 2
 97 450 75 503 75 562 c 0
 75 693 181 800 312 800 c 0
EndSplineSet
LCarets2: 4 -75 -75 -75 -75
MultipleSubs2: "CCMP cartouches" t.pilin cart.body
Ligature2: "LIGA basics" p i l i n
EndChar

StartChar: t.pimeja
Encoding: 180 989519 81
GlifName: t.pimeja
Width: 1000
GlyphClass: 1
Flags: W
HStem: 0 100<238 255 395 605 745 762>
LayerCount: 2
Fore
SplineSet
500 850 m 1
 925 0 l 1
 75 0 l 1
 500 850 l 1
359 345 m 1
 238 100 l 1
 255 100 l 1
 430 275 l 1
 359 345 l 1
395 100 m 1
 605 100 l 1
 500 205 l 1
 395 100 l 1
745 100 m 1
 762 100 l 1
 641 345 l 1
 570 275 l 1
 745 100 l 1
594 439 m 1
 500 627 l 1
 406 439 l 1
 500 345 l 1
 594 439 l 1
EndSplineSet
LCarets2: 5 -75 -75 -75 -75 -75
MultipleSubs2: "CCMP cartouches" t.pimeja cart.body
Ligature2: "LIGA basics" p i m e j a
EndChar

StartChar: t.pini
Encoding: 181 989520 82
GlifName: t.pini
Width: 1000
GlyphClass: 1
Flags: W
HStem: 0 100<250 450 550 750> 700 100<250 450 550 750>
VStem: 450 100<100 700>
LayerCount: 2
Fore
SplineSet
750 700 m 1
 550 700 l 1
 550 100 l 1
 750 100 l 1
 750 0 l 1
 250 0 l 1
 250 100 l 1
 450 100 l 1
 450 700 l 1
 250 700 l 1
 250 800 l 1
 750 800 l 1
 750 700 l 1
EndSplineSet
LCarets2: 3 0 0 0
MultipleSubs2: "CCMP cartouches" t.pini cart.body
Ligature2: "LIGA basics" p i n i
EndChar

StartChar: t.pipi
Encoding: 182 989521 83
GlifName: t.pipi
Width: 1000
GlyphClass: 1
Flags: W
HStem: 100 100<250 450 550 750> 300 100<250 450 550 750> 500 100<250 450 550 750> 725 125<291.644 383.809 616.191 708.356>
VStem: 275 125<741.644 833.809> 450 100<-25 100 200 300 400 500 600 725> 600 125<741.644 833.809>
CounterMasks: 1 0e
LayerCount: 2
Fore
SplineSet
250 100 m 1
 250 200 l 1
 450 200 l 1
 450 300 l 1
 250 300 l 1
 250 400 l 1
 450 400 l 1
 450 500 l 1
 250 500 l 1
 250 600 l 1
 450 600 l 1
 450 725 l 1
 550 725 l 1
 550 600 l 1
 750 600 l 1
 750 500 l 1
 550 500 l 1
 550 400 l 1
 750 400 l 1
 750 300 l 1
 550 300 l 1
 550 200 l 1
 750 200 l 1
 750 100 l 1
 550 100 l 1
 550 -25 l 1
 450 -25 l 1
 450 100 l 1
 250 100 l 1
600 788 m 0
 600 822 628 850 662 850 c 0
 696 850 725 822 725 788 c 0
 725 754 696 725 662 725 c 0
 628 725 600 754 600 788 c 0
275 788 m 0
 275 822 304 850 338 850 c 0
 372 850 400 822 400 788 c 0
 400 754 372 725 338 725 c 0
 304 725 275 754 275 788 c 0
EndSplineSet
LCarets2: 3 -75 -75 -75
MultipleSubs2: "CCMP cartouches" t.pipi cart.body
Ligature2: "LIGA basics" p i p i
EndChar

StartChar: t.poka
Encoding: 183 989522 84
GlifName: t.poka
Width: 1000
GlyphClass: 1
Flags: W
HStem: 200 100<175 625> 325 150<798.417 901.583>
VStem: 75 100<300 600> 625 100<300 600> 775 150<348.417 451.583>
LayerCount: 2
Fore
SplineSet
775 400 m 0
 775 441 809 475 850 475 c 0
 891 475 925 441 925 400 c 0
 925 359 891 325 850 325 c 0
 809 325 775 359 775 400 c 0
75 600 m 1
 175 600 l 1
 175 300 l 1
 625 300 l 1
 625 600 l 1
 725 600 l 1
 725 200 l 1
 75 200 l 1
 75 600 l 1
EndSplineSet
LCarets2: 3 -75 -75 -75
MultipleSubs2: "CCMP cartouches" t.poka cart.body
Ligature2: "LIGA basics" p o k a
EndChar

StartChar: t.poki
Encoding: 184 989523 85
GlifName: t.poki
Width: 1000
GlyphClass: 1
Flags: W
HStem: 0 100<275 725> 780 20G<175 275 725 825>
VStem: 175 100<100 800> 725 100<100 800>
LayerCount: 2
Fore
SplineSet
175 800 m 1
 275 800 l 1
 275 100 l 1
 725 100 l 1
 725 800 l 1
 825 800 l 1
 825 0 l 1
 175 0 l 1
 175 800 l 1
EndSplineSet
LCarets2: 3 -75 -75 -75
MultipleSubs2: "CCMP cartouches" t.poki cart.body
Ligature2: "LIGA basics" p o k i
EndChar

StartChar: t.pona
Encoding: 185 989524 86
GlifName: t.pona
Width: 1000
GlyphClass: 1
Flags: W
HStem: 150 100<390.343 609.657> 530 20G<100 200 800 900>
VStem: 100 100<440.818 550> 800 100<440.818 550>
LayerCount: 2
Fore
SplineSet
500 150 m 0
 280 150 100 330 100 550 c 1
 200 550 l 1
 200 384 334 250 500 250 c 0
 666 250 800 384 800 550 c 1
 900 550 l 1
 900 330 720 150 500 150 c 0
EndSplineSet
LCarets2: 3 -75 -75 -75
MultipleSubs2: "CCMP cartouches" t.pona cart.body
Ligature2: "LIGA basics" p o n a
EndChar

StartChar: t.pu
Encoding: 186 989525 87
GlifName: t.pu
Width: 1000
GlyphClass: 1
Flags: W
HStem: 0 100<275 725> 112 76<430.972 569.028> 438 74<430.972 569.028> 550 125<462 538> 700 100<275 725>
VStem: 175 100<100 700> 300 75<243.13 381.186> 462 76<550 675> 625 75<243.13 381.186> 725 100<100 700>
LayerCount: 2
Fore
SplineSet
500 438 m 0
 431 438 375 381 375 312 c 0
 375 243 431 188 500 188 c 0
 569 188 625 243 625 312 c 0
 625 381 569 438 500 438 c 0
500 512 m 0
 609 512 700 421 700 312 c 0
 700 203 609 112 500 112 c 0
 391 112 300 203 300 312 c 0
 300 421 391 512 500 512 c 0
275 700 m 1
 275 100 l 1
 725 100 l 1
 725 700 l 1
 275 700 l 1
175 800 m 1
 825 800 l 1
 825 0 l 1
 175 0 l 1
 175 800 l 1
416 538 m 1
 352 498 l 1
 288 606 l 1
 352 644 l 1
 416 538 l 1
584 538 m 1
 648 644 l 1
 712 606 l 1
 648 498 l 1
 584 538 l 1
462 550 m 1
 462 675 l 1
 538 675 l 1
 538 550 l 1
 462 550 l 1
EndSplineSet
LCarets2: 1 -75
MultipleSubs2: "CCMP cartouches" t.pu cart.body
Ligature2: "LIGA basics" p u
EndChar

StartChar: t.sama
Encoding: 187 989526 88
GlifName: t.sama
Width: 1000
GlyphClass: 1
Flags: W
HStem: 200 100<150 850> 500 100<150 850>
LayerCount: 2
Fore
SplineSet
150 300 m 1
 850 300 l 1
 850 200 l 1
 150 200 l 1
 150 300 l 1
150 600 m 1
 850 600 l 1
 850 500 l 1
 150 500 l 1
 150 600 l 1
EndSplineSet
LCarets2: 3 -75 -75 -75
MultipleSubs2: "CCMP cartouches" t.sama cart.body
Ligature2: "LIGA basics" s a m a
EndChar

StartChar: t.seli
Encoding: 188 989527 89
GlifName: t.seli
Width: 1000
GlyphClass: 1
Flags: W
HStem: 50 150<448.417 551.583>
VStem: 425 150<73.4173 176.583> 450 100<275 750>
LayerCount: 2
Fore
SplineSet
402 262 m 1x80
 311 219 l 1
 100 645 l 1
 191 689 l 1
 402 262 l 1x80
598 262 m 1
 809 689 l 1
 900 645 l 1
 689 219 l 1
 598 262 l 1
425 125 m 0xc0
 425 166 459 200 500 200 c 0
 541 200 575 166 575 125 c 0
 575 84 541 50 500 50 c 0
 459 50 425 84 425 125 c 0xc0
450 275 m 1xa0
 450 750 l 1
 550 750 l 1
 550 275 l 1
 450 275 l 1xa0
EndSplineSet
LCarets2: 3 -75 -75 -75
MultipleSubs2: "CCMP cartouches" t.seli cart.body
Ligature2: "LIGA basics" s e l i
EndChar

StartChar: t.selo
Encoding: 189 989528 90
GlifName: t.selo
Width: 1000
GlyphClass: 1
Flags: W
HStem: 225 350<100 200 275 375 625 725 800 900> 475 100<200 275 375 625 725 800>
VStem: 100 100<225 475> 275 100<225 475> 625 100<225 475> 800 100<225 475>
LayerCount: 2
Fore
SplineSet
100 575 m 1xbc
 900 575 l 1
 900 225 l 1
 800 225 l 1xbc
 800 475 l 1
 725 475 l 1x7c
 725 225 l 1
 625 225 l 1xbc
 625 475 l 1
 375 475 l 1x7c
 375 225 l 1
 275 225 l 1xbc
 275 475 l 1
 200 475 l 1x7c
 200 225 l 1
 100 225 l 1
 100 575 l 1xbc
EndSplineSet
LCarets2: 3 -75 -75 -75
MultipleSubs2: "CCMP cartouches" t.selo cart.body
Ligature2: "LIGA basics" s e l o
EndChar

StartChar: t.seme
Encoding: 190 989529 91
GlifName: t.seme
Width: 1000
GlyphClass: 1
Flags: W
HStem: -12 150<448.417 551.583> 325 100<550.525 632.609> 700 100<366.283 632.609>
VStem: 202 98<583 633.001> 425 150<10.8938 114.059> 450 100<238 323.486> 700 100<489.525 634.668>
LayerCount: 2
Fore
SplineSet
500 138 m 0xfa
 541 138 575 103 575 62 c 0
 575 21 541 -12 500 -12 c 0
 459 -12 425 21 425 62 c 0
 425 103 459 138 500 138 c 0xfa
438 800 m 2
 562 800 l 2
 693 800 800 693 800 562 c 0
 800 431 693 325 562 325 c 0
 556 325 550 318 550 312 c 2
 550 238 l 1
 450 238 l 1
 450 312 l 2xf6
 450 374 500 425 562 425 c 0
 639 425 700 485 700 562 c 2
 700 639 639 700 562 700 c 2
 438 700 l 2
 365 700 305 642 300 570 c 1
 202 584 l 1
 213 704 315 800 438 800 c 2
EndSplineSet
LCarets2: 3 0 0 0
MultipleSubs2: "CCMP cartouches" t.seme cart.body
Ligature2: "LIGA basics" s e m e
EndChar

StartChar: t.sewi
Encoding: 191 989530 92
GlifName: t.sewi
Width: 1000
GlyphClass: 1
Flags: W
HStem: -25 100<75 144.255 309.056 391.392 508.608 591.341> 0 21G<800 900> 780 20G<800 900>
VStem: 200 100<130.127 350> 400 100<83.4375 500> 600 100<83.88 650> 800 100<0 800>
LayerCount: 2
Fore
SplineSet
800 800 m 1x7e
 900 800 l 1
 900 0 l 1
 800 0 l 1
 800 800 l 1x7e
600 650 m 1
 700 650 l 1
 700 125 l 2
 700 42 633 -25 550 -25 c 0
 512 -25 477 -11 450 12 c 1
 423 -11 388 -25 350 -25 c 0
 300 -25 257 -2 230 36 c 1
 189 -2 134 -25 75 -25 c 1
 75 75 l 1
 144 75 200 131 200 200 c 0
 200 205 198 207 198 212 c 1
 200 212 l 1
 200 350 l 1
 300 350 l 1
 300 125 l 2
 300 97 322 75 350 75 c 0
 378 75 400 97 400 125 c 2
 400 500 l 1
 500 500 l 1
 500 125 l 2
 500 97 522 75 550 75 c 0xbe
 578 75 600 97 600 125 c 2
 600 650 l 1
EndSplineSet
Ligature2: "LIGA alternates" t.sewi zero one
LCarets2: 3 -75 -75 -75
MultipleSubs2: "CCMP cartouches" t.sewi cart.body
Ligature2: "LIGA basics" s e w i
EndChar

StartChar: t.sijelo
Encoding: 192 989531 93
GlifName: t.sijelo
Width: 1000
GlyphClass: 1
Flags: W
HStem: 600 100<225 450 550 775>
VStem: 125 100<100 600> 450 100<100 600> 775 100<100 600>
CounterMasks: 1 70
LayerCount: 2
Fore
SplineSet
125 700 m 1
 875 700 l 1
 875 100 l 1
 775 100 l 1
 775 600 l 1
 550 600 l 1
 550 100 l 1
 450 100 l 1
 450 600 l 1
 225 600 l 1
 225 100 l 1
 125 100 l 1
 125 700 l 1
EndSplineSet
LCarets2: 5 -75 -75 -75 -75 -75
MultipleSubs2: "CCMP cartouches" t.sijelo cart.body
Ligature2: "LIGA basics" s i j e l o
EndChar

StartChar: t.sike
Encoding: 193 989532 94
GlifName: t.sike
Width: 1000
GlyphClass: 1
Flags: W
HStem: -25 100<410.978 639.022> 175 100<456.844 593.156> 525 100<456.844 593.156> 725 100<410.978 639.022>
VStem: 100 100<285.978 514.022> 300 100<331.844 468.156> 650 100<331.844 468.156> 850 100<285.978 514.022>
LayerCount: 2
Fore
SplineSet
525 725 m 0
 345 725 200 580 200 400 c 0
 200 220 345 75 525 75 c 0
 705 75 850 220 850 400 c 0
 850 580 705 725 525 725 c 0
525 825 m 0
 759 825 950 634 950 400 c 0
 950 166 759 -25 525 -25 c 0
 291 -25 100 166 100 400 c 0
 100 634 291 825 525 825 c 0
525 525 m 0
 456 525 400 469 400 400 c 0
 400 331 456 275 525 275 c 0
 594 275 650 331 650 400 c 0
 650 469 594 525 525 525 c 0
525 625 m 0
 648 625 750 523 750 400 c 0
 750 277 648 175 525 175 c 0
 402 175 300 277 300 400 c 0
 300 523 402 625 525 625 c 0
EndSplineSet
LCarets2: 3 -75 -75 -75
MultipleSubs2: "CCMP cartouches" t.sike cart.body
Ligature2: "LIGA basics" s i k e
EndChar

StartChar: t.sin
Encoding: 194 989533 95
GlifName: t.sin
Width: 1000
GlyphClass: 1
Flags: W
HStem: 250 100<100 400 600 900>
VStem: 450 100<400 700>
LayerCount: 2
Fore
SplineSet
450 700 m 1
 550 700 l 1
 550 400 l 1
 450 400 l 1
 450 700 l 1
600 250 m 1
 600 350 l 1
 900 350 l 1
 900 250 l 1
 600 250 l 1
100 250 m 1
 100 350 l 1
 400 350 l 1
 400 250 l 1
 100 250 l 1
EndSplineSet
LCarets2: 2 -75 -75
MultipleSubs2: "CCMP cartouches" t.sin cart.body
Ligature2: "LIGA basics" s i n
EndChar

StartChar: t.sina
Encoding: 195 989534 96
GlifName: t.sina
Width: 1000
GlyphClass: 1
Flags: W
HStem: 0 100<431.844 568.156> 350 100<430.361 568.156>
VStem: 275 100<156.844 291.131> 625 100<156.844 293.156>
LayerCount: 2
Fore
SplineSet
625 225 m 0
 625 294 569 350 500 350 c 0
 431 350 375 294 375 225 c 0
 375 156 431 100 500 100 c 0
 569 100 625 156 625 225 c 0
725 225 m 0
 725 102 623 0 500 0 c 0
 377 0 275 102 275 225 c 0
 275 448 367 660 531 812 c 1
 600 739 l 1
 508 655 441 549 405 430 c 1
 435 442 466 450 500 450 c 0
 623 450 725 348 725 225 c 0
EndSplineSet
LCarets2: 3 0 0 0
MultipleSubs2: "CCMP cartouches" t.sina cart.body
Ligature2: "LIGA basics" s i n a
EndChar

StartChar: t.sinpin
Encoding: 196 989535 97
GlifName: t.sinpin
Width: 1000
GlyphClass: 1
Flags: W
HStem: 0 100<225 500> 325 150<673.417 776.583> 700 100<225 500>
VStem: 500 100<100 700> 650 150<348.417 451.583>
CounterMasks: 1 e0
LayerCount: 2
Fore
SplineSet
800 400 m 0
 800 359 766 325 725 325 c 0
 684 325 650 359 650 400 c 0
 650 441 684 475 725 475 c 0
 766 475 800 441 800 400 c 0
225 800 m 1
 600 800 l 1
 600 0 l 1
 225 0 l 1
 225 100 l 1
 500 100 l 1
 500 700 l 1
 225 700 l 1
 225 800 l 1
EndSplineSet
LCarets2: 5 -75 -75 -75 -75 -75
MultipleSubs2: "CCMP cartouches" t.sinpin cart.body
Ligature2: "LIGA basics" s i n p i n
EndChar

StartChar: t.sitelen
Encoding: 197 989536 98
GlifName: t.sitelen
Width: 1000
GlyphClass: 1
Flags: W
HStem: 0 100<250 750> 338 124<303.2 396.8 453.2 546.8 603.2 696.8> 700 100<250 750>
VStem: 150 100<100 700> 288 124<353.2 446.8> 438 124<353.2 446.8> 588 124<353.2 446.8> 750 100<100 700>
CounterMasks: 1 e0
LayerCount: 2
Fore
SplineSet
588 400 m 0
 588 434 616 462 650 462 c 0
 684 462 712 434 712 400 c 0
 712 366 684 338 650 338 c 0
 616 338 588 366 588 400 c 0
438 400 m 0
 438 434 466 462 500 462 c 0
 534 462 562 434 562 400 c 0
 562 366 534 338 500 338 c 0
 466 338 438 366 438 400 c 0
288 400 m 0
 288 434 316 462 350 462 c 0
 384 462 412 434 412 400 c 0
 412 366 384 338 350 338 c 0
 316 338 288 366 288 400 c 0
250 700 m 1
 250 100 l 1
 750 100 l 1
 750 700 l 1
 250 700 l 1
150 800 m 1
 850 800 l 1
 850 0 l 1
 150 0 l 1
 150 800 l 1
EndSplineSet
LCarets2: 6 -75 -75 -75 -75 -75 -75
MultipleSubs2: "CCMP cartouches" t.sitelen cart.body
Ligature2: "LIGA basics" s i t e l e n
EndChar

StartChar: t.sona
Encoding: 198 989537 99
GlifName: t.sona
Width: 1000
GlyphClass: 1
Flags: W
HStem: 0 100<350 650> 425 100<350 650> 559 21G<286.8 333.102 666.898 713.2>
VStem: 250 100<100 425> 450 100<625 825> 650 100<100 425>
CounterMasks: 1 1c
LayerCount: 2
Fore
SplineSet
384 608 m 1
 298 559 l 1
 200 734 l 1
 288 783 l 1
 384 608 l 1
616 608 m 1
 712 783 l 1
 800 734 l 1
 702 559 l 1
 616 608 l 1
450 625 m 1
 450 825 l 1
 550 825 l 1
 550 625 l 1
 450 625 l 1
350 425 m 1
 350 100 l 1
 650 100 l 1
 650 425 l 1
 350 425 l 1
250 525 m 1
 750 525 l 1
 750 0 l 1
 250 0 l 1
 250 525 l 1
EndSplineSet
LCarets2: 3 -75 -75 -75
MultipleSubs2: "CCMP cartouches" t.sona cart.body
Ligature2: "LIGA basics" s o n a
EndChar

StartChar: t.soweli
Encoding: 199 989538 100
GlifName: t.soweli
Width: 1000
GlyphClass: 1
Flags: W
HStem: 0 300<75 175 250 350 425 525 600 697.734> 400 150<423.417 526.583> 450 150<623.417 726.583> 700 100<75 711.073>
VStem: 75 100<0 300> 250 100<0 300> 400 150<423.417 526.583> 425 100<0 300> 600 150<473.417 576.583> 600 100<0 214.188> 825 100<412.734 587.7>
LayerCount: 2
Fore
SplineSet
600 525 m 0xbca0
 600 566 634 600 675 600 c 0
 716 600 750 566 750 525 c 0
 750 484 716 450 675 450 c 0
 634 450 600 484 600 525 c 0xbca0
400 475 m 0xde20
 400 516 434 550 475 550 c 0
 516 550 550 516 550 475 c 0
 550 434 516 400 475 400 c 0
 434 400 400 434 400 475 c 0xde20
425 300 m 1x9d20
 525 300 l 1
 525 0 l 1
 425 0 l 1
 425 300 l 1x9d20
250 300 m 1
 350 300 l 1
 350 0 l 1
 250 0 l 1
 250 300 l 1
75 300 m 1
 175 300 l 1
 175 0 l 1
 75 0 l 1
 75 300 l 1
75 800 m 1
 625 800 l 2
 791 800 925 666 925 500 c 0
 925 359 830 242 700 209 c 1
 700 0 l 1
 600 0 l 1
 600 300 l 1x9c60
 625 300 l 2
 734 300 825 391 825 500 c 0
 825 609 734 700 625 700 c 2
 75 700 l 1
 75 800 l 1
EndSplineSet
LCarets2: 5 -75 -75 -75 -75 -75
MultipleSubs2: "CCMP cartouches" t.soweli cart.body
Ligature2: "LIGA basics" s o w e l i
EndChar

StartChar: t.suli
Encoding: 200 989539 101
GlifName: t.suli
Width: 1000
GlyphClass: 1
Flags: W
HStem: 0 21G<426.5 573.5>
VStem: 456 88<0 91.3398>
LayerCount: 2
Fore
SplineSet
191 820 m 1
 325 640 431 439 500 225 c 1
 569 439 675 640 809 820 c 1
 898 773 l 1
 723 546 603 280 544 0 c 1
 456 0 l 1
 397 280 277 546 102 773 c 1
 191 820 l 1
EndSplineSet
LCarets2: 3 0 0 0
MultipleSubs2: "CCMP cartouches" t.suli cart.body
Ligature2: "LIGA basics" s u l i
EndChar

StartChar: t.suno
Encoding: 201 989540 102
GlifName: t.suno
Width: 1000
GlyphClass: 1
Flags: W
HStem: 0 250<451.83 548.17> 350 100<100 260.409 740.591 900> 550 250<451.83 548.17>
VStem: 100 250<351.83 448.17> 450 100<0 160.409 640.591 800> 650 250<351.83 448.17>
CounterMasks: 1 fc
LayerCount: 2
Fore
SplineSet
500 550 m 0
 417 550 350 483 350 400 c 0
 350 317 417 250 500 250 c 0
 583 250 650 317 650 400 c 0
 650 483 583 550 500 550 c 0
450 800 m 1
 550 800 l 1
 550 645 l 1
 648 625 725 548 745 450 c 1
 900 450 l 1
 900 350 l 1
 744 350 l 1
 724 253 647 176 550 156 c 1
 550 0 l 1
 450 0 l 1
 450 156 l 1
 353 176 276 253 256 350 c 1
 100 350 l 1
 100 450 l 1
 256 450 l 1
 276 547 353 624 450 644 c 1
 450 800 l 1
EndSplineSet
LCarets2: 3 -94 -94 -94
MultipleSubs2: "CCMP cartouches" t.suno cart.body
Ligature2: "LIGA basics" s u n o
EndChar

StartChar: t.supa
Encoding: 202 989541 103
GlifName: t.supa
Width: 1000
GlyphClass: 1
Flags: W
HStem: 450 100<75 225 325 675 775 925>
VStem: 225 100<200 450> 675 100<200 450>
LayerCount: 2
Fore
SplineSet
75 550 m 1
 925 550 l 1
 925 450 l 1
 775 450 l 1
 775 200 l 1
 675 200 l 1
 675 450 l 1
 325 450 l 1
 325 200 l 1
 225 200 l 1
 225 450 l 1
 75 450 l 1
 75 550 l 1
EndSplineSet
LCarets2: 3 -75 -75 -75
MultipleSubs2: "CCMP cartouches" t.supa cart.body
Ligature2: "LIGA basics" s u p a
EndChar

StartChar: t.suwi
Encoding: 203 989542 104
GlifName: t.suwi
Width: 1000
GlyphClass: 1
Flags: W
HStem: 88 150<448.417 551.583>
VStem: 425 150<110.894 214.059>
LayerCount: 2
Fore
SplineSet
200 650 m 1
 300 650 l 1
 450 350 l 1
 338 350 l 1
 250 527 l 1
 162 350 l 1
 50 350 l 1
 200 650 l 1
700 650 m 1
 800 650 l 1
 950 350 l 1
 838 350 l 1
 750 527 l 1
 662 350 l 1
 550 350 l 1
 700 650 l 1
425 162 m 0
 425 203 459 238 500 238 c 0
 541 238 575 203 575 162 c 0
 575 121 541 88 500 88 c 0
 459 88 425 121 425 162 c 0
EndSplineSet
LCarets2: 3 -75 -75 -75
MultipleSubs2: "CCMP cartouches" t.suwi cart.body
Ligature2: "LIGA basics" s u w i
EndChar

StartChar: t.tan
Encoding: 204 989543 105
GlifName: t.tan
Width: 1000
GlyphClass: 1
Flags: W
HStem: 600 100<478.327 671.673>
VStem: 225 100<300 446.064> 825 100<249.182 446.673>
LayerCount: 2
Fore
SplineSet
575 700 m 0
 769 700 925 544 925 350 c 0
 925 289 910 230 880 177 c 1
 792 227 l 1
 814 265 825 306 825 350 c 0
 825 488 713 600 575 600 c 0
 437 600 325 488 325 350 c 2
 325 300 l 1
 450 450 l 1
 525 375 l 1
 275 125 l 1
 25 375 l 1
 100 450 l 1
 225 300 l 1
 225 350 l 2
 225 544 381 700 575 700 c 0
EndSplineSet
LCarets2: 2 -75 -75
MultipleSubs2: "CCMP cartouches" t.tan cart.body
Ligature2: "LIGA basics" t a n
EndChar

StartChar: t.taso
Encoding: 205 989544 106
GlifName: t.taso
Width: 1000
GlyphClass: 1
Flags: W
HStem: 0 21G<550 650> 350 100<300 550> 780 20G<550 650>
VStem: 550 100<0 350 450 800>
LayerCount: 2
Fore
SplineSet
550 800 m 1
 650 800 l 1
 650 0 l 1
 550 0 l 1
 550 350 l 1
 300 350 l 1
 300 450 l 1
 550 450 l 1
 550 800 l 1
EndSplineSet
LCarets2: 3 -75 -75 -75
MultipleSubs2: "CCMP cartouches" t.taso cart.body
Ligature2: "LIGA basics" t a s o
EndChar

StartChar: t.tawa
Encoding: 206 989545 107
GlifName: t.tawa
Width: 1000
GlyphClass: 1
Flags: W
HStem: -12 21G<323.75 382.742 619.39 676.25> 780 20G<391.086 505.618>
LayerCount: 2
Fore
SplineSet
400 800 m 1
 500 800 l 1
 691 120 l 1
 877 194 l 1
 912 100 l 1
 625 -12 l 1
 441 644 l 1
 222 155 l 1
 411 81 l 1
 375 -12 l 1
 88 100 l 1
 400 800 l 1
EndSplineSet
LCarets2: 3 0 0 0
MultipleSubs2: "CCMP cartouches" t.tawa cart.body
Ligature2: "LIGA basics" t a w a
EndChar

StartChar: t.telo
Encoding: 207 989546 108
GlifName: t.telo
Width: 1000
GlyphClass: 1
Flags: W
HStem: 72 100<248.917 403.216> 278 100<596.784 751.083> 422 100<248.917 403.216> 628 100<596.784 751.083>
VStem: 75 100<247.684 322 597.684 672> 825 100<128 202.316 478 552.316>
LayerCount: 2
Fore
SplineSet
825 128 m 1
 825 211 758 278 675 278 c 0
 620 278 571 250 544 202 c 0
 500 122 416 72 325 72 c 0
 187 72 75 184 75 322 c 1
 175 322 l 1
 175 239 242 172 325 172 c 0
 380 172 429 200 456 248 c 0
 500 328 584 378 675 378 c 0
 813 378 925 266 925 128 c 1
 825 128 l 1
175 672 m 1
 175 589 242 522 325 522 c 0
 380 522 429 550 456 598 c 0
 500 678 584 728 675 728 c 0
 813 728 925 616 925 478 c 1
 825 478 l 1
 825 561 758 628 675 628 c 0
 620 628 571 600 544 552 c 0
 500 472 416 422 325 422 c 0
 187 422 75 534 75 672 c 1
 175 672 l 1
EndSplineSet
LCarets2: 3 -75 -75 -75
MultipleSubs2: "CCMP cartouches" t.telo cart.body
Ligature2: "LIGA basics" t e l o
EndChar

StartChar: t.tenpo
Encoding: 208 989547 109
GlifName: t.tenpo
Width: 1000
GlyphClass: 1
Flags: W
HStem: -25 100<385.978 614.022> 350 100<550 700> 725 100<385.978 614.022>
VStem: 75 100<285.978 514.022> 450 100<450 675> 825 100<285.978 514.022>
CounterMasks: 1 fc
LayerCount: 2
Fore
SplineSet
500 725 m 0
 320 725 175 580 175 400 c 0
 175 220 320 75 500 75 c 0
 680 75 825 220 825 400 c 0
 825 580 680 725 500 725 c 0
500 825 m 0
 734 825 925 634 925 400 c 0
 925 166 734 -25 500 -25 c 0
 266 -25 75 166 75 400 c 0
 75 634 266 825 500 825 c 0
550 450 m 1
 700 450 l 1
 700 350 l 1
 450 350 l 1
 450 450 l 1
 450 675 l 1
 550 675 l 1
 550 450 l 1
EndSplineSet
LCarets2: 4 -75 -75 -75 -75
MultipleSubs2: "CCMP cartouches" t.tenpo cart.body
Ligature2: "LIGA basics" t e n p o
EndChar

StartChar: t.toki
Encoding: 209 989548 110
GlifName: t.toki
Width: 1000
GlyphClass: 1
Flags: W
HStem: -25 100<412.3 587.7> 475 100<412.3 587.7> 559 21G<286.8 333.102 666.898 713.2>
VStem: 200 100<187.3 362.7> 450 100<625 825> 700 100<187.3 362.7>
CounterMasks: 1 1c
LayerCount: 2
Fore
SplineSet
500 475 m 0xdc
 391 475 300 384 300 275 c 0
 300 166 391 75 500 75 c 0
 609 75 700 166 700 275 c 0
 700 384 609 475 500 475 c 0xdc
500 575 m 0
 666 575 800 441 800 275 c 0
 800 109 666 -25 500 -25 c 0
 334 -25 200 109 200 275 c 0
 200 441 334 575 500 575 c 0
384 608 m 1
 298 559 l 1xbc
 200 734 l 1
 288 783 l 1
 384 608 l 1
616 608 m 1
 712 783 l 1
 800 734 l 1
 702 559 l 1
 616 608 l 1
450 625 m 1
 450 825 l 1
 550 825 l 1
 550 625 l 1
 450 625 l 1
EndSplineSet
LCarets2: 3 -75 -75 -75
MultipleSubs2: "CCMP cartouches" t.toki cart.body
Ligature2: "LIGA basics" t o k i
EndChar

StartChar: t.tomo
Encoding: 210 989549 111
GlifName: t.tomo
Width: 1000
GlyphClass: 1
Flags: W
HStem: 0 100<200 800> 780 20G<477.143 522.857>
VStem: 100 100<100 405> 800 100<100 405>
LayerCount: 2
Fore
SplineSet
500 667 m 1
 200 405 l 1
 200 100 l 1
 800 100 l 1
 800 405 l 1
 500 667 l 1
500 800 m 1
 900 450 l 1
 900 0 l 1
 100 0 l 1
 100 450 l 1
 500 800 l 1
EndSplineSet
LCarets2: 3 -75 -75 -75
MultipleSubs2: "CCMP cartouches" t.tomo cart.body
Ligature2: "LIGA basics" t o m o
EndChar

StartChar: t.tu
Encoding: 211 989550 112
GlifName: t.tu
Width: 1000
GlyphClass: 1
Flags: W
HStem: 0 21G<300 400 600 700> 780 20G<300 400 600 700>
VStem: 300 100<0 800> 600 100<0 800>
LayerCount: 2
Fore
SplineSet
600 0 m 1
 600 800 l 1
 700 800 l 1
 700 0 l 1
 600 0 l 1
300 0 m 1
 300 800 l 1
 400 800 l 1
 400 0 l 1
 300 0 l 1
EndSplineSet
LCarets2: 1 -75
MultipleSubs2: "CCMP cartouches" t.tu cart.body
Ligature2: "LIGA basics" t u
EndChar

StartChar: t.unpa
Encoding: 212 989551 113
GlifName: t.unpa
Width: 1000
GlyphClass: 1
Flags: W
HStem: 0 100<431.844 568.156> 300 100<375 625> 700 100<248.917 399.079 600.921 751.083>
VStem: 75 100<473.087 626.083> 275 100<158.561 300 409 509.492> 625 100<158.561 300 409 509.492> 825 100<473.087 626.083>
LayerCount: 2
Fore
SplineSet
375 300 m 1
 375 225 l 2
 375 156 431 100 500 100 c 0
 569 100 625 156 625 225 c 2
 625 300 l 1
 375 300 l 1
500 644 m 1
 423 589 375 500 375 400 c 1
 625 400 l 1
 625 500 577 589 500 644 c 1
675 700 m 0
 648 700 623 697 600 691 c 1
 675 621 723 520 725 409 c 1
 783 429 825 484 825 550 c 0
 825 633 758 700 675 700 c 0
325 700 m 0
 242 700 175 633 175 550 c 0
 175 484 217 429 275 409 c 1
 277 520 325 621 400 691 c 1
 377 697 352 700 325 700 c 0
325 800 m 0
 387 800 447 786 500 759 c 1
 553 786 613 800 675 800 c 0
 813 800 925 688 925 550 c 0
 925 430 839 328 725 305 c 1
 725 225 l 2
 725 102 623 0 500 0 c 0
 377 0 275 102 275 225 c 2
 275 225 275 261 275 284 c 0
 275 296 275 305 275 305 c 1
 161 328 75 430 75 550 c 0
 75 688 187 800 325 800 c 0
EndSplineSet
LCarets2: 3 -75 -75 -75
MultipleSubs2: "CCMP cartouches" t.unpa cart.body
Ligature2: "LIGA basics" u n p a
EndChar

StartChar: t.uta
Encoding: 213 989552 114
GlifName: t.uta
Width: 1000
GlyphClass: 1
Flags: W
HStem: 0 150<448.417 551.583> 200 100<389.702 610.298> 550 100<205 795>
VStem: 425 150<23.4173 126.583>
LayerCount: 2
Fore
SplineSet
205 550 m 1
 228 408 352 300 500 300 c 0
 648 300 772 408 795 550 c 1
 205 550 l 1
100 650 m 1
 900 650 l 1
 900 600 l 2
 900 380 720 200 500 200 c 0
 280 200 100 380 100 600 c 2
 100 650 l 1
425 75 m 0
 425 116 459 150 500 150 c 0
 541 150 575 116 575 75 c 0
 575 34 541 0 500 0 c 0
 459 0 425 34 425 75 c 0
EndSplineSet
LCarets2: 2 -75 -75
MultipleSubs2: "CCMP cartouches" t.uta cart.body
Ligature2: "LIGA basics" u t a
EndChar

StartChar: t.utala
Encoding: 214 989553 115
GlifName: t.utala
Width: 1000
GlyphClass: 1
Flags: W
HStem: 0 21G<286.667 314.652 685.348 713.333>
LayerCount: 2
Fore
SplineSet
769 809 m 1
 850 750 l 1
 562 356 l 1
 695 173 l 1
 817 355 l 1
 900 300 l 1
 700 0 l 1
 500 273 l 1
 300 0 l 1
 100 300 l 1
 183 355 l 1
 305 173 l 1
 438 356 l 1
 150 750 l 1
 231 809 l 1
 500 442 l 1
 769 809 l 1
EndSplineSet
LCarets2: 4 0 0 0 0
MultipleSubs2: "CCMP cartouches" t.utala cart.body
Ligature2: "LIGA basics" u t a l a
EndChar

StartChar: t.walo
Encoding: 215 989554 116
GlifName: t.walo
Width: 1000
GlyphClass: 1
Flags: W
HStem: 0 100<238 762>
LayerCount: 2
Fore
SplineSet
500 627 m 1
 238 100 l 1
 762 100 l 1
 500 627 l 1
314 478 m 1
 500 850 l 1
 686 478 l 1
 830 620 l 1
 900 550 l 1
 733 383 l 1
 925 0 l 1
 75 0 l 1
 267 383 l 1
 100 550 l 1
 170 620 l 1
 314 478 l 1
EndSplineSet
LCarets2: 3 -75 -75 -75
MultipleSubs2: "CCMP cartouches" t.walo cart.body
Ligature2: "LIGA basics" w a l o
EndChar

StartChar: t.wan
Encoding: 216 989555 117
GlifName: t.wan
Width: 1000
GlyphClass: 1
Flags: W
HStem: 0 21G<500 600> 780 20G<480 600>
VStem: 500 100<0 659>
LayerCount: 2
Fore
SplineSet
500 800 m 1
 600 800 l 1
 600 0 l 1
 500 0 l 1
 500 659 l 1
 320 480 l 1
 250 550 l 1
 500 800 l 1
EndSplineSet
LCarets2: 2 -75 -75
MultipleSubs2: "CCMP cartouches" t.wan cart.body
Ligature2: "LIGA basics" w a n
EndChar

StartChar: t.waso
Encoding: 217 989556 118
GlifName: t.waso
Width: 1000
GlyphClass: 1
Flags: W
HStem: 200 100<425 705> 362 150<173.417 276.583> 412 150<373.417 476.583>
VStem: 150 150<385.941 489.106> 325 100<-25 200> 350 150<435.941 539.106>
LayerCount: 2
Fore
SplineSet
467 838 m 1x98
 825 300 l 1
 825 200 l 1
 425 200 l 1
 425 -25 l 1
 325 -25 l 1
 325 300 l 1
 400 300 l 1
 425 300 l 1
 705 300 l 1
 383 781 l 1
 467 838 l 1x98
150 438 m 0
 150 479 184 512 225 512 c 0
 266 512 300 479 300 438 c 0
 300 397 266 362 225 362 c 0xd0
 184 362 150 397 150 438 c 0
350 488 m 0xb4
 350 529 384 562 425 562 c 0xb8
 466 562 500 529 500 488 c 0xb4
 500 447 466 412 425 412 c 0xb8
 384 412 350 447 350 488 c 0xb4
EndSplineSet
LCarets2: 3 -75 -75 -75
MultipleSubs2: "CCMP cartouches" t.waso cart.body
Ligature2: "LIGA basics" w a s o
EndChar

StartChar: t.wawa
Encoding: 218 989557 119
GlifName: t.wawa
Width: 1000
GlyphClass: 1
Flags: W
HStem: 100 100<423.917 576.083> 500 100<423.917 576.083>
VStem: 250 100<273.917 426.083> 650 100<273.917 426.083>
LayerCount: 2
Fore
SplineSet
500 500 m 0
 417 500 350 433 350 350 c 0
 350 267 417 200 500 200 c 0
 583 200 650 267 650 350 c 0
 650 433 583 500 500 500 c 0
500 600 m 0
 638 600 750 488 750 350 c 0
 750 212 638 100 500 100 c 0
 362 100 250 212 250 350 c 0
 250 488 362 600 500 600 c 0
952 705 m 1
 852 205 l 1
 753 223 l 1
 853 723 l 1
 952 705 l 1
48 705 m 1
 147 723 l 1
 247 223 l 1
 148 205 l 1
 48 705 l 1
EndSplineSet
LCarets2: 3 -75 -75 -75
MultipleSubs2: "CCMP cartouches" t.wawa cart.body
Ligature2: "LIGA basics" w a w a
EndChar

StartChar: t.weka
Encoding: 219 989558 120
GlifName: t.weka
Width: 1000
GlyphClass: 1
Flags: W
HStem: 0 21G<150 190 810 850> 780 20G<150 190 810 850>
LayerCount: 2
Fore
SplineSet
620 350 m 1
 900 70 l 1
 830 0 l 1
 550 280 l 1
 620 350 l 1
380 350 m 1
 450 280 l 1
 170 0 l 1
 100 70 l 1
 380 350 l 1
830 800 m 1
 900 730 l 1
 620 450 l 1
 550 520 l 1
 830 800 l 1
170 800 m 1
 450 520 l 1
 380 450 l 1
 100 730 l 1
 170 800 l 1
EndSplineSet
LCarets2: 3 -75 -75 -75
MultipleSubs2: "CCMP cartouches" t.weka cart.body
Ligature2: "LIGA basics" w e k a
EndChar

StartChar: t.wile
Encoding: 220 989559 121
GlifName: t.wile
Width: 1000
GlyphClass: 1
Flags: W
HStem: 50 100<239.525 386.026 613.974 760.475>
VStem: 75 100<215.332 465.476> 450 100<213.272 325> 825 100<215.332 465.476>
CounterMasks: 1 70
LayerCount: 2
Fore
SplineSet
825 288 m 0
 825 438 782 577 705 694 c 1
 788 750 l 1
 876 617 925 458 925 288 c 0
 925 157 819 50 688 50 c 0
 615 50 545 84 500 142 c 1
 455 84 385 50 312 50 c 0
 181 50 75 157 75 288 c 2
 75 458 124 617 212 750 c 1
 295 694 l 1
 218 577 175 438 175 288 c 2
 175 211 235 150 312 150 c 0
 389 150 450 211 450 288 c 2
 450 325 l 1
 550 325 l 1
 550 288 l 2
 550 211 611 150 688 150 c 0
 765 150 825 211 825 288 c 0
EndSplineSet
LCarets2: 3 -75 -75 -75
MultipleSubs2: "CCMP cartouches" t.wile cart.body
Ligature2: "LIGA basics" w i l e
EndChar

StartChar: i
Encoding: 73 105 122
GlifName: glyph122
Width: 500
VWidth: 900
Flags: W
HStem: 0 21G<200 300> 450 100<88 200> 625 150<198.417 301.583>
VStem: 175 150<648.417 751.583> 200 100<0 450>
LayerCount: 2
Fore
SplineSet
88 550 m 1xe8
 200 550 l 1
 212 550 l 1
 300 550 l 1
 300 0 l 1
 200 0 l 1
 200 450 l 1
 88 450 l 1
 88 550 l 1xe8
250 775 m 0
 291 775 325 741 325 700 c 0
 325 659 291 625 250 625 c 0
 209 625 175 659 175 700 c 0xf0
 175 741 209 775 250 775 c 0
EndSplineSet
MultipleSubs2: "CCMP cartouches" i cart.hwbody
EndChar

StartChar: j
Encoding: 74 106 123
GlifName: glyph123
Width: 500
VWidth: -100
Flags: W
HStem: -102 100<157.678 253.625> 450 100<162 275> 625 150<273.417 376.583>
VStem: 250 150<648.417 751.583> 275 100<18.3135 450>
LayerCount: 2
Fore
SplineSet
162 550 m 1xe8
 275 550 l 1
 288 550 l 1
 375 550 l 1
 375 69 l 2
 375 -25 300 -102 206 -102 c 0
 123 -102 55 -42 41 38 c 1
 138 69 l 1
 138 31 168 -2 206 -2 c 0
 244 -2 275 31 275 69 c 2
 275 450 l 1
 162 450 l 1
 162 550 l 1xe8
325 775 m 0
 366 775 400 741 400 700 c 0
 400 659 366 625 325 625 c 0
 284 625 250 659 250 700 c 0xf0
 250 741 284 775 325 775 c 0
EndSplineSet
MultipleSubs2: "CCMP cartouches" j cart.hwbody
EndChar

StartChar: o
Encoding: 79 111 124
GlifName: glyph124
Width: 500
VWidth: -100
Flags: W
HStem: -12 100<189.341 310.659> 462 100<189.341 310.659>
VStem: 50 100<128.324 421.676> 350 100<128.324 421.676>
LayerCount: 2
Fore
SplineSet
250 462 m 0
 195 462 150 417 150 362 c 2
 150 188 l 2
 150 133 195 88 250 88 c 0
 305 88 350 133 350 188 c 2
 350 362 l 2
 350 417 305 462 250 462 c 0
250 562 m 0
 361 562 450 473 450 362 c 2
 450 188 l 2
 450 77 361 -12 250 -12 c 0
 139 -12 50 77 50 188 c 2
 50 362 l 2
 50 473 139 562 250 562 c 0
EndSplineSet
MultipleSubs2: "CCMP cartouches" o cart.hwbody
EndChar

StartChar: a
Encoding: 65 97 125
GlifName: glyph125
Width: 500
VWidth: -100
Flags: W
HStem: -12 100<158.097 281.373> 0 21G<350 450> 225 100<158.195 350> 462 100<169.109 310.287>
VStem: 38 100<108.097 205.019> 350 100<0 34 156.213 225 325 420.933>
LayerCount: 2
Fore
SplineSet
206 225 m 2xbc
 168 225 138 194 138 156 c 0
 138 118 168 88 206 88 c 0
 283 88 347 148 350 225 c 1
 206 225 l 2xbc
250 562 m 0
 359 562 450 471 450 362 c 2
 450 0 l 1
 350 0 l 1x7c
 350 0 350 16 350 25 c 0
 350 30 350 34 350 34 c 1
 309 4 261 -12 206 -12 c 0
 112 -12 38 62 38 156 c 0
 38 245 106 319 194 325 c 1
 350 325 l 1
 350 362 l 2
 350 417 305 462 250 462 c 0
 181 462 123 421 100 362 c 1
 31 445 l 0
 31 447 105 562 250 562 c 0
EndSplineSet
MultipleSubs2: "CCMP cartouches" a cart.hwbody
EndChar

StartChar: A
Encoding: 33 65 126
Width: 500
VWidth: 900
Flags: W
HStem: 0 21G<44 149.267 362.867 469> 150 100<197 316> 780 20G<201.95 310.075>
LayerCount: 2
Fore
SplineSet
256 544 m 1
 197 250 l 1
 316 250 l 1
 256 544 l 1
206 800 m 1
 306 800 l 1
 469 0 l 1
 367 0 l 1
 336 150 l 1
 177 150 l 1
 145 0 l 1
 44 0 l 1
 206 800 l 1
EndSplineSet
MultipleSubs2: "CCMP cartouches" A cart.hwbody
EndChar

StartChar: B
Encoding: 34 66 127
Width: 500
VWidth: 900
Flags: W
HStem: 0 100<156 310.439> 350 100<156 312.063> 700 100<156 310.439>
VStem: 56 100<100 350 450 700> 369 100<156.844 294.051 506.213 643.156>
CounterMasks: 1 e0
LayerCount: 2
Fore
SplineSet
469 225 m 0
 469 102 367 0 244 0 c 2
 156 0 l 1
 56 0 l 1
 56 800 l 1
 156 800 l 1
 244 800 l 2
 367 800 469 698 469 575 c 0
 469 506 437 444 384 400 c 1
 437 356 469 294 469 225 c 0
156 100 m 1
 244 100 l 2
 313 100 369 156 369 225 c 0
 369 294 313 350 244 350 c 2
 156 350 l 1
 156 100 l 1
369 575 m 0
 369 644 313 700 244 700 c 2
 156 700 l 1
 156 450 l 1
 245 450 l 2
 314 452 369 506 369 575 c 0
EndSplineSet
MultipleSubs2: "CCMP cartouches" B cart.hwbody
EndChar

StartChar: C
Encoding: 35 67 128
Width: 500
VWidth: 910
Flags: W
HStem: -12 100<195.713 316.287> 712 100<195.713 316.287>
VStem: 56 100<129.067 670.933> 356 100<129.067 188 612 670.933>
LayerCount: 2
Fore
SplineSet
156 612 m 1
 156 188 l 2
 156 133 201 88 256 88 c 0
 311 88 356 133 356 188 c 1
 456 188 l 1
 456 79 365 -12 256 -12 c 0
 147 -12 56 79 56 188 c 2
 56 612 l 2
 56 721 147 812 256 812 c 0
 365 812 456 721 456 612 c 1
 356 612 l 1
 356 667 311 712 256 712 c 0
 201 712 156 667 156 612 c 1
EndSplineSet
MultipleSubs2: "CCMP cartouches" C cart.hwbody
EndChar

StartChar: D
Encoding: 36 68 129
Width: 500
VWidth: 900
Flags: W
HStem: 0 100<156 310.439> 700 100<156 310.439>
VStem: 56 100<100 700> 369 100<158.561 641.439>
LayerCount: 2
Fore
SplineSet
156 700 m 1
 156 100 l 1
 244 100 l 2
 313 100 369 156 369 225 c 1
 369 575 l 1
 369 644 313 700 244 700 c 2
 156 700 l 1
56 800 m 1
 156 800 l 1
 244 800 l 1
 367 800 469 698 469 575 c 1
 469 225 l 1
 469 102 367 0 244 0 c 2
 56 0 l 1
 56 800 l 1
EndSplineSet
MultipleSubs2: "CCMP cartouches" D cart.hwbody
EndChar

StartChar: E
Encoding: 37 69 130
Width: 500
VWidth: 900
Flags: W
HStem: 0 100<156 456> 350 100<156 369> 700 100<156 456>
VStem: 56 100<100 350 450 700>
CounterMasks: 1 e0
LayerCount: 2
Fore
SplineSet
56 0 m 1
 56 800 l 1
 456 800 l 1
 456 700 l 1
 156 700 l 1
 156 450 l 1
 369 450 l 1
 369 350 l 1
 156 350 l 1
 156 100 l 1
 456 100 l 1
 456 0 l 1
 156 0 l 1
 56 0 l 1
EndSplineSet
MultipleSubs2: "CCMP cartouches" E cart.hwbody
EndChar

StartChar: F
Encoding: 38 70 131
Width: 500
VWidth: 900
Flags: W
HStem: 0 21G<56 156> 350 100<156 369> 700 100<156 456>
VStem: 56 100<0 350 450 700>
LayerCount: 2
Fore
SplineSet
56 800 m 1
 156 800 l 1
 456 800 l 1
 456 700 l 1
 156 700 l 1
 156 450 l 1
 369 450 l 1
 369 350 l 1
 156 350 l 1
 156 0 l 1
 56 0 l 1
 56 800 l 1
EndSplineSet
MultipleSubs2: "CCMP cartouches" F cart.hwbody
EndChar

StartChar: G
Encoding: 39 71 132
Width: 500
VWidth: 910
Flags: W
HStem: -12 100<195.713 316.287> 350 100<244 356> 712 100<195.713 316.287>
VStem: 56 100<129.067 670.933> 356 100<129.067 350 612 670.933>
CounterMasks: 1 e0
LayerCount: 2
Fore
SplineSet
256 812 m 0
 365 812 456 721 456 612 c 1
 356 612 l 1
 356 667 311 712 256 712 c 0
 201 712 156 667 156 612 c 2
 156 188 l 2
 156 133 201 88 256 88 c 0
 311 88 356 133 356 188 c 1
 356 350 l 1
 244 350 l 1
 244 450 l 1
 356 450 l 1
 456 450 l 1
 456 188 l 1
 456 79 365 -12 256 -12 c 0
 147 -12 56 79 56 188 c 2
 56 612 l 2
 56 721 147 812 256 812 c 0
EndSplineSet
MultipleSubs2: "CCMP cartouches" G cart.hwbody
EndChar

StartChar: H
Encoding: 40 72 133
Width: 500
VWidth: 900
Flags: W
HStem: 0 21G<56 156 356 456> 350 100<156 356> 780 20G<56 156 356 456>
VStem: 56 100<0 350 450 800> 356 100<0 350 450 800>
LayerCount: 2
Fore
SplineSet
56 800 m 1
 156 800 l 1
 156 450 l 1
 356 450 l 1
 356 800 l 1
 456 800 l 1
 456 0 l 1
 356 0 l 1
 356 350 l 1
 156 350 l 1
 156 0 l 1
 56 0 l 1
 56 800 l 1
EndSplineSet
MultipleSubs2: "CCMP cartouches" H cart.hwbody
EndChar

StartChar: I
Encoding: 41 73 134
Width: 500
VWidth: 900
Flags: W
HStem: 0 100<100 200 300 400> 700 100<100 200 300 400>
VStem: 100 300<0 100 700 800>
LayerCount: 2
Fore
SplineSet
100 800 m 1
 400 800 l 1
 400 700 l 1
 300 700 l 1
 300 100 l 1
 400 100 l 1
 400 0 l 1
 300 0 l 1
 200 0 l 1
 100 0 l 1
 100 100 l 1
 200 100 l 1
 200 700 l 1
 100 700 l 1
 100 800 l 1
EndSplineSet
MultipleSubs2: "CCMP cartouches" I cart.hwbody
EndChar

StartChar: J
Encoding: 42 74 135
Width: 500
VWidth: 900
Flags: W
HStem: -12 100<195.713 316.287> 700 100<156 356>
VStem: 56 100<129.067 188> 356 100<129.067 700>
LayerCount: 2
Fore
SplineSet
456 800 m 1
 456 188 l 1
 456 79 365 -12 256 -12 c 0
 147 -12 56 79 56 188 c 1
 156 188 l 1
 156 133 201 88 256 88 c 0
 311 88 356 133 356 188 c 1
 356 700 l 1
 156 700 l 1
 156 800 l 1
 456 800 l 1
EndSplineSet
MultipleSubs2: "CCMP cartouches" J cart.hwbody
EndChar

StartChar: K
Encoding: 43 75 136
Width: 500
VWidth: 900
Flags: W
HStem: 0 21G<56 156 350.029 469> 350 100<156 202> 780 20G<56 156 350.029 469>
VStem: 56 100<0 350 450 800>
LayerCount: 2
Fore
SplineSet
56 800 m 1
 156 800 l 1
 156 450 l 1
 202 450 l 1
 359 800 l 1
 469 800 l 1
 288 400 l 1
 469 0 l 1
 359 0 l 1
 202 350 l 1
 156 350 l 1
 156 0 l 1
 56 0 l 1
 56 800 l 1
EndSplineSet
MultipleSubs2: "CCMP cartouches" K cart.hwbody
EndChar

StartChar: L
Encoding: 44 76 137
Width: 500
VWidth: 900
Flags: W
HStem: 0 100<156 456> 780 20G<56 156>
VStem: 56 100<100 800>
LayerCount: 2
Fore
SplineSet
456 0 m 1
 56 0 l 1
 56 800 l 1
 156 800 l 1
 156 100 l 1
 456 100 l 1
 456 0 l 1
EndSplineSet
MultipleSubs2: "CCMP cartouches" L cart.hwbody
EndChar

StartChar: M
Encoding: 45 77 138
Width: 500
VWidth: 900
Flags: W
HStem: 0 21G<44 144 369 469> 780 20G<44 150.707 362.234 469>
VStem: 44 100<0 486> 369 100<0 486>
LayerCount: 2
Fore
SplineSet
44 800 m 1
 144 800 l 1
 256 466 l 1
 369 800 l 1
 469 800 l 1
 469 0 l 1
 369 0 l 1
 369 486 l 1
 306 300 l 1
 206 300 l 1
 144 486 l 1
 144 0 l 1
 44 0 l 1
 44 800 l 1
EndSplineSet
MultipleSubs2: "CCMP cartouches" M cart.hwbody
EndChar

StartChar: N
Encoding: 46 78 139
Width: 500
VWidth: 900
Flags: W
HStem: 0 21G<56 156 348.308 456> 780 20G<56 163.692 356 456>
VStem: 56 100<0 520> 356 100<280 800>
LayerCount: 2
Fore
SplineSet
56 800 m 1
 156 800 l 1
 356 280 l 1
 356 800 l 1
 456 800 l 1
 456 0 l 1
 356 0 l 1
 156 520 l 1
 156 0 l 1
 56 0 l 1
 56 800 l 1
EndSplineSet
MultipleSubs2: "CCMP cartouches" N cart.hwbody
EndChar

StartChar: O
Encoding: 47 79 140
Width: 500
VWidth: 900
Flags: W
HStem: -25 100<195.713 316.287> 700 100<195.713 316.287>
VStem: 56 100<116.067 658.933> 356 100<116.067 658.933>
LayerCount: 2
Fore
SplineSet
256 700 m 0
 201 700 156 655 156 600 c 2
 156 175 l 2
 156 120 201 75 256 75 c 0
 311 75 356 120 356 175 c 1
 356 600 l 1
 356 655 311 700 256 700 c 0
256 800 m 0
 365 800 456 709 456 600 c 1
 456 175 l 1
 456 66 365 -25 256 -25 c 0
 147 -25 56 66 56 175 c 2
 56 600 l 2
 56 709 147 800 256 800 c 0
EndSplineSet
MultipleSubs2: "CCMP cartouches" O cart.hwbody
EndChar

StartChar: P
Encoding: 48 80 141
Width: 500
VWidth: 900
Flags: W
HStem: 0 21G<56 156> 350 100<156 310.439> 700 100<156 310.439>
VStem: 56 100<0 350 450 700> 369 100<506.844 643.156>
LayerCount: 2
Fore
SplineSet
469 575 m 0
 469 452 367 350 244 350 c 2
 156 350 l 1
 156 0 l 1
 56 0 l 1
 56 800 l 1
 156 800 l 1
 244 800 l 1
 367 800 469 698 469 575 c 0
156 450 m 1
 244 450 l 2
 313 450 369 506 369 575 c 0
 369 644 313 700 244 700 c 1
 156 700 l 1
 156 450 l 1
EndSplineSet
MultipleSubs2: "CCMP cartouches" P cart.hwbody
EndChar

StartChar: Q
Encoding: 49 81 142
Width: 500
VWidth: 910
Flags: W
HStem: 62 100<189.713 268.719> 712 100<189.713 310.287>
VStem: 50 100<203.067 670.933> 350 100<235.151 670.933>
LayerCount: 2
Fore
SplineSet
250 712 m 0
 195 712 150 667 150 612 c 2
 150 262 l 2
 150 207 195 162 250 162 c 0
 256 162 263 162 269 164 c 1
 173 375 l 1
 281 375 l 1
 345 234 l 1
 348 243 350 253 350 262 c 1
 350 612 l 1
 350 667 305 712 250 712 c 0
250 812 m 0
 359 812 450 721 450 612 c 2
 450 262 l 2
 450 209 429 161 395 125 c 1
 462 -25 l 1
 353 -25 l 1
 309 72 l 1
 290 66 270 62 250 62 c 0
 141 62 50 153 50 262 c 2
 50 612 l 2
 50 721 141 812 250 812 c 0
EndSplineSet
MultipleSubs2: "CCMP cartouches" Q cart.hwbody
EndChar

StartChar: R
Encoding: 50 82 143
Width: 500
VWidth: 900
Flags: W
HStem: 0 21G<56 156 350.029 469> 350 100<156 202> 700 100<156 310.439>
VStem: 56 100<0 350 450 700> 369 100<505.73 643.156>
LayerCount: 2
Fore
SplineSet
156 700 m 1
 156 450 l 1
 244 450 l 1
 313 450 369 506 369 575 c 0
 369 644 313 700 244 700 c 2
 156 700 l 1
56 800 m 1
 156 800 l 1
 244 800 l 2
 367 800 469 698 469 575 c 0
 469 473 400 386 306 359 c 1
 469 0 l 1
 359 0 l 1
 202 350 l 1
 156 350 l 1
 156 0 l 1
 56 0 l 1
 56 800 l 1
EndSplineSet
MultipleSubs2: "CCMP cartouches" R cart.hwbody
EndChar

StartChar: S
Encoding: 51 83 144
Width: 500
VWidth: 900
Flags: W
HStem: -25 100<195.713 316.287> 338 100<197.067 314.933> 700 100<195.713 316.287>
VStem: 56 100<116.067 175 479.067 658.933> 356 100<116.067 296.933 600 658.933>
LayerCount: 2
Fore
SplineSet
256 338 m 0
 147 338 56 429 56 538 c 2
 56 600 l 2
 56 709 147 800 256 800 c 0
 365 800 456 709 456 600 c 1
 356 600 l 1
 356 655 311 700 256 700 c 0
 201 700 156 655 156 600 c 2
 156 538 l 2
 156 483 201 438 256 438 c 0
 365 438 456 347 456 238 c 2
 456 175 l 2
 456 66 365 -25 256 -25 c 0
 147 -25 56 66 56 175 c 1
 156 175 l 1
 156 120 201 75 256 75 c 0
 311 75 356 120 356 175 c 2
 356 238 l 2
 356 293 311 338 256 338 c 0
EndSplineSet
MultipleSubs2: "CCMP cartouches" S cart.hwbody
EndChar

StartChar: T
Encoding: 52 84 145
Width: 500
VWidth: 900
Flags: W
HStem: 0 21G<206 306> 700 100<56 206 306 456>
VStem: 206 100<0 700>
LayerCount: 2
Fore
SplineSet
56 800 m 1
 206 800 l 1
 306 800 l 1
 456 800 l 1
 456 700 l 1
 306 700 l 1
 306 0 l 1
 206 0 l 1
 206 700 l 1
 56 700 l 1
 56 800 l 1
EndSplineSet
MultipleSubs2: "CCMP cartouches" T cart.hwbody
EndChar

StartChar: U
Encoding: 53 85 146
Width: 500
VWidth: 900
Flags: W
HStem: 0 100<195.713 316.287> 780 20G<56 156 356 456>
VStem: 56 100<141.067 800> 356 100<141.067 800>
LayerCount: 2
Fore
SplineSet
256 100 m 0
 311 100 356 145 356 200 c 2
 356 800 l 1
 456 800 l 1
 456 200 l 2
 456 91 365 0 256 0 c 0
 147 0 56 91 56 200 c 2
 56 800 l 1
 156 800 l 1
 156 200 l 2
 156 145 201 100 256 100 c 0
EndSplineSet
MultipleSubs2: "CCMP cartouches" U cart.hwbody
EndChar

StartChar: V
Encoding: 54 86 147
Width: 500
VWidth: 900
Flags: W
HStem: 0 21G<201.95 310.075> 780 20G<44 149.081 362.919 469>
LayerCount: 2
Fore
SplineSet
206 0 m 1
 44 800 l 1
 145 800 l 1
 256 256 l 1
 367 800 l 1
 469 800 l 1
 306 0 l 1
 206 0 l 1
EndSplineSet
MultipleSubs2: "CCMP cartouches" V cart.hwbody
EndChar

StartChar: W
Encoding: 55 87 148
Width: 500
VWidth: 900
Flags: W
HStem: 0 21G<44 150.707 362.234 469> 780 20G<44 144 369 469>
VStem: 44 100<314 800> 369 100<314 800>
LayerCount: 2
Fore
SplineSet
44 0 m 1
 44 800 l 1
 144 800 l 1
 144 314 l 1
 206 500 l 1
 306 500 l 1
 369 314 l 1
 369 800 l 1
 469 800 l 1
 469 0 l 1
 369 0 l 1
 256 334 l 1
 144 0 l 1
 44 0 l 1
EndSplineSet
MultipleSubs2: "CCMP cartouches" W cart.hwbody
EndChar

StartChar: X
Encoding: 56 88 149
Width: 500
VWidth: 900
Flags: W
HStem: 0 21G<44 159.879 353.045 469> 780 20G<44 159.879 353.045 469>
LayerCount: 2
Fore
SplineSet
44 800 m 1
 152 800 l 1
 256 536 l 1
 361 800 l 1
 469 800 l 1
 309 400 l 1
 469 0 l 1
 361 0 l 1
 256 264 l 1
 152 0 l 1
 44 0 l 1
 202 400 l 1
 44 800 l 1
EndSplineSet
MultipleSubs2: "CCMP cartouches" X cart.hwbody
EndChar

StartChar: Y
Encoding: 57 89 150
Width: 500
VWidth: 900
Flags: W
HStem: 0 21G<206 306> 780 20G<44 159.879 353.045 469>
VStem: 206 100<0 391>
LayerCount: 2
Fore
SplineSet
44 800 m 1
 152 800 l 1
 256 536 l 1
 361 800 l 1
 469 800 l 1
 306 391 l 1
 306 0 l 1
 206 0 l 1
 206 391 l 1
 44 800 l 1
EndSplineSet
MultipleSubs2: "CCMP cartouches" Y cart.hwbody
EndChar

StartChar: Z
Encoding: 58 90 151
Width: 500
VWidth: 900
Flags: W
HStem: 0 100<167 456> 700 100<56 345>
LayerCount: 2
Fore
SplineSet
56 800 m 1
 456 800 l 1
 456 700 l 1
 167 100 l 1
 456 100 l 1
 456 0 l 1
 56 0 l 1
 56 100 l 1
 345 700 l 1
 56 700 l 1
 56 800 l 1
EndSplineSet
MultipleSubs2: "CCMP cartouches" Z cart.hwbody
EndChar

StartChar: b
Encoding: 66 98 152
Width: 500
VWidth: 900
Flags: W
HStem: -12 100<192.315 311.006> 0 21G<50 150> 462 100<192.315 311.006> 780 20G<50 150>
VStem: 50 100<0 41 126.358 423.642 509 800> 350 100<126.674 423.326>
LayerCount: 2
Fore
SplineSet
250 462 m 0xbc
 195 462 150 417 150 362 c 2
 150 188 l 2
 150 133 195 88 250 88 c 0
 305 88 350 133 350 188 c 2
 350 362 l 2
 350 417 305 462 250 462 c 0xbc
50 800 m 1
 150 800 l 1
 150 509 l 1
 181 540 227 562 275 562 c 0
 372 562 450 485 450 388 c 2
 450 162 l 2
 450 65 372 -12 275 -12 c 0xbc
 227 -12 181 10 150 41 c 1
 150 0 l 1
 50 0 l 1x7c
 50 800 l 1
EndSplineSet
MultipleSubs2: "CCMP cartouches" b cart.hwbody
EndChar

StartChar: c
Encoding: 67 99 153
Width: 500
VWidth: 910
Flags: W
HStem: -12 100<193.519 318.61> 462 100<193.519 318.61>
VStem: 50 100<132.657 417.343> 362 96<130.712 150.917 399.083 419.288>
LayerCount: 2
Fore
SplineSet
256 562 m 0
 354 562 438 496 458 402 c 1
 362 362 l 1
 359 418 312 462 256 462 c 0
 197 462 150 415 150 356 c 2
 150 275 l 1
 150 194 l 2
 150 135 197 88 256 88 c 0
 312 88 359 132 362 188 c 1
 458 148 l 1
 438 54 354 -12 256 -12 c 0
 142 -12 50 80 50 194 c 2
 50 356 l 2
 50 470 142 562 256 562 c 0
EndSplineSet
MultipleSubs2: "CCMP cartouches" c cart.hwbody
EndChar

StartChar: d
Encoding: 68 100 154
Width: 500
VWidth: 900
Flags: W
HStem: -12 100<188.994 307.685> 0 21G<350 450> 462 100<188.994 307.685> 780 20G<350 450>
VStem: 50 100<126.674 423.326> 350 100<0 41 126.358 423.642 509 800>
LayerCount: 2
Fore
SplineSet
250 462 m 0xbc
 195 462 150 417 150 362 c 2
 150 188 l 2
 150 133 195 88 250 88 c 0
 305 88 350 133 350 188 c 2
 350 362 l 2
 350 417 305 462 250 462 c 0xbc
450 800 m 1
 450 0 l 1
 350 0 l 1x7c
 350 41 l 1
 319 10 273 -12 225 -12 c 0
 128 -12 50 65 50 162 c 2
 50 388 l 2
 50 485 128 562 225 562 c 0
 273 562 319 540 350 509 c 1
 350 800 l 1
 450 800 l 1
EndSplineSet
MultipleSubs2: "CCMP cartouches" d cart.hwbody
EndChar

StartChar: e
Encoding: 69 101 155
Width: 500
VWidth: 900
Flags: W
HStem: -12 100<193.519 318.61> 250 100<150 350> 462 100<189.713 310.287>
VStem: 50 100<132.657 250 350 420.933> 350 100<350 420.933>
LayerCount: 2
Fore
SplineSet
250 462 m 0
 195 462 150 417 150 362 c 2
 150 350 l 1
 350 350 l 1
 350 362 l 1
 350 417 305 462 250 462 c 0
250 562 m 0
 359 562 450 471 450 362 c 2
 450 350 l 1
 450 250 l 1
 150 250 l 1
 150 194 l 2
 150 135 197 88 256 88 c 0
 312 88 359 132 362 188 c 1
 458 148 l 1
 438 54 354 -12 256 -12 c 0
 142 -12 50 80 50 194 c 2
 50 362 l 2
 50 471 141 562 250 562 c 0
EndSplineSet
MultipleSubs2: "CCMP cartouches" e cart.hwbody
EndChar

StartChar: f
Encoding: 70 102 156
Width: 500
VWidth: 900
Flags: W
HStem: 0 21G<138 238> 450 100<62 138 238 412> 712 100<258.097 355.205>
VStem: 138 100<0 450 550 690.422>
LayerCount: 2
Fore
SplineSet
306 812 m 0
 389 812 458 753 472 673 c 1
 375 644 l 1
 375 682 344 712 306 712 c 0
 268 712 238 682 238 644 c 2
 238 550 l 1
 412 550 l 1
 412 450 l 1
 238 450 l 1
 238 0 l 1
 138 0 l 1
 138 450 l 1
 62 450 l 1
 62 550 l 1
 138 550 l 1
 138 644 l 2
 138 738 212 812 306 812 c 0
EndSplineSet
MultipleSubs2: "CCMP cartouches" f cart.hwbody
EndChar

StartChar: g
Encoding: 71 103 157
Width: 500
VWidth: 910
Flags: W
HStem: -100 100<181.39 306.481> 125 100<188.994 308.636> 462 100<188.994 307.685> 530 20G<350 450>
VStem: 50 100<264.631 423.326> 350 100<44.6567 177 263.358 423.642 509 550>
LayerCount: 2
Fore
SplineSet
250 462 m 0xec
 195 462 150 417 150 362 c 2
 150 325 l 2
 150 270 195 225 250 225 c 0
 305 225 350 270 350 325 c 2
 350 362 l 2
 350 417 305 462 250 462 c 0xec
225 562 m 0
 273 562 319 540 350 509 c 1
 350 550 l 1
 450 550 l 1xdc
 450 275 l 1
 450 106 l 2
 450 -8 358 -100 244 -100 c 0
 146 -100 62 -33 42 61 c 1
 138 100 l 1
 141 44 188 0 244 0 c 0
 303 0 350 47 350 106 c 2
 350 125 l 1
 350 177 l 1
 319 146 273 125 225 125 c 0
 128 125 50 203 50 300 c 2
 50 388 l 2
 50 485 128 562 225 562 c 0
EndSplineSet
MultipleSubs2: "CCMP cartouches" g cart.hwbody
EndChar

StartChar: h
Encoding: 72 104 158
Width: 500
VWidth: 900
Flags: W
HStem: 0 21G<50 150 350 450> 462 100<192.315 311.006> 780 20G<50 150>
VStem: 50 100<0 423.642 509 800> 350 100<0 423.326>
LayerCount: 2
Fore
SplineSet
50 800 m 1
 150 800 l 1
 150 509 l 1
 181 540 227 562 275 562 c 0
 372 562 450 485 450 388 c 2
 450 0 l 1
 350 0 l 1
 350 362 l 2
 350 417 305 462 250 462 c 0
 195 462 150 417 150 362 c 2
 150 0 l 1
 50 0 l 1
 50 800 l 1
EndSplineSet
MultipleSubs2: "CCMP cartouches" h cart.hwbody
EndChar

StartChar: k
Encoding: 75 107 159
Width: 500
VWidth: 900
Flags: W
HStem: 0 21G<50 150 312.372 450> 530 20G<312.372 450> 780 20G<50 150>
VStem: 50 100<0 242 308 800>
LayerCount: 2
Fore
SplineSet
50 800 m 1
 150 800 l 1
 150 308 l 1
 327 550 l 1
 450 550 l 1
 250 275 l 1
 450 0 l 1
 327 0 l 1
 150 242 l 1
 150 0 l 1
 50 0 l 1
 50 800 l 1
EndSplineSet
MultipleSubs2: "CCMP cartouches" k cart.hwbody
EndChar

StartChar: l
Encoding: 76 108 160
Width: 500
VWidth: 900
Flags: W
HStem: 0 100<283.88 425> 700 100<100 175>
VStem: 100 175<700 800> 175 100<108.88 700>
LayerCount: 2
Fore
SplineSet
100 800 m 1xe0
 275 800 l 1xe0
 275 150 l 2
 275 122 297 100 325 100 c 2
 425 100 l 1
 425 0 l 1
 325 0 l 2
 242 0 175 67 175 150 c 2
 175 700 l 1xd0
 100 700 l 1
 100 800 l 1xe0
EndSplineSet
MultipleSubs2: "CCMP cartouches" l cart.hwbody
EndChar

StartChar: m
Encoding: 77 109 161
Width: 500
VWidth: 900
Flags: W
HStem: 0 21G<38 138 200 300 362 462> 462 100<163.988 241.5 325.988 403.5> 530 20G<38 138>
VStem: 38 100<0 460.596 481 550> 200 100<0 460.596> 362 100<0 460.596>
CounterMasks: 1 1c
LayerCount: 2
Fore
SplineSet
219 562 m 0xdc
 264 562 300 526 300 481 c 1
 300 526 336 562 381 562 c 0
 426 562 462 526 462 481 c 2
 462 0 l 1
 362 0 l 1
 362 431 l 2
 362 448 348 462 331 462 c 0
 314 462 300 448 300 431 c 2
 300 0 l 1
 200 0 l 1
 200 431 l 2
 200 448 186 462 169 462 c 0xdc
 152 462 138 448 138 431 c 2
 138 0 l 1
 38 0 l 1
 38 550 l 1
 138 550 l 1xbc
 138 481 l 1
 138 526 174 562 219 562 c 0xdc
EndSplineSet
MultipleSubs2: "CCMP cartouches" m cart.hwbody
EndChar

StartChar: n
Encoding: 78 110 162
Width: 500
VWidth: 900
Flags: W
HStem: 0 21G<50 150 350 450> 462 100<192.315 311.006> 530 20G<50 150>
VStem: 50 100<0 423.642 509 550> 350 100<0 423.326>
LayerCount: 2
Fore
SplineSet
50 550 m 1xb8
 150 550 l 1xb8
 150 509 l 1
 181 540 227 562 275 562 c 0
 372 562 450 485 450 388 c 2
 450 0 l 1
 350 0 l 1
 350 362 l 2
 350 417 305 462 250 462 c 0xd8
 195 462 150 417 150 362 c 2
 150 0 l 1
 50 0 l 1
 50 550 l 1xb8
EndSplineSet
MultipleSubs2: "CCMP cartouches" n cart.hwbody
EndChar

StartChar: p
Encoding: 80 112 163
Width: 500
VWidth: 900
Flags: W
HStem: 75 100<191.364 311.006> 462 100<192.315 311.006> 530 20G<50 150>
VStem: 50 100<-100 127 213.358 423.642 509 550> 350 100<214.631 423.326>
LayerCount: 2
Fore
SplineSet
250 175 m 0xd8
 305 175 350 220 350 275 c 2
 350 362 l 2
 350 417 305 462 250 462 c 0
 195 462 150 417 150 362 c 2
 150 275 l 2
 150 220 195 175 250 175 c 0xd8
50 -100 m 1
 50 550 l 1
 150 550 l 1xb8
 150 509 l 1
 181 540 227 562 275 562 c 0
 372 562 450 485 450 388 c 2
 450 250 l 2
 450 153 372 75 275 75 c 0
 227 75 181 96 150 127 c 1
 150 -100 l 1
 50 -100 l 1
EndSplineSet
MultipleSubs2: "CCMP cartouches" p cart.hwbody
EndChar

StartChar: q
Encoding: 81 113 164
Width: 500
VWidth: 910
Flags: W
HStem: 75 100<188.994 308.636> 462 100<188.994 307.685> 530 20G<350 450>
VStem: 50 100<214.631 423.326> 350 100<-100 127 213.358 423.642 509 550>
LayerCount: 2
Fore
SplineSet
250 175 m 0xd8
 305 175 350 220 350 275 c 2
 350 362 l 2
 350 417 305 462 250 462 c 0
 195 462 150 417 150 362 c 2
 150 275 l 2
 150 220 195 175 250 175 c 0xd8
450 -100 m 1
 350 -100 l 1
 350 127 l 1
 319 96 273 75 225 75 c 0
 128 75 50 153 50 250 c 2
 50 388 l 2
 50 485 128 562 225 562 c 0xd8
 273 562 319 540 350 509 c 1
 350 550 l 1
 450 550 l 1xb8
 450 -100 l 1
EndSplineSet
MultipleSubs2: "CCMP cartouches" q cart.hwbody
EndChar

StartChar: r
Encoding: 82 114 165
Width: 500
VWidth: 900
Flags: W
HStem: 0 21G<50 150> 462 100<196.36 319.878> 530 20G<50 150>
VStem: 50 100<0 419.618 506 550>
LayerCount: 2
Fore
SplineSet
281 562 m 0xd0
 367 562 439 502 458 422 c 1
 362 356 l 1
 362 415 315 462 256 462 c 0xd0
 197 462 150 415 150 356 c 0
 150 256 l 1
 150 0 l 1
 50 0 l 1
 50 550 l 1
 150 550 l 1xb0
 150 506 l 1
 183 540 229 562 281 562 c 0xd0
EndSplineSet
MultipleSubs2: "CCMP cartouches" r cart.hwbody
EndChar

StartChar: s
Encoding: 83 115 166
Width: 500
VWidth: 900
Flags: W
HStem: 0 100<152.47 344.89> 225 100<155.11 344.89> 450 100<155.11 347.53>
VStem: 38 100<341.831 433.845> 362 100<116.155 208.169>
CounterMasks: 1 e0
LayerCount: 2
Fore
SplineSet
200 550 m 2
 300 550 l 2
 381 550 450 492 466 412 c 1
 369 381 l 1
 369 419 338 450 300 450 c 2
 200 450 l 2
 166 450 138 422 138 388 c 0
 138 354 166 325 200 325 c 2
 300 325 l 2
 391 325 462 253 462 162 c 0
 462 71 391 0 300 0 c 2
 200 0 l 2
 119 0 50 58 34 138 c 1
 131 169 l 1
 131 131 162 100 200 100 c 2
 300 100 l 2
 334 100 362 128 362 162 c 0
 362 196 334 225 300 225 c 2
 200 225 l 2
 109 225 38 297 38 388 c 0
 38 479 109 550 200 550 c 2
EndSplineSet
MultipleSubs2: "CCMP cartouches" s cart.hwbody
EndChar

StartChar: t
Encoding: 84 116 167
Width: 500
VWidth: 900
Flags: W
HStem: -12 100<258.097 355.205> 450 100<62 138 238 412>
VStem: 138 100<109.578 450 550 700>
LayerCount: 2
Fore
SplineSet
138 700 m 1
 238 700 l 1
 238 550 l 1
 412 550 l 1
 412 450 l 1
 238 450 l 1
 238 156 l 2
 238 118 268 88 306 88 c 0
 344 88 375 118 375 156 c 1
 472 127 l 1
 458 47 389 -12 306 -12 c 0
 212 -12 138 62 138 156 c 2
 138 450 l 1
 62 450 l 1
 62 550 l 1
 138 550 l 1
 138 700 l 1
EndSplineSet
MultipleSubs2: "CCMP cartouches" t cart.hwbody
EndChar

StartChar: u
Encoding: 85 117 168
Width: 500
VWidth: 900
Flags: W
HStem: -12 100<188.994 307.685> 0 21G<350 450> 530 20G<50 150 350 450>
VStem: 50 100<126.674 550> 350 100<0 41 126.358 550>
LayerCount: 2
Fore
SplineSet
450 0 m 1x78
 350 0 l 1x78
 350 41 l 1
 319 10 273 -12 225 -12 c 0
 128 -12 50 65 50 162 c 2
 50 550 l 1
 150 550 l 1
 150 188 l 2
 150 133 195 88 250 88 c 0xb8
 305 88 350 133 350 188 c 2
 350 550 l 1
 450 550 l 1
 450 0 l 1x78
EndSplineSet
MultipleSubs2: "CCMP cartouches" u cart.hwbody
EndChar

StartChar: v
Encoding: 86 118 169
Width: 500
VWidth: 900
Flags: W
HStem: 0 21G<194.545 305.455> 530 20G<50 157.85 342.15 450>
LayerCount: 2
Fore
SplineSet
50 550 m 1
 153 550 l 1
 250 150 l 1
 347 550 l 1
 450 550 l 1
 300 0 l 1
 200 0 l 1
 50 550 l 1
EndSplineSet
MultipleSubs2: "CCMP cartouches" v cart.hwbody
EndChar

StartChar: w
Encoding: 87 119 170
Width: 500
VWidth: 900
Flags: W
HStem: 0 21G<81.5 204 296 418.5> 532 18G<83 106 375 475>
VStem: 25 100<285.129 550> 375 100<286.289 550>
LayerCount: 2
Fore
SplineSet
25 550 m 1
 25 550 68 552 98 552 c 0
 114 552 125 550 125 550 c 0
 125 427 137 308 162 192 c 1
 200 400 l 1
 238 400 l 1
 300 400 l 1
 341 208 l 1
 364 319 375 431 375 550 c 1
 375 550 418 550 448 550 c 0
 464 550 475 550 475 550 c 1
 475 358 446 173 391 0 c 1
 300 0 l 1
 250 250 l 1
 200 0 l 1
 109 0 l 1
 54 173 25 358 25 550 c 1
EndSplineSet
MultipleSubs2: "CCMP cartouches" w cart.hwbody
EndChar

StartChar: x
Encoding: 88 120 171
Width: 500
VWidth: 900
Flags: W
HStem: 0 21G<38 163.329 336.671 462> 530 20G<38 163.329 336.671 462>
LayerCount: 2
Fore
SplineSet
38 550 m 1
 152 550 l 1
 250 377 l 1
 348 550 l 1
 462 550 l 1
 306 275 l 1
 462 0 l 1
 348 0 l 1
 250 173 l 1
 152 0 l 1
 38 0 l 1
 194 275 l 1
 38 550 l 1
EndSplineSet
MultipleSubs2: "CCMP cartouches" x cart.hwbody
EndChar

StartChar: y
Encoding: 89 121 172
Width: 500
VWidth: 900
Flags: W
HStem: -100 100<55.9002 139.503> 530 20G<38 153.046 346.954 462>
LayerCount: 2
Fore
SplineSet
38 550 m 1
 145 550 l 1
 250 289 l 1
 355 550 l 1
 462 550 l 1
 239 -6 l 2
 216 -62 161 -100 100 -100 c 0
 77 -100 50 -94 30 -83 c 1
 62 19 l 1
 71 8 84 0 100 0 c 0
 120 0 137 12 145 31 c 2
 195 155 l 1
 38 550 l 1
EndSplineSet
MultipleSubs2: "CCMP cartouches" y cart.hwbody
EndChar

StartChar: z
Encoding: 90 122 173
Width: 500
VWidth: 900
Flags: W
HStem: 0 100<177 450> 450 100<50 323>
LayerCount: 2
Fore
SplineSet
50 550 m 1
 450 550 l 1
 450 450 l 1
 177 100 l 1
 450 100 l 1
 450 0 l 1
 50 0 l 1
 50 100 l 1
 323 450 l 1
 50 450 l 1
 50 550 l 1
EndSplineSet
MultipleSubs2: "CCMP cartouches" z cart.hwbody
EndChar

StartChar: zero
Encoding: 16 48 174
Width: 500
VWidth: 910
Flags: W
HStem: -12 100<189.341 310.659> 712 100<189.341 310.659>
VStem: 50 100<128.324 430 558 671.676> 350 100<128.324 230 370 671.676>
LayerCount: 2
Fore
SplineSet
150 430 m 1
 150 188 l 2
 150 133 195 88 250 88 c 0
 305 88 350 133 350 188 c 2
 350 230 l 1
 216 366 l 1
 150 430 l 1
250 712 m 0
 195 712 150 667 150 612 c 2
 150 558 l 1
 284 434 l 1
 350 370 l 1
 350 612 l 2
 350 667 305 712 250 712 c 0
250 812 m 0
 361 812 450 723 450 612 c 2
 450 188 l 2
 450 77 361 -12 250 -12 c 0
 139 -12 50 77 50 188 c 2
 50 612 l 2
 50 723 139 812 250 812 c 0
EndSplineSet
MultipleSubs2: "CCMP cartouches" zero cart.hwbody
EndChar

StartChar: one
Encoding: 17 49 175
Width: 500
VWidth: 900
Flags: W
HStem: 0 100<56 206 306 456> 780 20G<186 306>
VStem: 206 100<100 659>
LayerCount: 2
Fore
SplineSet
206 800 m 1
 306 800 l 1
 306 100 l 1
 456 100 l 1
 456 0 l 1
 306 0 l 1
 206 0 l 1
 56 0 l 1
 56 100 l 1
 206 100 l 1
 206 659 l 1
 56 509 l 1
 56 650 l 1
 206 800 l 1
EndSplineSet
MultipleSubs2: "CCMP cartouches" one cart.hwbody
EndChar

StartChar: two
Encoding: 18 50 176
Width: 500
VWidth: 910
Flags: W
HStem: 0 100<172 450> 712 100<189.713 310.287>
VStem: 50 100<575 670.933> 350 100<505.005 670.933>
LayerCount: 2
Fore
SplineSet
350 562 m 2
 350 612 l 2
 350 667 305 712 250 712 c 0
 195 712 150 667 150 612 c 2
 150 575 l 1
 50 575 l 1
 50 612 l 2
 50 721 141 812 250 812 c 0
 359 812 450 721 450 612 c 2
 450 562 l 2
 450 521 437 482 414 448 c 2
 172 100 l 1
 450 100 l 1
 450 0 l 1
 50 0 l 1
 50 100 l 1
 331 505 l 2
 343 522 350 542 350 562 c 2
EndSplineSet
MultipleSubs2: "CCMP cartouches" two cart.hwbody
EndChar

StartChar: three
Encoding: 19 51 177
Width: 500
VWidth: 910
Flags: W
HStem: -12 100<189.713 310.287> 350 100<212 311.642> 712 100<189.713 310.287>
VStem: 50 100<129.067 225 575 670.933> 350 100<129.067 311.642 488.358 670.933>
CounterMasks: 1 e0
LayerCount: 2
Fore
SplineSet
50 575 m 1
 50 612 l 2
 50 721 141 812 250 812 c 0
 359 812 450 721 450 612 c 2
 450 550 l 2
 450 494 425 438 381 400 c 1
 425 362 450 306 450 250 c 2
 450 188 l 2
 450 79 359 -12 250 -12 c 0
 141 -12 50 79 50 188 c 2
 50 225 l 1
 150 225 l 1
 150 188 l 2
 150 133 195 88 250 88 c 0
 305 88 350 133 350 188 c 1
 350 250 l 1
 350 305 305 350 250 350 c 2
 212 350 l 1
 212 450 l 1
 250 450 l 2
 305 450 350 495 350 550 c 2
 350 612 l 2
 350 667 305 712 250 712 c 0
 195 712 150 667 150 612 c 2
 150 575 l 1
 50 575 l 1
EndSplineSet
MultipleSubs2: "CCMP cartouches" three cart.hwbody
EndChar

StartChar: four
Encoding: 20 52 178
Width: 500
VWidth: 900
Flags: W
HStem: 0 21G<356 456> 200 100<158 356> 780 20G<151.04 256 356 456>
VStem: 356 100<0 200 300 800>
LayerCount: 2
Fore
SplineSet
155 800 m 1
 256 800 l 1
 158 300 l 1
 356 300 l 1
 356 800 l 1
 456 800 l 1
 456 300 l 1
 456 200 l 1
 456 0 l 1
 356 0 l 1
 356 200 l 1
 56 200 l 1
 56 300 l 1
 155 800 l 1
EndSplineSet
MultipleSubs2: "CCMP cartouches" four cart.hwbody
EndChar

StartChar: five
Encoding: 21 53 179
Width: 500
VWidth: 900
Flags: W
HStem: -12 100<189.713 310.287> 400 100<150 308.933> 700 100<150 450>
VStem: 50 100<129.067 188 500 700> 350 100<129.067 358.933>
LayerCount: 2
Fore
SplineSet
450 300 m 2
 450 188 l 2
 450 79 359 -12 250 -12 c 0
 141 -12 50 79 50 188 c 1
 150 188 l 1
 150 133 195 88 250 88 c 0
 305 88 350 133 350 188 c 2
 350 300 l 2
 350 355 305 400 250 400 c 2
 50 400 l 1
 50 800 l 1
 450 800 l 1
 450 700 l 1
 150 700 l 1
 150 500 l 1
 250 500 l 2
 359 500 450 409 450 300 c 2
EndSplineSet
MultipleSubs2: "CCMP cartouches" five cart.hwbody
EndChar

StartChar: six
Encoding: 22 54 180
Width: 500
VWidth: 900
Flags: W
HStem: -12 100<189.713 310.659> 400 100<259 311.47> 780 20G<318.31 450>
VStem: 50 100<129.067 362.396> 350 100<129.067 361.642>
LayerCount: 2
Fore
SplineSet
450 300 m 2
 450 188 l 2
 450 79 361 -12 250 -12 c 0
 141 -12 50 79 50 188 c 2
 50 319 l 2
 50 338 61 375 81 406 c 2
 331 800 l 1
 450 800 l 1
 259 500 l 1
 365 495 450 406 450 300 c 2
250 88 m 0
 305 88 350 133 350 188 c 2
 350 300 l 2
 350 355 305 400 250 400 c 0
 216 400 185 385 166 355 c 0
 157 339 150 318 150 309 c 2
 150 188 l 2
 150 133 195 88 250 88 c 0
EndSplineSet
MultipleSubs2: "CCMP cartouches" six cart.hwbody
EndChar

StartChar: seven
Encoding: 23 55 181
Width: 500
VWidth: 900
Flags: W
HStem: 0 21G<56 174.286> 700 100<56 348>
LayerCount: 2
Fore
SplineSet
56 800 m 1
 456 800 l 1
 456 700 l 1
 166 0 l 1
 56 0 l 1
 348 700 l 1
 56 700 l 1
 56 800 l 1
EndSplineSet
MultipleSubs2: "CCMP cartouches" seven cart.hwbody
EndChar

StartChar: eight
Encoding: 24 56 182
Width: 500
VWidth: 910
Flags: W
HStem: -12 100<189.713 310.287> 412 100<188.358 311.642> 712 100<189.713 310.287>
VStem: 50 100<129.067 373.642 550.192 672.287> 350 100<129.067 373.642 549.588 672.287>
LayerCount: 2
Fore
SplineSet
250 412 m 0
 195 412 150 367 150 312 c 2
 150 188 l 2
 150 133 195 88 250 88 c 0
 305 88 350 133 350 188 c 2
 350 312 l 2
 350 367 305 412 250 412 c 0
250 712 m 0
 195 712 150 667 150 612 c 0
 150 557 195 512 250 512 c 0
 252 512 251 512 253 512 c 0
 308 514 350 557 350 612 c 0
 350 667 305 712 250 712 c 0
250 812 m 0
 359 812 450 721 450 612 c 0
 450 585 443 517 381 462 c 1
 425 424 450 368 450 312 c 1
 450 188 l 1
 450 79 359 -12 250 -12 c 0
 141 -12 50 79 50 188 c 1
 50 312 l 1
 50 368 75 424 119 462 c 1
 72 503 50 560 50 612 c 0
 50 721 141 812 250 812 c 0
EndSplineSet
MultipleSubs2: "CCMP cartouches" eight cart.hwbody
EndChar

StartChar: nine
Encoding: 25 57 183
Width: 500
VWidth: 910
Flags: W
HStem: 0 21G<50 181.69> 300 100<188.53 241> 712 100<189.713 310.287>
VStem: 50 100<438.358 670.933> 350 100<437.604 670.933>
LayerCount: 2
Fore
SplineSet
50 500 m 2
 50 612 l 2
 50 721 141 812 250 812 c 0
 359 812 450 721 450 612 c 2
 450 481 l 2
 450 462 439 425 419 394 c 2
 169 0 l 1
 50 0 l 1
 241 300 l 1
 135 305 50 394 50 500 c 2
250 712 m 0
 195 712 150 667 150 612 c 2
 150 500 l 2
 150 445 195 400 250 400 c 0
 284 400 315 415 334 445 c 0
 343 461 350 482 350 491 c 2
 350 612 l 2
 350 667 305 712 250 712 c 0
EndSplineSet
MultipleSubs2: "CCMP cartouches" nine cart.hwbody
EndChar

StartChar: cart.start
Encoding: 242 989584 184
Width: 500
Flags: W
HStem: -250 100<390.818 500> 950 100<390.818 500>
VStem: 100 100<40.8183 759.182>
LayerCount: 2
Fore
SplineSet
500 -100 m 1025
500 1050 m 1
 500 950 l 1
 334 950 200 816 200 650 c 2
 200 150 l 2
 200 -16 334 -150 500 -150 c 1
 500 -150 500 -193 500 -223 c 0
 500 -239 500 -250 500 -250 c 0
 280 -250 100 -70 100 150 c 2
 100 650 l 2
 100 870 280 1050 500 1050 c 1
EndSplineSet
Ligature2: "LIGA basics" bracketleft
EndChar

StartChar: cart.end
Encoding: 243 989585 185
Width: 500
Flags: W
HStem: -250 100<0 109.182> 950 100<0 109.182>
VStem: 300 100<40.8183 759.182>
LayerCount: 2
Fore
SplineSet
0 1050 m 1
 220 1050 400 870 400 650 c 2
 400 150 l 2
 400 -70 220 -250 0 -250 c 1
 -50 -200 l 1
 0 -150 l 1
 166 -150 300 -16 300 150 c 2
 300 650 l 2
 300 816 166 950 0 950 c 1
 -100 1000 l 1
 0 1050 l 1
EndSplineSet
Ligature2: "LIGA basics" bracketright
EndChar

StartChar: cart.body
Encoding: 244 989586 186
Width: 0
Flags: W
HStem: -250 100<-1000 0> 950 100<-1000 0>
LayerCount: 2
Fore
SplineSet
0 1050 m 1
 0 950 l 1
 -1000 950 l 1
 -1100 1000 l 1
 -1000 1050 l 1
 0 1050 l 1
0 -150 m 1
 0 -250 l 1
 -1000 -250 l 1
 -1100 -200 l 1
 -1000 -150 l 1
 0 -150 l 1
EndSplineSet
EndChar

StartChar: morae.dot
Encoding: 249 989596 187
Width: 500
Flags: W
HStem: 300 200<188.358 311.642>
VStem: 150 200<338.358 461.642>
LayerCount: 2
Fore
SplineSet
150 400 m 0
 150 455 195 500 250 500 c 0
 305 500 350 455 350 400 c 0
 350 345 305 300 250 300 c 0
 195 300 150 345 150 400 c 0
EndSplineSet
MultipleSubs2: "CCMP cartouches" morae.dot cart.hwbody
EndChar

StartChar: morae.colon
Encoding: 250 989597 188
Width: 500
Flags: W
HStem: 125 200<188.358 311.642> 475 200<188.358 311.642>
VStem: 150 200<163.358 286.642 513.358 636.642>
LayerCount: 2
Fore
SplineSet
150 575 m 0
 150 630 195 675 250 675 c 0
 305 675 350 630 350 575 c 0
 350 520 305 475 250 475 c 0
 195 475 150 520 150 575 c 0
150 225 m 0
 150 280 195 325 250 325 c 0
 305 325 350 280 350 225 c 0
 350 170 305 125 250 125 c 0
 195 125 150 170 150 225 c 0
EndSplineSet
Substitution2: "SS20 colon te spacing" morae.colon.hw
Ligature2: "LIGA basics" colon
MultipleSubs2: "CCMP cartouches" morae.colon.hw cart.hwbody
EndChar

StartChar: bracketleft
Encoding: 59 91 189
Width: 500
VWidth: 900
Flags: W
HStem: 0 100<150 450> 700 100<150 450>
VStem: 50 100<100 700>
LayerCount: 2
Fore
SplineSet
450 700 m 1
 150 700 l 1
 150 100 l 1
 450 100 l 1
 450 0 l 1
 50 0 l 1
 50 100 l 1
 50 800 l 1
 450 800 l 1
 450 700 l 1
EndSplineSet
MultipleSubs2: "CCMP cartouches" bracketleft cart.hwbody
EndChar

StartChar: bracketright
Encoding: 61 93 190
Width: 500
VWidth: 900
Flags: W
HStem: 0 100<50 350> 700 100<50 350>
VStem: 350 100<100 700>
LayerCount: 2
Fore
SplineSet
50 700 m 1
 50 800 l 1
 450 800 l 1
 450 100 l 1
 450 0 l 1
 50 0 l 1
 50 100 l 1
 350 100 l 1
 350 700 l 1
 50 700 l 1
EndSplineSet
MultipleSubs2: "CCMP cartouches" bracketright cart.hwbody
EndChar

StartChar: glyph192
Encoding: 14 46 192
Width: 500
VWidth: 0
Flags: W
HStem: -12 150<198.417 301.583>
VStem: 175 150<10.8938 114.059>
LayerCount: 2
Fore
SplineSet
175 62 m 0
 175 103 209 138 250 138 c 0
 291 138 325 103 325 62 c 0
 325 21 291 -12 250 -12 c 0
 209 -12 175 21 175 62 c 0
EndSplineSet
MultipleSubs2: "CCMP cartouches" glyph192 cart.hwbody
EndChar

StartChar: colon
Encoding: 26 58 193
Width: 500
Flags: W
HStem: -12 150<198.417 301.583> 325 150<198.417 301.583>
VStem: 175 150<10.8938 114.059 348.417 451.583>
LayerCount: 2
Fore
SplineSet
175 400 m 0
 175 441 209 475 250 475 c 0
 291 475 325 441 325 400 c 0
 325 359 291 325 250 325 c 0
 209 325 175 359 175 400 c 0
175 62 m 0
 175 103 209 138 250 138 c 0
 291 138 325 103 325 62 c 0
 325 21 291 -12 250 -12 c 0
 209 -12 175 21 175 62 c 0
EndSplineSet
MultipleSubs2: "CCMP cartouches" colon cart.hwbody
EndChar

StartChar: t.namako
Encoding: 221 989560 194
Width: 1000
Flags: W
HStem: 0 100<302 437.286> 780 20G<475 575>
VStem: 275 100<271.406 450> 475 100<575 800> 675 100<337.714 450>
CounterMasks: 1 38
LayerCount: 2
Fore
SplineSet
475 575 m 1
 475 800 l 1
 575 800 l 1
 575 575 l 1
 475 575 l 1
631 561 m 1
 736 759 l 1
 825 714 l 1
 720 516 l 1
 631 561 l 1
419 559 m 1
 330 512 l 1
 225 712 l 1
 314 759 l 1
 419 559 l 1
275 450 m 1
 375 450 l 1
 375 330 350 209 302 100 c 1
 325 100 l 2
 519 100 675 256 675 450 c 1
 775 450 l 1
 775 202 573 0 325 0 c 2
 250 0 l 1
 225 0 l 1
 131 0 l 1
 225 131 275 289 275 450 c 1
EndSplineSet
LCarets2: 5 0 0 0 0 0
MultipleSubs2: "CCMP cartouches" t.namako cart.body
Ligature2: "LIGA basics" n a m a k o
EndChar

StartChar: t.kin
Encoding: 222 989561 195
Width: 1000
Flags: W
VStem: 450 100<-25 88 262 375 462 825>
LayerCount: 2
Fore
SplineSet
300 233 m 1
 350 319 l 1
 450 262 l 1
 450 375 l 1
 550 375 l 1
 550 262 l 1
 650 319 l 1
 700 233 l 1
 600 175 l 1
 700 117 l 1
 650 31 l 1
 550 88 l 1
 550 -25 l 1
 450 -25 l 1
 450 88 l 1
 350 31 l 1
 300 117 l 1
 400 175 l 1
 300 233 l 1
450 462 m 1
 450 825 l 1
 550 825 l 1
 550 462 l 1
 450 462 l 1
EndSplineSet
LCarets2: 2 -75 -75
MultipleSubs2: "CCMP cartouches" t.kin cart.body
Ligature2: "LIGA basics" k i n
EndChar

StartChar: t.oko
Encoding: 223 989562 196
Width: 1000
Flags: W
HStem: 0 21G<786.25 835.112> 780 20G<786.25 835.112>
VStem: 600 100<336.023 460.221> 800 100<299.876 495.344>
LayerCount: 2
Fore
SplineSet
870 89 m 1
 825 0 l 1
 50 400 l 1
 825 800 l 1
 870 711 l 1
 800 673 l 1
 862 600 900 505 900 400 c 0
 900 295 862 200 800 127 c 1
 870 89 l 1
784 497 m 1
 736 491 700 448 700 398 c 0
 700 348 736 306 784 298 c 1
 793 329 800 366 800 400 c 0
 800 434 793 466 784 497 c 1
738 591 m 1
 729 603 719 616 708 627 c 1
 269 400 l 1
 708 173 l 1
 719 184 729 197 738 209 c 1
 658 236 600 311 600 400 c 0
 600 489 658 564 738 591 c 1
EndSplineSet
MultipleSubs2: "CCMP cartouches" t.oko cart.body
Ligature2: "LIGA basics" o k o
EndChar

StartChar: t.kipisi
Encoding: 224 989563 197
Width: 1000
Flags: W
HStem: 100 150<673.417 776.583> 550 150<223.417 326.583>
VStem: 200 150<573.417 676.583> 650 150<123.417 226.583>
LayerCount: 2
Fore
SplineSet
200 625 m 0
 200 666 234 700 275 700 c 0
 316 700 350 666 350 625 c 0
 350 584 316 550 275 550 c 0
 234 550 200 584 200 625 c 0
650 175 m 0
 650 216 684 250 725 250 c 0
 766 250 800 216 800 175 c 0
 800 134 766 100 725 100 c 0
 684 100 650 134 650 175 c 0
200 170 m 1
 730 700 l 1
 800 630 l 1
 270 100 l 1
 200 170 l 1
EndSplineSet
LCarets2: 5 -75 -75 -75 -75 -75
MultipleSubs2: "CCMP cartouches" t.kipisi cart.body
Ligature2: "LIGA basics" k i p i s i
EndChar

StartChar: t.leko
Encoding: 225 989564 198
Width: 1000
Flags: W
HStem: 0 100<200 800> 200 100<400 600> 500 100<400 600> 700 100<200 800>
VStem: 100 100<100 700> 300 100<300 500> 600 100<300 500> 800 100<100 700>
LayerCount: 2
Fore
SplineSet
400 500 m 1
 400 300 l 1
 600 300 l 1
 600 500 l 1
 400 500 l 1
300 600 m 1
 700 600 l 1
 700 200 l 1
 300 200 l 1
 300 600 l 1
200 700 m 1
 200 100 l 1
 800 100 l 1
 800 700 l 1
 200 700 l 1
100 800 m 1
 900 800 l 1
 900 0 l 1
 100 0 l 1
 100 800 l 1
EndSplineSet
MultipleSubs2: "CCMP cartouches" t.leko cart.body
Ligature2: "LIGA basics" l e k o
EndChar

StartChar: t.monsuta
Encoding: 226 989565 199
Width: 1000
Flags: W
HStem: 530 20G<239.091 262.063 737.937 760.909>
LayerCount: 2
Fore
SplineSet
500 650 m 1
 555 533 l 1
 636 361 l 1
 750 550 l 1
 900 275 l 1
 812 227 l 1
 745 348 l 1
 625 150 l 1
 500 416 l 1
 375 150 l 1
 255 348 l 1
 188 227 l 1
 100 275 l 1
 250 550 l 1
 364 361 l 1
 445 533 l 1
 500 650 l 1
EndSplineSet
LCarets2: 6 0 0 0 0 0 0
MultipleSubs2: "CCMP cartouches" t.monsuta cart.body
Ligature2: "LIGA basics" m o n s u t a
EndChar

StartChar: t.tonsi
Encoding: 227 989566 200
Width: 1000
Flags: W
HStem: 130 95<413.927 450 550 586.073> 625 100<412.593 587.407>
VStem: 200 100<338.678 512.734> 450 100<-50 133.892> 700 100<338.678 512.734>
CounterMasks: 1 38
LayerCount: 2
Fore
SplineSet
500 625 m 0
 391 625 300 534 300 425 c 0
 300 316 391 225 500 225 c 0
 609 225 700 316 700 425 c 0
 700 534 609 625 500 625 c 0
145 825 m 1
 312 659 l 1
 364 700 430 725 500 725 c 0
 570 725 636 700 688 659 c 1
 855 825 l 1
 925 755 l 1
 755 584 l 1
 785 539 800 483 800 425 c 0
 800 277 692 153 550 130 c 1
 550 -50 l 1
 450 -50 l 1
 450 130 l 1
 308 153 200 277 200 425 c 0
 200 483 215 539 245 584 c 1
 75 755 l 1
 145 825 l 1
EndSplineSet
LCarets2: 4 -75 -75 -75 -75
MultipleSubs2: "CCMP cartouches" t.tonsi cart.body
Ligature2: "LIGA basics" t o n s i
EndChar

StartChar: t.jasima
Encoding: 228 989567 201
Width: 1000
Flags: W
HStem: 72 100<596.953 751.083> 278 100<248.917 403.047> 422 100<597.306 751.083> 628 100<248.917 403.047>
VStem: 75 100<128 202.316 478 552.316> 450 100<-25 105 213.962 236.038 345 455 563.962 586.038 695 825> 825 100<247.684 322 597.684 672>
CounterMasks: 1 0e
LayerCount: 2
Fore
SplineSet
175 478 m 1
 75 478 l 1
 75 616 187 728 325 728 c 0
 370 728 412 717 450 695 c 1
 450 825 l 1
 550 825 l 1
 550 589 l 1
 578 547 623 522 675 522 c 0
 758 522 825 589 825 672 c 1
 925 672 l 1
 925 534 813 422 675 422 c 0
 655 422 605 424 550 455 c 1
 550 239 l 1
 578 197 623 172 675 172 c 0
 758 172 825 239 825 322 c 1
 925 322 l 1
 925 184 813 72 675 72 c 0
 630 72 588 83 550 105 c 1
 550 -25 l 1
 450 -25 l 1
 450 211 l 1
 422 253 377 278 325 278 c 0
 242 278 175 211 175 128 c 1
 75 128 l 1
 75 266 187 378 325 378 c 0
 370 378 412 367 450 345 c 1
 450 561 l 1
 422 603 377 628 325 628 c 0
 242 628 175 561 175 478 c 1
EndSplineSet
LCarets2: 5 -75 -75 -75 -75 -75
MultipleSubs2: "CCMP cartouches" t.jasima cart.body
Ligature2: "LIGA basics" j a s i m a
EndChar

StartChar: t.soko
Encoding: 230 989569 202
Width: 1000
Flags: W
HStem: 150 100<300 450 550 700> 400 100<205 450 550 795> 750 100<389.348 610.652>
VStem: 450 100<-25 150 250 400>
LayerCount: 2
Fore
SplineSet
100 400 m 1
 100 450 l 2
 100 672 278 850 500 850 c 0
 722 850 900 672 900 450 c 2
 900 400 l 1
 550 400 l 1
 550 250 l 1
 700 250 l 1
 700 150 l 1
 550 150 l 1
 550 -25 l 1
 450 -25 l 1
 450 150 l 1
 300 150 l 1
 300 250 l 1
 450 250 l 1
 450 400 l 1
 100 400 l 1
205 500 m 1
 795 500 l 1
 772 642 648 750 500 750 c 0
 352 750 228 642 205 500 c 1
EndSplineSet
LCarets2: 3 -75 -75 -75
MultipleSubs2: "CCMP cartouches" t.soko cart.body
Ligature2: "LIGA basics" s o k o
EndChar

StartChar: t.kijetesantakalu
Encoding: 229 989568 203
Width: 1000
Flags: W
HStem: -50 100<191.067 250 350 441> 250 100<191.067 250> 419 112<492.645 582.994> 469 112<629.371 720.086> 750 100<540.818 700>
VStem: 50 100<89.7125 210.287> 250 100<50 250 350 559.182> 481 113<429.924 501.624> 600 100<-50 250> 619 112<479.371 551.624> 700 100<700 750> 750 100<-50 400>
LayerCount: 2
Fore
SplineSet
600 250 m 1xcf80
 700 250 l 1
 700 -50 l 1
 600 -50 l 1
 600 250 l 1xcf80
250 250 m 1
 195 250 150 205 150 150 c 0
 150 95 195 50 250 50 c 1
 250 250 l 1
541 531 m 2xef
 561 529 579 519 588 502 c 0
 593 494 594 484 594 475 c 0
 594 453 583 434 564 425 c 0
 556 420 547 419 538 419 c 0
 516 419 497 429 488 448 c 0
 483 456 481 466 481 475 c 0
 481 497 493 516 512 525 c 0
 520 530 529 531 538 531 c 0
 540 531 539 531 541 531 c 2xef
678 581 m 2xdf40
 698 579 716 569 725 552 c 0
 730 544 731 534 731 525 c 0
 731 503 721 484 702 475 c 0
 694 470 684 469 675 469 c 0
 653 469 634 479 625 498 c 0
 620 506 619 516 619 525 c 0
 619 547 629 566 648 575 c 0
 656 580 666 581 675 581 c 0
 677 581 676 581 678 581 c 2xdf40
650 850 m 2
 700 850 l 1
 800 850 l 1
 800 750 l 1
 800 700 l 1xdf20
 889 581 l 1
 950 500 l 1
 850 400 l 1
 850 -50 l 1
 750 -50 l 1
 750 323 l 1
 750 441 l 1xdf10
 819 509 l 1
 700 667 l 1
 700 750 l 1xdf20
 650 750 l 2
 484 750 350 616 350 450 c 2
 350 50 l 1
 441 50 l 1
 425 250 l 1
 525 250 l 1
 550 -50 l 1
 525 -50 l 1
 350 -50 l 1
 250 -50 l 2
 141 -50 50 41 50 150 c 0
 50 259 141 350 250 350 c 1
 250 450 l 2
 250 670 430 850 650 850 c 2
EndSplineSet
LCarets2: 14 -75 -75 -75 -75 -75 -75 -75 -75 -75 -75 -75 -75 -75 -75
MultipleSubs2: "CCMP cartouches" t.kijetesantakalu cart.body
Ligature2: "LIGA basics" k i j e t e s a n t a k a l u
EndChar

StartChar: t.meso
Encoding: 231 989570 204
Width: 1000
Flags: W
HStem: 0 21G<200 300 700 800> 325 150<446.75 553.25> 780 20G<200 300 700 800>
VStem: 200 100<0 800> 425 150<346.75 453.25> 700 100<0 800>
CounterMasks: 1 1c
LayerCount: 2
Fore
SplineSet
425 400 m 0
 425 442 458 475 500 475 c 0
 542 475 575 442 575 400 c 0
 575 358 542 325 500 325 c 0
 458 325 425 358 425 400 c 0
200 0 m 1
 200 800 l 1
 300 800 l 1
 300 0 l 1
 200 0 l 1
700 0 m 1
 700 800 l 1
 800 800 l 1
 800 0 l 1
 700 0 l 1
EndSplineSet
LCarets2: 3 -75 -75 -75
MultipleSubs2: "CCMP cartouches" t.meso cart.body
Ligature2: "LIGA basics" m e s o
EndChar

StartChar: t.epiku
Encoding: 232 989571 205
Width: 1000
Flags: W
HStem: 25 100<403.681 596.319> 550 21G<450 550>
VStem: 150 100<279.643 375> 450 100<550 775> 750 100<279.643 375>
CounterMasks: 1 38
LayerCount: 2
Fore
SplineSet
450 550 m 1
 450 775 l 1
 550 775 l 1
 550 550 l 1
 450 550 l 1
609 530 m 1
 745 709 l 1
 825 650 l 1
 691 470 l 1
 609 530 l 1
391 530 m 1
 309 470 l 1
 175 650 l 1
 255 709 l 1
 391 530 l 1
500 25 m 0
 308 25 150 183 150 375 c 1
 150 375 161 375 175 375 c 0
 205 375 250 375 250 375 c 1
 250 237 362 125 500 125 c 0
 638 125 750 237 750 375 c 1
 750 375 763 375 777 375 c 0
 807 375 850 375 850 375 c 1
 850 183 692 25 500 25 c 0
EndSplineSet
LCarets2: 4 -75 -75 -75 -75
MultipleSubs2: "CCMP cartouches" t.epiku cart.body
Ligature2: "LIGA basics" e p i k u
EndChar

StartChar: t.kokosila
Encoding: 233 989572 206
Width: 1000
Flags: W
HStem: -25 100<412.25 590.309> 475 100<409.691 590.9> 559 21G<286.8 333.918 666.082 713.2>
VStem: 200 100<231.469 365.309> 450 100<625 825> 700 100<184.691 338.154>
CounterMasks: 1 1c
LayerCount: 2
Fore
SplineSet
350 144 m 1x9c
 386 102 441 75 500 75 c 0
 611 75 700 164 700 275 c 0
 700 297 697 320 691 339 c 1
 350 144 l 1x9c
211 62 m 1
 161 150 l 1
 216 181 l 1
 205 211 200 242 200 275 c 0
 200 441 334 575 500 575 c 0xdc
 589 575 668 534 723 473 c 1
 789 512 l 1
 839 425 l 1
 778 389 l 1
 792 355 800 316 800 275 c 0
 800 109 666 -25 500 -25 c 0
 403 -25 317 20 262 92 c 1
 211 62 l 1
450 625 m 1
 450 825 l 1
 550 825 l 1
 550 625 l 1
 450 625 l 1
614 608 m 1
 712 783 l 1
 800 734 l 1
 702 559 l 1xbc
 614 608 l 1
386 608 m 1
 298 559 l 1
 200 734 l 1
 288 783 l 1
 386 608 l 1
500 475 m 0xdc
 389 475 300 386 300 275 c 0
 300 261 302 245 305 231 c 1
 634 423 l 1
 600 456 552 475 500 475 c 0xdc
EndSplineSet
LCarets2: 7 -75 -75 -75 -75 -75 -75 -75
MultipleSubs2: "CCMP cartouches" t.kokosila cart.body
Ligature2: "LIGA basics" k o k o s i l a
EndChar

StartChar: t.lanpan
Encoding: 234 989573 207
Width: 1000
Flags: W
HStem: -50 100<239.341 360.659> 75 150<594.75 701.25> 300 100<573.917 726.083> 450 100<436.097 559.659> 750 100<438.324 559.642>
VStem: 100 100<89.3412 299.777> 298 100<609.312 710.659> 400 100<90.3245 224.316> 573 150<96.75 203.25> 598 102<589.341 710.659> 800 100<74.2295 226.083>
LayerCount: 2
Fore
SplineSet
498 850 m 2xff60
 500 850 l 2
 611 850 700 761 700 650 c 0
 700 539 611 450 500 450 c 0
 438 450 381 479 345 523 c 1
 251 421 200 288 200 150 c 0
 200 95 245 50 300 50 c 0
 355 50 400 95 400 150 c 0
 400 288 512 400 650 400 c 0
 788 400 900 288 900 150 c 0
 900 72 862 -3 800 -50 c 1
 739 30 l 1
 777 58 800 103 800 150 c 0
 800 233 733 300 650 300 c 0
 567 300 500 233 500 150 c 0
 500 39 411 -50 300 -50 c 0
 189 -50 100 39 100 150 c 0
 100 328 174 500 302 622 c 1
 299 631 298 639 298 650 c 0
 298 761 387 850 498 850 c 2xff60
498 750 m 0
 443 750 398 705 398 650 c 0
 398 595 443 550 498 550 c 0
 553 550 598 595 598 650 c 0
 598 705 553 750 498 750 c 0
648 225 m 0
 690 225 723 192 723 150 c 0
 723 108 690 75 648 75 c 0
 606 75 573 108 573 150 c 0xffa0
 573 192 606 225 648 225 c 0
EndSplineSet
LCarets2: 5 -75 -75 -75 -75 -75
MultipleSubs2: "CCMP cartouches" t.lanpan cart.body
Ligature2: "LIGA basics" l a n p a n
EndChar

StartChar: t.n
Encoding: 235 989574 208
Width: 1000
Flags: W
HStem: 262 100<439.341 560.659>
VStem: 300 100<-25 221.676> 450 100<450 825> 600 100<-25 221.676>
CounterMasks: 1 70
LayerCount: 2
Fore
SplineSet
450 450 m 1
 450 825 l 1
 550 825 l 1
 550 450 l 1
 450 450 l 1
500 362 m 0
 611 362 700 273 700 162 c 2
 700 -25 l 1
 600 -25 l 1
 600 162 l 2
 600 217 555 262 500 262 c 0
 445 262 400 217 400 162 c 2
 400 -25 l 1
 300 -25 l 1
 300 162 l 2
 300 273 389 362 500 362 c 0
EndSplineSet
MultipleSubs2: "CCMP cartouches" t.n cart.body
Ligature2: "LIGA basics" n
EndChar

StartChar: t.misikeke
Encoding: 236 989575 209
Width: 1000
Flags: W
HStem: -25 100<431.844 568.156> 350 100<375 625> 725 100<431.844 568.156>
VStem: 275 100<133.561 350 450 666.439> 625 100<133.561 350 450 666.439>
CounterMasks: 1 e0
LayerCount: 2
Fore
SplineSet
500 825 m 0
 623 825 725 723 725 600 c 2
 725 200 l 2
 725 77 623 -25 500 -25 c 0
 377 -25 275 77 275 200 c 2
 275 600 l 2
 275 723 377 825 500 825 c 0
500 725 m 0
 431 725 375 669 375 600 c 2
 375 450 l 1
 625 450 l 1
 625 600 l 2
 625 669 569 725 500 725 c 0
375 350 m 1
 375 200 l 2
 375 131 431 75 500 75 c 0
 569 75 625 131 625 200 c 2
 625 350 l 1
 375 350 l 1
EndSplineSet
LCarets2: 7 -75 -75 -75 -75 -75 -75 -75
MultipleSubs2: "CCMP cartouches" t.misikeke cart.body
Ligature2: "LIGA basics" m i s i k e k e
EndChar

StartChar: t.ku
Encoding: 237 989576 210
Width: 1000
Flags: W
HStem: 0 100<275 450 553 725> 175 150<571.75 678.25> 700 100<275 512>
VStem: 175 100<100 700> 550 150<196.75 303.25> 725 100<100 375 478 700>
LayerCount: 2
Fore
SplineSet
175 800 m 1
 825 800 l 1
 825 0 l 1
 175 0 l 1
 175 800 l 1
275 700 m 1
 275 100 l 1
 450 100 l 1
 325 600 l 1
 512 700 l 1
 275 700 l 1
725 700 m 1
 441 550 l 1
 725 478 l 1
 725 700 l 1
469 439 m 1
 553 100 l 1
 725 100 l 1
 725 375 l 1
 469 439 l 1
625 325 m 0
 667 325 700 292 700 250 c 0
 700 208 667 175 625 175 c 0
 583 175 550 208 550 250 c 0
 550 292 583 325 625 325 c 0
EndSplineSet
LCarets2: 1 -75
MultipleSubs2: "CCMP cartouches" t.ku cart.body
Ligature2: "LIGA basics" k u
EndChar

StartChar: t.pake
Encoding: 252 989600 211
Width: 1000
Flags: W
HStem: 0 21G<450 550> 700 100<150 450 550 850>
VStem: 450 100<0 700>
LayerCount: 2
Fore
SplineSet
150 700 m 1
 150 800 l 1
 850 800 l 1
 850 700 l 1
 550 700 l 1
 550 0 l 1
 450 0 l 1
 450 700 l 1
 150 700 l 1
EndSplineSet
LCarets2: 3 -75 -75 -75
MultipleSubs2: "CCMP cartouches" t.pake cart.body
Ligature2: "LIGA basics" p a k e
EndChar

StartChar: t.apeja
Encoding: 253 989601 212
Width: 1000
Flags: W
HStem: -50 100<447.29 552.71> 200 100<447.29 552.71> 500 100<172.29 277.71 722.29 827.71> 530 20G<470.487 529.513> 750 100<172.29 277.71 722.29 827.71>
VStem: 50 100<622.29 727.71> 300 100<622.29 727.71> 325 100<72.2902 177.71> 575 100<72.2902 177.71> 600 100<622.29 727.71> 850 100<622.29 727.71>
LayerCount: 2
Fore
SplineSet
500 550 m 1xdc20
 894 283 l 1
 838 200 l 1
 500 430 l 1
 162 200 l 1
 106 283 l 1
 500 550 l 1xdc20
225 850 m 0
 322 850 400 772 400 675 c 0
 400 578 322 500 225 500 c 0xee20
 128 500 50 578 50 675 c 0
 50 772 128 850 225 850 c 0
225 750 m 0
 183 750 150 717 150 675 c 0
 150 633 183 600 225 600 c 0
 267 600 300 633 300 675 c 0
 300 717 267 750 225 750 c 0
500 300 m 0
 597 300 675 222 675 125 c 0
 675 28 597 -50 500 -50 c 0
 403 -50 325 28 325 125 c 0xcda0
 325 222 403 300 500 300 c 0
500 200 m 0
 458 200 425 167 425 125 c 0
 425 83 458 50 500 50 c 0
 542 50 575 83 575 125 c 0
 575 167 542 200 500 200 c 0
775 850 m 0
 872 850 950 772 950 675 c 0
 950 578 872 500 775 500 c 0
 678 500 600 578 600 675 c 0xec60
 600 772 678 850 775 850 c 0
775 750 m 0
 733 750 700 717 700 675 c 0
 700 633 733 600 775 600 c 0
 817 600 850 633 850 675 c 0
 850 717 817 750 775 750 c 0
EndSplineSet
MultipleSubs2: "CCMP cartouches" t.apeja cart.body
Ligature2: "LIGA basics" a p e j a
EndChar

StartChar: t.majuna
Encoding: 254 989602 213
Width: 1000
Flags: W
HStem: 200 100<100 350 650 900>
VStem: 450 100<400 650>
LayerCount: 2
Fore
SplineSet
650 200 m 1
 650 300 l 1
 900 300 l 1
 900 200 l 1
 650 200 l 1
570 392 m 1
 747 567 l 1
 817 497 l 1
 642 320 l 1
 570 392 l 1
430 392 m 1
 358 320 l 1
 183 497 l 1
 253 567 l 1
 430 392 l 1
450 650 m 1
 550 650 l 1
 550 400 l 1
 450 400 l 1
 450 650 l 1
100 200 m 1
 100 300 l 1
 350 300 l 1
 350 200 l 1
 100 200 l 1
EndSplineSet
LCarets2: 5 -75 -75 -75 -75 -75
MultipleSubs2: "CCMP cartouches" t.majuna cart.body
Ligature2: "LIGA basics" m a j u n a
EndChar

StartChar: t.powe
Encoding: 255 989603 214
Width: 1000
Flags: W
HStem: 150 100<100 900>
LayerCount: 2
Fore
SplineSet
100 150 m 1
 100 250 l 1
 900 250 l 1
 900 150 l 1
 100 150 l 1
394 677 m 1
 500 570 l 1
 606 677 l 1
 677 606 l 1
 570 500 l 1
 677 394 l 1
 606 323 l 1
 500 430 l 1
 394 323 l 1
 323 394 l 1
 430 500 l 1
 323 606 l 1
 394 677 l 1
EndSplineSet
LCarets2: 3 -75 -75 -75
MultipleSubs2: "CCMP cartouches" t.powe cart.body
Ligature2: "LIGA basics" p o w e
EndChar

StartChar: morae.dotdot
Encoding: 280 -1 215
Width: 1000
Flags: W
HStem: 300 200<263.358 386.642 613.358 736.642>
VStem: 225 200<338.358 461.642> 575 200<338.358 461.642>
LayerCount: 2
Fore
SplineSet
675 500 m 0
 730 500 775 455 775 400 c 0
 775 345 730 300 675 300 c 0
 620 300 575 345 575 400 c 0
 575 455 620 500 675 500 c 0
325 500 m 0
 380 500 425 455 425 400 c 0
 425 345 380 300 325 300 c 0
 270 300 225 345 225 400 c 0
 225 455 270 500 325 500 c 0
EndSplineSet
Ligature2: "LIGA basics" morae.dot morae.dot
LCarets2: 1 0
MultipleSubs2: "CCMP cartouches" morae.dotdot cart.body
Ligature2: "LIGA basics" glyph192 glyph192
EndChar

StartChar: morae.dotdotdot
Encoding: 281 -1 216
Width: 1000
Flags: W
HStem: 300 200<138.358 261.642 438.358 561.642 738.358 861.642>
VStem: 100 200<338.358 461.642> 400 200<338.358 461.642> 700 200<338.358 461.642>
CounterMasks: 1 70
LayerCount: 2
Fore
SplineSet
200 500 m 0
 255 500 300 455 300 400 c 0
 300 345 255 300 200 300 c 0
 145 300 100 345 100 400 c 0
 100 455 145 500 200 500 c 0
800 500 m 0
 855 500 900 455 900 400 c 0
 900 345 855 300 800 300 c 0
 745 300 700 345 700 400 c 0
 700 455 745 500 800 500 c 0
500 500 m 0
 555 500 600 455 600 400 c 0
 600 345 555 300 500 300 c 0
 445 300 400 345 400 400 c 0
 400 455 445 500 500 500 c 0
EndSplineSet
Ligature2: "LIGA basics" morae.dot morae.dot morae.dot
LCarets2: 2 0 0
MultipleSubs2: "CCMP cartouches" morae.dotdotdot cart.body
Ligature2: "LIGA basics" glyph192 glyph192 glyph192
EndChar

StartChar: exclam
Encoding: 1 33 217
Width: 500
Flags: W
HStem: 0 150<198.417 301.583>
VStem: 175 150<23.4173 126.583> 200 100<212 812>
LayerCount: 2
Fore
SplineSet
175 75 m 0xc0
 175 116 209 150 250 150 c 0
 291 150 325 116 325 75 c 0
 325 34 291 0 250 0 c 0
 209 0 175 34 175 75 c 0xc0
200 212 m 1xa0
 200 812 l 1
 300 812 l 1
 300 212 l 1
 200 212 l 1xa0
EndSplineSet
MultipleSubs2: "CCMP cartouches" exclam cart.hwbody
EndChar

StartChar: quotedbl
Encoding: 2 34 218
Width: 500
Flags: W
HStem: 612 200<100 200 300 400>
VStem: 100 100<612 812> 300 100<612 812>
LayerCount: 2
Fore
SplineSet
100 612 m 1
 100 812 l 1
 200 812 l 1
 200 612 l 1
 100 612 l 1
300 612 m 1
 300 812 l 1
 400 812 l 1
 400 612 l 1
 300 612 l 1
EndSplineSet
MultipleSubs2: "CCMP cartouches" quotedbl cart.hwbody
EndChar

StartChar: numbersign
Encoding: 3 35 219
Width: 500
Flags: W
HStem: 212 100<38 100 200 300 400 462> 512 100<38 100 200 300 400 462>
VStem: 100 100<12 212 312 512 612 812> 300 100<12 212 312 512 612 812>
LayerCount: 2
Fore
SplineSet
200 312 m 1
 300 312 l 1
 300 512 l 1
 200 512 l 1
 200 312 l 1
100 212 m 1
 38 212 l 1
 38 312 l 1
 100 312 l 1
 100 512 l 1
 38 512 l 1
 38 612 l 1
 100 612 l 1
 100 812 l 1
 200 812 l 1
 200 612 l 1
 300 612 l 1
 300 812 l 1
 400 812 l 1
 400 612 l 1
 462 612 l 1
 462 512 l 1
 400 512 l 1
 400 312 l 1
 462 312 l 1
 462 212 l 1
 400 212 l 1
 400 12 l 1
 300 12 l 1
 300 212 l 1
 200 212 l 1
 200 12 l 1
 100 12 l 1
 100 212 l 1
EndSplineSet
MultipleSubs2: "CCMP cartouches" numbersign cart.hwbody
EndChar

StartChar: dollar
Encoding: 4 36 220
Width: 500
Flags: W
HStem: 0 21G<200 300> 562 21G<350 450>
VStem: 50 100<203.151 262 501.642 622.772> 200 100<0 75.1452 177 348 477 648 749.837 825> 350 100<201.642 322.772 562 620.972>
CounterMasks: 1 38
LayerCount: 2
Fore
SplineSet
200 477 m 1
 200 648 l 1
 170 631 150 600 150 562 c 0
 150 524 170 494 200 477 c 1
300 348 m 1
 300 177 l 1
 330 194 350 224 350 262 c 0
 350 300 330 331 300 348 c 1
200 756 m 1
 200 825 l 1
 300 825 l 1
 300 756 l 1
 386 734 450 656 450 562 c 1
 350 562 l 1
 350 600 330 631 300 648 c 1
 300 456 l 1
 386 434 450 356 450 262 c 0
 450 168 386 91 300 69 c 1
 300 0 l 1
 200 0 l 1
 200 69 l 1
 114 91 50 168 50 262 c 1
 150 262 l 1
 150 224 170 194 200 177 c 1
 200 369 l 1
 114 391 50 468 50 562 c 0
 50 656 114 734 200 756 c 1
EndSplineSet
MultipleSubs2: "CCMP cartouches" dollar cart.hwbody
EndChar

StartChar: percent
Encoding: 5 37 221
Width: 500
Flags: W
HStem: 0 188<309.172 428.421> 638 187<71.5786 190.828>
VStem: 38 187<671.579 790.828> 275 187<34.1719 153.828>
LayerCount: 2
Fore
SplineSet
355 812 m 1
 462 812 l 1
 145 12 l 1
 38 12 l 1
 355 812 l 1
38 731 m 0
 38 783 79 825 131 825 c 0
 183 825 225 783 225 731 c 0
 225 679 183 638 131 638 c 0
 79 638 38 679 38 731 c 0
275 94 m 0
 275 146 317 188 369 188 c 0
 421 188 462 146 462 94 c 0
 462 42 421 0 369 0 c 0
 317 0 275 42 275 94 c 0
EndSplineSet
MultipleSubs2: "CCMP cartouches" percent cart.hwbody
EndChar

StartChar: ampersand
Encoding: 6 38 222
Width: 500
Flags: W
HStem: 0 100<186.045 291.629> 725 100<150.635 237.365>
VStem: 38 100<148.045 281.977 611.157 712.365> 250 100<612.977 712.365> 362 100<195.778 425>
LayerCount: 2
Fore
SplineSet
194 825 m 0
 280 825 350 755 350 669 c 0
 350 642 343 617 331 594 c 2
 244 436 l 1
 361 195 l 1
 363 201 362 206 362 212 c 2
 362 425 l 1
 462 425 l 1
 462 212 l 2
 462 162 447 117 417 81 c 1
 450 12 l 1
 339 12 l 1
 336 19 l 1
 309 7 281 0 250 0 c 0
 133 0 38 95 38 212 c 0
 38 248 47 285 64 316 c 2
 131 439 l 1
 53 600 l 2
 44 620 38 646 38 669 c 0
 38 755 108 825 194 825 c 0
194 725 m 0
 163 725 138 700 138 669 c 0
 138 660 139 652 144 644 c 2
 191 545 l 1
 244 642 l 2
 249 650 250 660 250 669 c 0
 250 700 225 725 194 725 c 0
184 330 m 1
 152 267 l 2
 143 250 138 231 138 212 c 0
 138 150 188 100 250 100 c 0
 266 100 280 103 292 108 c 1
 184 330 l 1
EndSplineSet
MultipleSubs2: "CCMP cartouches" ampersand cart.hwbody
EndChar

StartChar: quotesingle
Encoding: 7 39 223
Width: 500
Flags: W
HStem: 612 200<200 300>
VStem: 200 100<612 812>
LayerCount: 2
Fore
SplineSet
200 612 m 1
 200 812 l 1
 300 812 l 1
 300 612 l 1
 200 612 l 1
EndSplineSet
MultipleSubs2: "CCMP cartouches" quotesingle cart.hwbody
EndChar

StartChar: parenleft
Encoding: 8 40 224
Width: 500
Flags: W
HStem: -12 21G<266 338>
VStem: 100 100<282.906 541.462>
LayerCount: 2
Fore
SplineSet
338 838 m 1
 391 753 l 1
 277 683 200 556 200 412 c 0
 200 173 391 77 391 72 c 0
 391 70 338 -12 338 -12 c 1
 194 76 100 232 100 412 c 0
 100 592 194 750 338 838 c 1
EndSplineSet
MultipleSubs2: "CCMP cartouches" parenleft cart.hwbody
EndChar

StartChar: parenright
Encoding: 9 41 225
Width: 500
Flags: W
HStem: -12 21G<162.381 247>
VStem: 312 100<282.81 541.462>
LayerCount: 2
Fore
SplineSet
175 838 m 1
 319 750 412 592 412 412 c 0
 412 232 319 76 175 -12 c 1
 122 72 l 1
 236 142 312 268 312 412 c 0
 312 556 236 683 122 753 c 1
 175 838 l 1
EndSplineSet
MultipleSubs2: "CCMP cartouches" parenright cart.hwbody
EndChar

StartChar: asterisk
Encoding: 10 42 226
Width: 500
Flags: W
VStem: 200 100<412 538 688 812>
LayerCount: 2
Fore
SplineSet
200 812 m 1
 300 812 l 1
 300 688 l 1
 398 756 l 1
 448 669 l 1
 338 612 l 1
 448 556 l 1
 398 469 l 1
 300 538 l 1
 300 412 l 1
 200 412 l 1
 200 538 l 1
 102 469 l 1
 52 556 l 1
 162 612 l 1
 52 669 l 1
 102 756 l 1
 200 688 l 1
 200 812 l 1
EndSplineSet
MultipleSubs2: "CCMP cartouches" asterisk cart.hwbody
EndChar

StartChar: plus
Encoding: 11 43 227
Width: 500
Flags: W
HStem: 362 100<50 200 300 450>
VStem: 200 100<212 362 462 612>
LayerCount: 2
Fore
SplineSet
200 612 m 1
 300 612 l 1
 300 462 l 1
 450 462 l 1
 450 362 l 1
 300 362 l 1
 300 212 l 1
 200 212 l 1
 200 362 l 1
 50 362 l 1
 50 462 l 1
 200 462 l 1
 200 612 l 1
EndSplineSet
MultipleSubs2: "CCMP cartouches" plus cart.hwbody
EndChar

StartChar: comma
Encoding: 12 44 228
Width: 500
Flags: W
HStem: -38 176<188 238>
VStem: 188 124<-54.6486 -38>
LayerCount: 2
Fore
SplineSet
188 138 m 1
 312 138 l 1
 238 -38 l 1
 188 -38 l 1
 188 138 l 1
EndSplineSet
MultipleSubs2: "CCMP cartouches" comma cart.hwbody
EndChar

StartChar: hyphen
Encoding: 13 45 229
Width: 500
Flags: W
HStem: 362 100<50 450>
LayerCount: 2
Fore
SplineSet
50 362 m 1
 50 462 l 1
 450 462 l 1
 450 362 l 1
 50 362 l 1
EndSplineSet
MultipleSubs2: "CCMP cartouches" hyphen cart.hwbody
EndChar

StartChar: slash
Encoding: 15 47 230
Width: 500
Flags: W
HStem: 0 21G<38 152.925> 780 20G<347.075 462>
LayerCount: 2
Fore
SplineSet
355 800 m 1
 462 800 l 1
 145 0 l 1
 38 0 l 1
 355 800 l 1
EndSplineSet
MultipleSubs2: "CCMP cartouches" slash cart.hwbody
EndChar

StartChar: less
Encoding: 28 60 231
Width: 500
Flags: W
LayerCount: 2
Fore
SplineSet
450 616 m 1
 450 509 l 1
 191 412 l 1
 450 316 l 1
 450 209 l 1
 50 359 l 1
 50 466 l 1
 450 616 l 1
EndSplineSet
MultipleSubs2: "CCMP cartouches" less cart.hwbody
EndChar

StartChar: equal
Encoding: 29 61 232
Width: 500
VWidth: 900
Flags: W
HStem: 250 100<50 450> 450 100<50 450>
LayerCount: 2
Fore
SplineSet
50 450 m 1
 50 550 l 1
 450 550 l 1
 450 450 l 1
 50 450 l 1
50 250 m 1
 50 350 l 1
 450 350 l 1
 450 250 l 1
 50 250 l 1
EndSplineSet
MultipleSubs2: "CCMP cartouches" equal cart.hwbody
EndChar

StartChar: greater
Encoding: 30 62 233
Width: 500
VWidth: 900
Flags: W
LayerCount: 2
Fore
SplineSet
50 605 m 1
 450 455 l 1
 450 345 l 1
 50 195 l 1
 50 197 l 1
 50 303 l 1
 309 400 l 1
 50 497 l 1
 50 605 l 1
EndSplineSet
MultipleSubs2: "CCMP cartouches" greater cart.hwbody
EndChar

StartChar: question
Encoding: 31 63 234
Width: 500
VWidth: 925
Flags: W
HStem: 0 150<185.941 289.106> 725 100<173.83 301.955>
VStem: 25 100<612 675.103> 162 150<23.4173 126.583> 188 100<212 375.27> 350 100<509.763 675.103>
LayerCount: 2
Fore
SplineSet
238 825 m 0xec
 355 825 450 729 450 612 c 2
 450 575 l 2
 450 475 382 391 288 369 c 1
 288 212 l 1
 188 212 l 1
 188 462 l 1
 238 462 l 2
 300 462 350 513 350 575 c 2
 350 612 l 2
 350 674 300 725 238 725 c 0
 176 725 125 674 125 612 c 1
 25 612 l 1
 25 729 121 825 238 825 c 0xec
238 150 m 0
 279 150 312 116 312 75 c 0
 312 34 279 0 238 0 c 0
 197 0 162 33 162 75 c 0xf4
 162 116 197 150 238 150 c 0
EndSplineSet
MultipleSubs2: "CCMP cartouches" question cart.hwbody
EndChar

StartChar: at
Encoding: 32 64 235
Width: 500
VWidth: 910
Flags: W
HStem: -12 612<88.3579 210.642> -12 74<258.938 341.238> 712 100<58.6807 237.7>
VStem: 50 200<70.4375 561.642> 350 100<72.0297 598.073>
LayerCount: 2
Fore
SplineSet
150 812 m 0x78
 316 812 450 678 450 512 c 2
 450 112 l 2
 450 43 394 -12 325 -12 c 0x78
 287 -12 254 3 231 30 c 1
 212 5 184 -12 150 -12 c 0
 95 -12 50 33 50 88 c 2
 50 500 l 2
 50 555 95 600 150 600 c 0xb8
 205 600 250 555 250 500 c 2
 250 112 l 2
 250 84 272 62 300 62 c 0
 328 62 350 84 350 112 c 2
 350 112 350 290 350 409 c 0
 350 468 350 512 350 512 c 1
 350 621 259 712 150 712 c 0
 114 712 80 703 50 686 c 1
 50 795 l 1
 81 806 116 812 150 812 c 0x78
EndSplineSet
MultipleSubs2: "CCMP cartouches" at cart.hwbody
EndChar

StartChar: semicolon
Encoding: 27 59 236
Width: 500
VWidth: 900
Flags: W
HStem: 325 150<198.417 301.583>
VStem: 175 150<348.417 451.583>
LayerCount: 2
Fore
SplineSet
175 400 m 0
 175 441 209 475 250 475 c 0
 291 475 325 441 325 400 c 0
 325 359 291 325 250 325 c 0
 209 325 175 359 175 400 c 0
188 125 m 1
 312 125 l 1
 238 -50 l 1
 188 -50 l 1
 188 125 l 1
EndSplineSet
MultipleSubs2: "CCMP cartouches" semicolon cart.hwbody
EndChar

StartChar: backslash
Encoding: 60 92 237
Width: 500
Flags: W
HStem: 0 21G<347.075 462> 780 20G<38 152.925>
LayerCount: 2
Fore
SplineSet
145 800 m 1
 462 0 l 1
 355 0 l 1
 38 800 l 1
 145 800 l 1
EndSplineSet
MultipleSubs2: "CCMP cartouches" backslash cart.hwbody
EndChar

StartChar: asciicircum
Encoding: 62 94 238
Width: 500
VWidth: 900
Flags: W
HStem: 780 20G<192.5 315.5>
LayerCount: 2
Fore
SplineSet
458 400 m 1
 352 400 l 1
 255 659 l 1
 156 400 l 1
 52 400 l 1
 50 400 l 1
 200 800 l 1
 308 800 l 1
 458 400 l 1
EndSplineSet
MultipleSubs2: "CCMP cartouches" asciicircum cart.hwbody
EndChar

StartChar: underscore
Encoding: 63 95 239
Width: 500
VWidth: 900
Flags: W
HStem: 0 100<50 450>
LayerCount: 2
Fore
SplineSet
50 0 m 1
 50 100 l 1
 450 100 l 1
 450 0 l 1
 50 0 l 1
EndSplineSet
MultipleSubs2: "CCMP cartouches" underscore cart.hwbody
EndChar

StartChar: grave
Encoding: 64 96 240
Width: 500
VWidth: 910
Flags: W
HStem: 530 282
VStem: 109 282
LayerCount: 2
Fore
SplineSet
391 600 m 1
 320 530 l 1
 109 742 l 1
 180 812 l 1
 391 600 l 1
EndSplineSet
MultipleSubs2: "CCMP cartouches" grave cart.hwbody
EndChar

StartChar: braceleft
Encoding: 91 123 241
Width: 500
VWidth: 900
Flags: W
HStem: 0 100<283.88 450> 350 100<50 216.562> 700 100<283.88 450>
VStem: 175 100<108.659 208.084 591.916 691.341> 225 100<241.916 341.392 458.608 558.084>
CounterMasks: 1 e0
LayerCount: 2
Fore
SplineSet
325 800 m 2xe8
 450 800 l 1
 450 700 l 1
 325 700 l 2xe8
 297 700 275 678 275 650 c 0xf0
 275 644 277 634 280 628 c 2
 309 566 l 2
 318 546 325 522 325 500 c 0
 325 462 311 427 288 400 c 1
 311 373 325 338 325 300 c 0xe8
 325 278 318 254 309 234 c 2
 280 172 l 2
 277 166 275 156 275 150 c 0xf0
 275 122 297 100 325 100 c 2
 450 100 l 1
 450 0 l 1
 325 0 l 2xe8
 242 0 175 67 175 150 c 0xf0
 175 172 182 196 191 216 c 2
 220 278 l 2
 223 284 225 294 225 300 c 0xe8
 225 328 203 350 175 350 c 0
 50 350 l 1
 50 450 l 1
 175 450 l 2xf0
 203 450 225 472 225 500 c 0xe8
 225 506 223 516 220 522 c 2
 191 584 l 2
 182 604 175 628 175 650 c 0xf0
 175 733 242 800 325 800 c 2xe8
EndSplineSet
MultipleSubs2: "CCMP cartouches" braceleft cart.hwbody
EndChar

StartChar: bar
Encoding: 92 124 242
Width: 500
VWidth: 900
Flags: W
HStem: 0 21G<200 300> 780 20G<200 300>
VStem: 200 100<0 800>
LayerCount: 2
Fore
SplineSet
200 0 m 1
 200 800 l 1
 300 800 l 1
 300 0 l 1
 200 0 l 1
EndSplineSet
MultipleSubs2: "CCMP cartouches" bar cart.hwbody
EndChar

StartChar: braceright
Encoding: 93 125 243
Width: 500
VWidth: 900
Flags: W
HStem: 0 100<50 216.12> 350 100<283.438 450> 700 100<50 216.12>
VStem: 175 100<241.916 341.392 458.608 558.084> 225 100<108.659 208.084 591.916 691.341>
CounterMasks: 1 e0
LayerCount: 2
Fore
SplineSet
175 800 m 2xf0
 258 800 325 733 325 650 c 0xe8
 325 628 318 604 309 584 c 2
 280 522 l 2
 277 516 275 506 275 500 c 0xf0
 275 472 297 450 325 450 c 2
 450 450 l 1
 450 350 l 1
 325 350 l 2xe8
 297 350 275 328 275 300 c 0xf0
 275 294 277 284 280 278 c 2
 309 216 l 2
 318 196 325 172 325 150 c 0xe8
 325 67 258 0 175 0 c 2
 50 0 l 1
 50 100 l 1
 175 100 l 2xf0
 203 100 225 122 225 150 c 0xe8
 225 156 223 166 220 172 c 2
 191 234 l 2
 182 254 175 278 175 300 c 0
 175 338 189 373 212 400 c 1
 189 427 175 462 175 500 c 0xf0
 175 522 182 546 191 566 c 2
 220 628 l 2
 223 634 225 644 225 650 c 0xe8
 225 678 203 700 175 700 c 2
 50 700 l 1
 50 800 l 1
 175 800 l 2xf0
EndSplineSet
MultipleSubs2: "CCMP cartouches" braceright cart.hwbody
EndChar

StartChar: asciitilde
Encoding: 94 126 244
Width: 500
VWidth: 900
Flags: W
HStem: 278 100<315.046 373.536> 397 100<151.464 209.954>
VStem: 50 100<303 395.476> 375 100<379.524 466>
LayerCount: 2
Fore
SplineSet
181 497 m 0
 225 497 268 475 291 439 c 2
 319 392 l 2
 325 383 335 378 344 378 c 0
 361 378 375 392 375 409 c 2
 375 466 l 1
 475 466 l 1
 475 409 l 2
 475 337 416 278 344 278 c 0
 300 278 257 300 234 336 c 2
 206 383 l 2
 200 392 190 397 181 397 c 0
 164 397 150 383 150 366 c 2
 150 303 l 1
 50 303 l 1
 50 366 l 2
 50 438 109 497 181 497 c 0
EndSplineSet
MultipleSubs2: "CCMP cartouches" asciitilde cart.hwbody
EndChar

StartChar: font.version
Encoding: 282 -1 245
Width: 1000
Flags: W
HStem: 530 20G<250 300>
LayerCount: 2
Fore
SplineSet
100 800 m 1
 100 0 l 1
 900 0 l 1
 900 800 l 1
 100 800 l 1
150 750 m 1
 200 750 l 1
 200 500 l 1
 150 500 l 1
 150 750 l 1
350 500 m 1
 350 650 l 1
 450 650 l 1
 450 700 l 1
 350 700 l 1
 350 750 l 1
 500 750 l 1
 500 600 l 1
 400 600 l 1
 400 550 l 1
 500 550 l 1
 500 500 l 1
 350 500 l 1
250 550 m 1
 300 550 l 1
 300 500 l 1
 250 500 l 1
 250 550 l 1
EndSplineSet
LCarets2: 10 700 700 700 700 700 700 700 700 700 700
Ligature2: "LIGA basics" f o n t v e r s i o n
EndChar

StartChar: cart.hwbody
Encoding: 284 -1 248
Width: 0
Flags: W
HStem: -250 100<-500 0> 950 100<-500 0>
LayerCount: 2
Fore
SplineSet
-500 -150 m 1
 0 -150 l 1
 0 -250 l 1
 -500 -250 l 1
 -600 -200 l 1
 -500 -150 l 1
-500 1050 m 1
 0 1050 l 1
 0 950 l 1
 -500 950 l 1
 -600 1000 l 1
 -500 1050 l 1
EndSplineSet
EndChar

StartChar: cart.4ticks
Encoding: 285 -1 250
Width: 0
Flags: W
HStem: -450 250<-888 -788 -662 -562 -438 -338 -212 -112>
VStem: -888 100<-450 -200> -662 100<-450 -200> -438 100<-450 -200> -212 100<-450 -200>
LayerCount: 2
Fore
SplineSet
-212 -200 m 1
 -112 -200 l 1
 -112 -450 l 1
 -212 -450 l 1
 -212 -200 l 1
-438 -200 m 1
 -338 -200 l 1
 -338 -450 l 1
 -438 -450 l 1
 -438 -200 l 1
-662 -200 m 1
 -562 -200 l 1
 -562 -450 l 1
 -662 -450 l 1
 -662 -200 l 1
-888 -200 m 1
 -788 -200 l 1
 -788 -450 l 1
 -888 -450 l 1
 -888 -200 l 1
EndSplineSet
Substitution2: "SS02 small text tickmarks-1" cart.4ticks.small
Ligature2: "LIGA tick stacker" cart.1tick cart.1tick cart.1tick cart.1tick 
LCarets2: 4 -1000 -1000 -1000 -1000
EndChar

StartChar: cart.3ticks
Encoding: 286 -1 251
Width: 0
Flags: W
HStem: -450 250<-775 -675 -550 -450 -325 -225>
VStem: -775 100<-450 -200> -550 100<-450 -200> -325 100<-450 -200>
CounterMasks: 1 70
LayerCount: 2
Fore
SplineSet
-325 -200 m 1
 -225 -200 l 1
 -225 -450 l 1
 -325 -450 l 1
 -325 -200 l 1
-550 -200 m 1
 -450 -200 l 1
 -450 -450 l 1
 -550 -450 l 1
 -550 -200 l 1
-775 -200 m 1
 -675 -200 l 1
 -675 -450 l 1
 -775 -450 l 1
 -775 -200 l 1
EndSplineSet
Substitution2: "SS02 small text tickmarks-1" cart.3ticks.small
LCarets2: 3 -1000 -1000 -1000
Ligature2: "LIGA tick stacker" cart.1tick cart.1tick cart.1tick 
EndChar

StartChar: cart.2ticks
Encoding: 287 -1 252
Width: 0
Flags: W
HStem: -450 250<-675 -575 -425 -325>
VStem: -675 100<-450 -200> -425 100<-450 -200>
LayerCount: 2
Fore
SplineSet
-425 -450 m 1
 -425 -200 l 1
 -325 -200 l 1
 -325 -450 l 1
 -425 -450 l 1
-675 -450 m 1
 -675 -200 l 1
 -575 -200 l 1
 -575 -450 l 1
 -675 -450 l 1
EndSplineSet
Substitution2: "SS02 small text tickmarks-1" cart.2ticks.small
Ligature2: "LIGA tick stacker" cart.1tick cart.1tick 
LCarets2: 2 -1000 -1000
EndChar

StartChar: periodcentered
Encoding: 95 183 253
Width: 1000
Flags: W
HStem: 300 200<438.358 561.642>
VStem: 400 200<338.358 461.642>
LayerCount: 2
Fore
SplineSet
500 500 m 0
 555 500 600 455 600 400 c 0
 600 345 555 300 500 300 c 0
 445 300 400 345 400 400 c 0
 400 455 445 500 500 500 c 0
EndSplineSet
Ligature2: "LIGA basics" morae.dot
MultipleSubs2: "CCMP cartouches" morae.dot cart.hwbody
Ligature2: "LIGA basics" glyph192
EndChar

StartChar: t.ni.left
Encoding: 238 989577 254
Width: 1000
Flags: W
HStem: 350 100<275 900>
LayerCount: 2
Fore
SplineSet
900 450 m 1
 900 350 l 1
 275 350 l 1
 488 150 l 1
 412 75 l 1
 88 400 l 1
 412 725 l 1
 488 650 l 1
 275 450 l 1
 900 450 l 1
EndSplineSet
MultipleSubs2: "CCMP cartouches" t.ni.left cart.body
Ligature2: "LIGA alternates" t.ni zero four
Ligature2: "LIGA ni directions-1" t.ni less
EndChar

StartChar: t.ni.up
Encoding: 239 989578 255
Width: 1000
Flags: W
HStem: 0 21G<450 550>
VStem: 450 100<0 625>
LayerCount: 2
Fore
SplineSet
550 0 m 1
 450 0 l 1
 450 625 l 1
 250 412 l 1
 175 488 l 1
 500 812 l 1
 825 488 l 1
 750 412 l 1
 550 625 l 1
 550 0 l 1
EndSplineSet
MultipleSubs2: "CCMP cartouches" t.ni.up cart.body
Ligature2: "LIGA alternates" t.ni zero three
Ligature2: "LIGA ni directions-1" t.ni asciicircum
EndChar

StartChar: t.ni.right
Encoding: 240 989579 256
Width: 1000
Flags: W
HStem: 350 100<100 725>
LayerCount: 2
Fore
SplineSet
100 350 m 1
 100 450 l 1
 725 450 l 1
 512 650 l 1
 588 725 l 1
 912 400 l 1
 588 75 l 1
 512 150 l 1
 725 350 l 1
 100 350 l 1
EndSplineSet
MultipleSubs2: "CCMP cartouches" t.ni.right cart.body
Ligature2: "LIGA alternates" t.ni zero two
Ligature2: "LIGA ni directions-1" t.ni greater
EndChar

StartChar: t.sewi.secular
Encoding: 241 989580 257
Width: 1000
Flags: W
HStem: 400 100<200 800> 575 150<446.75 553.25>
VStem: 100 100<150 400> 425 150<596.75 703.25> 800 100<150 400>
CounterMasks: 1 38
LayerCount: 2
Fore
SplineSet
100 150 m 1
 100 500 l 1
 900 500 l 1
 900 150 l 1
 800 150 l 1
 800 400 l 1
 200 400 l 1
 200 150 l 1
 100 150 l 1
425 650 m 0
 425 692 458 725 500 725 c 0
 542 725 575 692 575 650 c 0
 575 608 542 575 500 575 c 0
 458 575 425 608 425 650 c 0
EndSplineSet
MultipleSubs2: "CCMP cartouches" t.sewi.secular cart.body
Ligature2: "LIGA alternates" t.sewi zero two
EndChar

StartChar: t.linluwi
Encoding: 256 989604 258
Width: 1000
Flags: W
HStem: -25 100<181.529 293.683 706.317 818.471> 100 100<416.452 583.548> 250 100<181.529 287.63 712.37 818.471> 450 100<449.656 550.344> 725 100<443.529 556.471>
VStem: 50 100<105.79 218.471> 312 100<581.027 694.21> 325 350<105.085 199.89> 588 100<581.027 694.21> 850 100<105.79 218.471>
LayerCount: 2
Fore
SplineSet
631 297 m 1xfc40
 544 456 l 1
 530 453 516 450 500 450 c 0
 484 450 470 453 456 456 c 1
 369 297 l 1
 396 270 414 238 422 200 c 1
 578 200 l 1
 586 238 604 270 631 297 c 1xfc40
500 725 m 0
 452 725 412 686 412 638 c 0
 412 590 452 550 500 550 c 0
 548 550 588 590 588 638 c 0xfec0
 588 686 548 725 500 725 c 0
238 250 m 0
 190 250 150 210 150 162 c 0
 150 114 190 75 238 75 c 0
 286 75 325 114 325 162 c 0xfd40
 325 210 286 250 238 250 c 0
762 350 m 0
 865 350 950 265 950 162 c 0
 950 59 865 -25 762 -25 c 0
 681 -25 613 27 586 100 c 1
 414 100 l 1
 387 27 319 -25 238 -25 c 0
 135 -25 50 59 50 162 c 0
 50 265 135 350 238 350 c 0
 254 350 267 348 281 345 c 1
 369 503 l 1
 335 537 312 586 312 638 c 0
 312 741 397 825 500 825 c 0
 603 825 688 741 688 638 c 0xfec0
 688 586 665 537 631 503 c 1
 719 345 l 1
 733 348 746 350 762 350 c 0
762 250 m 0
 714 250 675 210 675 162 c 0xfd40
 675 114 714 75 762 75 c 0
 810 75 850 114 850 162 c 0
 850 210 810 250 762 250 c 0
EndSplineSet
LCarets2: 6 0 0 0 0 0 0
MultipleSubs2: "CCMP cartouches" t.linluwi cart.body
Ligature2: "LIGA basics" l i n l u w i
EndChar

StartChar: t.kiki
Encoding: 257 989605 259
Width: 1000
Flags: W
HStem: 0 100<216 784> 150 75<438 562>
LayerCount: 2
Fore
SplineSet
500 850 m 1
 950 0 l 1
 50 0 l 1
 500 850 l 1
500 638 m 1
 216 100 l 1
 784 100 l 1
 500 638 l 1
312 150 m 1
 500 503 l 1
 688 150 l 1
 312 150 l 1
500 344 m 1
 438 225 l 1
 562 225 l 1
 500 344 l 1
EndSplineSet
MultipleSubs2: "CCMP cartouches" t.kiki cart.body
Ligature2: "LIGA basics" k i k i
EndChar

StartChar: t.su
Encoding: 258 989606 260
Width: 1000
Flags: W
HStem: 0 100<275 570 671.576 725> 500 100<372.769 629.267> 700 100<275 725>
VStem: 175 100<100 342 547 700> 725 100<100 444.748 547 700>
LayerCount: 2
Fore
SplineSet
570 100 m 1
 520 223 409 315 275 342 c 1
 275 100 l 1
 570 100 l 1
725 547 m 1
 725 700 l 1
 275 700 l 1
 275 547 l 1
 342 581 419 600 500 600 c 0
 581 600 658 581 725 547 c 1
292 441 m 1
 475 407 622 275 677 100 c 1
 725 100 l 1
 725 431 l 1
 661 475 583 500 500 500 c 0
 423 500 353 477 292 441 c 1
175 800 m 1
 825 800 l 1
 825 0 l 1
 175 0 l 1
 175 800 l 1
EndSplineSet
MultipleSubs2: "CCMP cartouches" t.su cart.body
Ligature2: "LIGA basics" s u
EndChar

StartChar: t.isipin
Encoding: 259 989607 261
Width: 1000
Flags: W
HStem: -25 100<384.691 565.309> 300 100<319 631 773 900> 475 100<385.212 563.804>
VStem: 175 100<184.691 298.874> 425 100<650 850> 675 100<184.691 300>
CounterMasks: 1 1c
LayerCount: 2
Fore
SplineSet
747 400 m 1
 900 400 l 1
 900 300 l 1
 773 300 l 1
 775 292 775 283 775 275 c 0
 775 109 641 -25 475 -25 c 0
 309 -25 175 109 175 275 c 0
 175 441 309 575 475 575 c 0
 597 575 700 503 747 400 c 1
673 300 m 1
 277 300 l 1
 275 292 275 284 275 275 c 0
 275 164 364 75 475 75 c 0
 586 75 675 164 675 275 c 0
 675 284 675 292 673 300 c 1
631 400 m 1
 595 445 537 475 475 475 c 0
 413 475 355 445 319 400 c 1
 631 400 l 1
425 650 m 1
 425 850 l 1
 525 850 l 1
 525 650 l 1
 425 650 l 1
591 633 m 1
 688 808 l 1
 775 759 l 1
 677 584 l 1
 591 633 l 1
359 633 m 1
 272 584 l 1
 175 759 l 1
 262 808 l 1
 359 633 l 1
EndSplineSet
LCarets2: 5 0 0 0 0 0
MultipleSubs2: "CCMP cartouches" t.isipin cart.body
Ligature2: "LIGA basics" i s i p i n
EndChar

StartChar: t.kamalawala
Encoding: 260 989608 262
Width: 1000
Flags: W
HStem: -25 100<388.399 611.601> 300 100<50 101.555 209 306 447 553 694 791 898.445 950>
VStem: 100 100<400 481.863> 800 100<400 481.863>
LayerCount: 2
Fore
SplineSet
411 300 m 1
 347 117 l 1
 391 90 444 75 500 75 c 0
 556 75 609 90 653 117 c 1
 589 300 l 1
 411 300 l 1
447 400 m 1
 553 400 l 1
 500 550 l 1
 447 400 l 1
800 400 m 1
 789 533 691 641 564 669 c 1
 659 400 l 1
 800 400 l 1
200 400 m 1
 341 400 l 1
 436 669 l 1
 309 641 211 533 200 400 c 1
791 300 m 1
 694 300 l 1
 734 188 l 1
 761 221 780 258 791 300 c 1
209 300 m 1
 220 258 239 221 266 188 c 1
 306 300 l 1
 209 300 l 1
50 300 m 1
 50 400 l 1
 100 400 l 1
 112 600 272 763 472 775 c 1
 500 850 l 1
 528 775 l 1
 728 763 888 600 900 400 c 1
 950 400 l 1
 950 300 l 1
 894 300 l 1
 877 214 831 139 770 81 c 1
 800 0 l 1
 706 -34 l 1
 686 20 l 1
 630 -10 567 -25 500 -25 c 0
 433 -25 370 -10 314 20 c 1
 294 -34 l 1
 200 0 l 1
 230 81 l 1
 169 139 123 214 106 300 c 1
 50 300 l 1
EndSplineSet
MultipleSubs2: "CCMP cartouches" t.kamalawala cart.body
Ligature2: "LIGA basics" k a m a l a w a l a
EndChar

StartChar: t.kapesi
Encoding: 261 989609 263
Width: 1000
Flags: W
HStem: 0 100<377 623> 500 100<331 450 550 669>
VStem: 450 100<383 500 600 717>
LayerCount: 2
Fore
SplineSet
481 277 m 1
 377 100 l 1
 623 100 l 1
 519 277 l 1
 513 277 506 275 500 275 c 0
 494 275 487 277 481 277 c 1
550 600 m 1
 669 600 l 1
 652 656 606 700 550 717 c 1
 550 600 l 1
450 600 m 1
 450 717 l 1
 394 700 348 656 331 600 c 1
 450 600 l 1
550 500 m 1
 550 383 l 1
 606 400 652 444 669 500 c 1
 550 500 l 1
450 500 m 1
 331 500 l 1
 348 444 394 400 450 383 c 1
 450 500 l 1
500 825 m 0
 653 825 775 703 775 550 c 0
 775 441 711 346 619 302 c 1
 800 0 l 1
 200 0 l 1
 381 302 l 1
 289 346 225 441 225 550 c 0
 225 703 347 825 500 825 c 0
EndSplineSet
LCarets2: 5 0 0 0 0 0
MultipleSubs2: "CCMP cartouches" t.kapesi cart.body
Ligature2: "LIGA basics" k a p e s i
EndChar

StartChar: t.melome
Encoding: 262 989610 264
Width: 1000
Flags: W
HStem: 312 100<342.958 447.594 552.406 657.042> 525 100<338.758 447.594 552.406 661.242> 750 100<385.978 614.022>
VStem: 75 100<-50 536.949> 225 100<195.943 298.355 409.113 511.242> 675 100<195.476 298.355 409.043 511.242> 825 100<-50 536.949>
LayerCount: 2
Fore
SplineSet
500 850 m 0
 734 850 925 659 925 425 c 2
 925 -50 l 1
 825 -50 l 1
 825 425 l 2
 825 605 680 750 500 750 c 0
 320 750 175 605 175 425 c 2
 175 -50 l 1
 75 -50 l 1
 75 425 l 2
 75 659 266 850 500 850 c 0
388 625 m 0
 432 625 475 600 500 562 c 1
 525 600 568 625 612 625 c 0
 703 625 775 553 775 462 c 0
 775 421 761 384 736 356 c 1
 761 328 775 291 775 250 c 0
 775 200 752 153 716 123 c 2
 500 -50 l 1
 284 123 l 2
 248 153 225 200 225 250 c 0
 225 291 239 328 264 356 c 1
 239 384 225 421 225 462 c 0
 225 553 297 625 388 625 c 0
388 525 m 0
 350 525 325 500 325 462 c 0
 325 451 327 430 347 408 c 1
 359 411 376 412 388 412 c 0
 432 412 475 388 500 350 c 1
 525 388 568 412 612 412 c 0
 624 412 641 411 653 408 c 1
 672 427 675 446 675 462 c 0
 675 500 650 525 612 525 c 0
 550 525 525 475 500 425 c 1
 475 475 450 525 388 525 c 0
388 312 m 0
 350 312 325 288 325 250 c 0
 325 241 326 213 356 186 c 2
 500 62 l 1
 644 186 l 2
 663 203 675 225 675 250 c 0
 675 288 650 312 612 312 c 0
 550 312 525 262 500 212 c 1
 475 262 450 312 388 312 c 0
EndSplineSet
MultipleSubs2: "CCMP cartouches" t.melome cart.body
Ligature2: "LIGA basics" m e l o m e
EndChar

StartChar: t.mijomi
Encoding: 263 989611 265
Width: 1000
Flags: W
HStem: 0 250<100 200 800 900> 150 100<200 377 623 800> 512 100<342.958 447.594 552.406 657.042> 725 100<338.758 447.594 552.406 661.242>
VStem: 100 100<0 150> 225 100<398.271 498.355 609.113 711.242> 675 100<397.768 498.355 608.973 711.242> 800 100<0 150>
LayerCount: 2
Fore
SplineSet
388 825 m 0x7f
 432 825 475 800 500 762 c 1
 525 800 568 825 612 825 c 0
 703 825 775 753 775 662 c 0
 775 621 761 584 736 556 c 1
 761 528 775 491 775 450 c 0
 775 400 752 355 716 325 c 2
 623 250 l 1x7f
 900 250 l 1
 900 200 l 1
 900 0 l 1
 800 0 l 1xbf
 800 150 l 1
 200 150 l 1x7f
 200 0 l 1
 100 0 l 1xbf
 100 150 l 1x7f
 100 250 l 1xbf
 377 250 l 1
 284 325 l 2
 248 355 225 400 225 450 c 0
 225 491 239 528 264 556 c 1
 239 584 225 621 225 662 c 0
 225 753 297 825 388 825 c 0x7f
388 725 m 0
 350 725 325 700 325 662 c 0
 325 651 327 630 347 608 c 1
 359 611 376 612 388 612 c 0
 432 612 475 588 500 550 c 1
 525 588 568 612 612 612 c 0
 624 612 641 611 653 608 c 1
 667 624 675 642 675 662 c 0
 675 700 650 725 612 725 c 0
 550 725 525 675 500 625 c 1
 475 675 450 725 388 725 c 0
388 512 m 0
 350 512 325 488 325 450 c 0
 325 441 326 415 356 388 c 2
 500 262 l 1
 644 388 l 2
 663 405 675 425 675 450 c 0
 675 488 650 512 612 512 c 0
 550 512 525 462 500 412 c 1
 475 462 450 512 388 512 c 0
EndSplineSet
MultipleSubs2: "CCMP cartouches" t.mijomi cart.body
Ligature2: "LIGA basics" m i j o m i
EndChar

StartChar: t.misa
Encoding: 264 989612 266
Width: 1000
Flags: W
HStem: 0 100<248.917 414.66> 200 100<384.412 564.874> 462 126<428.644 521.356> 512 126<578.644 671.356> 700 100<385.672 784.676>
VStem: 75 100<173.917 325.264> 175 100<444.697 590.309> 412 126<478.644 571.356> 562 126<528.644 621.356> 825 100<537.966 660.659>
LayerCount: 2
Fore
SplineSet
475 800 m 2xebc0
 725 800 l 2
 836 800 925 711 925 600 c 0
 925 550 904 500 870 462 c 2
 692 294 l 2
 636 235 556 200 475 200 c 0
 363 200 268 261 216 352 c 1
 191 325 175 289 175 250 c 0
 175 167 242 100 325 100 c 0
 353 100 381 110 403 122 c 1
 453 34 l 1
 415 12 372 0 325 0 c 0
 187 0 75 112 75 250 c 0xedc0
 75 333 116 408 178 453 c 1
 175 469 175 484 175 500 c 0
 175 666 309 800 475 800 c 2xebc0
475 700 m 2
 364 700 275 611 275 500 c 0xcbc0
 275 389 364 300 475 300 c 0
 530 300 582 323 620 362 c 2
 797 531 l 2
 816 550 825 573 825 600 c 0
 825 655 780 700 725 700 c 2
 475 700 l 2
625 638 m 0xd9c0
 659 638 688 609 688 575 c 0
 688 541 659 512 625 512 c 0
 591 512 562 541 562 575 c 0
 562 609 591 638 625 638 c 0xd9c0
475 588 m 0xe9c0
 509 588 538 559 538 525 c 0
 538 491 509 462 475 462 c 0
 441 462 412 491 412 525 c 0
 412 559 441 588 475 588 c 0xe9c0
EndSplineSet
MultipleSubs2: "CCMP cartouches" t.misa cart.body
Ligature2: "LIGA basics" m i s a
EndChar

StartChar: t.nimisin
Encoding: 265 989613 267
Width: 1000
Flags: W
HStem: 200 100<327.882 672.118> 300 100<50 175 825 950> 400 100<327.882 672.118> 550 150<450 550>
VStem: 50 125<300 400> 225 100<302.882 397.118> 450 100<550 700> 675 100<302.882 397.118> 825 125<300 400>
LayerCount: 2
Fore
SplineSet
350 500 m 2xbf80
 650 500 l 2
 719 500 775 444 775 375 c 2
 775 325 l 2
 775 256 719 200 650 200 c 2
 350 200 l 2
 281 200 225 256 225 325 c 2
 225 375 l 2
 225 444 281 500 350 500 c 2xbf80
350 400 m 2
 336 400 325 389 325 375 c 2
 325 325 l 2
 325 311 336 300 350 300 c 2
 650 300 l 2
 664 300 675 311 675 325 c 2
 675 375 l 2
 675 389 664 400 650 400 c 2
 350 400 l 2
50 300 m 1x5f80
 50 400 l 1
 175 400 l 1
 175 300 l 1
 50 300 l 1x5f80
825 300 m 1
 825 400 l 1
 950 400 l 1
 950 300 l 1
 825 300 l 1
450 550 m 1
 450 700 l 1
 550 700 l 1
 550 550 l 1
 450 550 l 1
EndSplineSet
MultipleSubs2: "CCMP cartouches" t.nimisin cart.body
Ligature2: "LIGA basics" n i m i s i n
EndChar

StartChar: t.nja
Encoding: 266 989614 268
Width: 1000
Flags: W
HStem: -38 100<409.398 590.602> 138 74<392.966 457.777 542.223 607.034> 512 100<409.398 590.602>
VStem: 100 75<538 698> 175 100<197.271 378.476> 312 76<216.076 275.877> 462 76<215.51 262> 612 76<216.076 275.877> 725 100<197.271 378.476> 825 75<538 698>
LayerCount: 2
Fore
SplineSet
100 838 m 1xf7
 362 662 l 1
 320 600 l 1
 175 698 l 1
 175 538 l 1
 100 538 l 1
 100 838 l 1xf7
900 838 m 1xe740
 900 538 l 1
 825 538 l 1
 825 698 l 1
 680 600 l 1
 638 662 l 1
 900 838 l 1xe740
500 612 m 0
 680 612 825 468 825 288 c 0
 825 108 680 -38 500 -38 c 0
 320 -38 175 108 175 288 c 0xef80
 175 468 320 612 500 612 c 0
500 512 m 0
 377 512 275 411 275 288 c 0
 275 165 377 62 500 62 c 0
 623 62 725 165 725 288 c 0
 725 411 623 512 500 512 c 0
327 305 m 1
 392 269 l 1
 389 264 388 256 388 250 c 0
 388 230 405 212 425 212 c 0
 445 212 462 230 462 250 c 2
 462 262 l 1
 538 262 l 1
 538 250 l 2
 538 230 555 212 575 212 c 0
 595 212 612 230 612 250 c 0
 612 256 611 264 608 269 c 1
 673 305 l 1
 682 289 688 269 688 250 c 0
 688 188 637 138 575 138 c 0
 547 138 519 148 500 167 c 1
 481 148 453 138 425 138 c 0
 363 138 312 188 312 250 c 0
 312 269 318 289 327 305 c 1
EndSplineSet
MultipleSubs2: "CCMP cartouches" t.nja cart.body
Ligature2: "LIGA basics" n j a
EndChar

StartChar: t.oke
Encoding: 267 989615 269
Width: 1000
Flags: W
LayerCount: 2
Fore
SplineSet
848 689 m 1
 912 612 l 1
 300 100 l 1
 88 400 l 1
 169 458 l 1
 319 247 l 1
 848 689 l 1
EndSplineSet
MultipleSubs2: "CCMP cartouches" t.oke cart.body
Ligature2: "LIGA basics" o k e
EndChar

StartChar: t.omekapo
Encoding: 268 989616 270
Width: 1000
Flags: W
HStem: -25 100<504.765 728.864> 425 100<504.765 728.864>
VStem: 50 100<-25.63 74.3813 425.619 525.63> 575 100<600 825> 825 100<167.118 332.882>
LayerCount: 2
Fore
SplineSet
150 534 m 1
 156 464 177 395 211 334 c 1
 222 346 232 356 244 367 c 0
 353 467 500 525 652 525 c 0
 804 525 925 403 925 250 c 0
 925 97 804 -25 652 -25 c 0
 500 -25 353 33 244 133 c 0
 232 144 222 154 211 166 c 1
 177 105 156 36 150 -34 c 1
 50 -25 l 1
 59 72 91 169 144 250 c 1
 91 331 59 428 50 525 c 1
 150 534 l 1
638 425 m 0
 527 425 402 377 311 294 c 0
 297 282 281 266 269 250 c 1
 281 234 297 218 311 206 c 0
 402 123 527 75 638 75 c 0
 749 75 825 153 825 250 c 0
 825 347 749 425 638 425 c 0
575 600 m 1
 575 825 l 1
 675 825 l 1
 675 600 l 1
 575 600 l 1
731 586 m 1
 836 784 l 1
 925 738 l 1
 820 539 l 1
 731 586 l 1
519 584 m 1
 430 538 l 1
 325 738 l 1
 414 784 l 1
 519 584 l 1
EndSplineSet
MultipleSubs2: "CCMP cartouches" t.omekapo cart.body
Ligature2: "LIGA basics" o m e k a p o
EndChar

StartChar: t.puwa
Encoding: 269 989617 271
Width: 1000
Flags: W
HStem: 50 100<233.561 775.103> 700 100<423.917 576.083>
VStem: 75 100<206.844 344.255> 250 100<494.844 626.083> 650 100<473.352 626.083> 825 100<198.045 326.213>
LayerCount: 2
Fore
SplineSet
500 800 m 0
 638 800 750 688 750 550 c 0
 750 523 746 498 738 473 c 1
 844 461 925 370 925 262 c 0
 925 145 829 50 712 50 c 2
 300 50 l 2
 177 50 75 152 75 275 c 0
 75 384 153 477 256 497 c 1
 253 514 250 531 250 550 c 0
 250 688 362 800 500 800 c 0
500 700 m 0
 417 700 350 633 350 550 c 0
 350 530 354 510 362 491 c 1
 400 480 432 461 459 434 c 1
 388 362 l 1
 366 384 334 400 300 400 c 0
 231 400 175 344 175 275 c 0
 175 206 231 150 300 150 c 2
 712 150 l 2
 774 150 825 200 825 262 c 0
 825 324 774 375 712 375 c 2
 712 375 699 375 688 375 c 0
 683 375 678 375 678 375 c 1
 677 373 l 1
 675 375 l 1
 606 444 l 1
 634 472 650 508 650 550 c 0
 650 633 583 700 500 700 c 0
EndSplineSet
MultipleSubs2: "CCMP cartouches" t.puwa cart.body
Ligature2: "LIGA basics" p u w a
EndChar

StartChar: t.san
Encoding: 270 989618 272
Width: 1000
Flags: W
HStem: 100 100<100 900> 350 100<100 900> 600 100<100 900>
CounterMasks: 1 e0
LayerCount: 2
Fore
SplineSet
100 600 m 1
 100 700 l 1
 900 700 l 1
 900 600 l 1
 100 600 l 1
100 100 m 1
 100 200 l 1
 900 200 l 1
 900 100 l 1
 100 100 l 1
100 350 m 1
 100 450 l 1
 900 450 l 1
 900 350 l 1
 100 350 l 1
EndSplineSet
MultipleSubs2: "CCMP cartouches" t.san cart.body
Ligature2: "LIGA basics" s a n
EndChar

StartChar: t.taki
Encoding: 271 989619 273
Width: 1000
Flags: W
HStem: -25 100<388.051 564.557> 350 100<429.391 570.609> 725 100<427.291 614.022>
VStem: 75 100<285.978 513.552> 262 100<517.186 623.561> 638 100<176.439 282.814> 825 100<283.837 514.022>
CounterMasks: 1 e0
LayerCount: 2
Fore
SplineSet
500 825 m 0
 734 825 925 634 925 400 c 0
 925 166 734 -25 500 -25 c 0
 266 -25 75 166 75 400 c 0
 75 623 249 807 469 823 c 0
 480 825 489 825 500 825 c 0
500 725 m 0
 494 725 487 725 481 723 c 0
 414 714 362 658 362 588 c 0
 362 513 425 450 500 450 c 0
 631 450 738 343 738 212 c 0
 738 200 737 187 734 175 c 1
 790 234 825 312 825 400 c 0
 825 580 680 725 500 725 c 0
266 625 m 1
 210 566 175 488 175 400 c 0
 175 220 320 75 500 75 c 0
 506 75 513 77 519 77 c 0
 586 86 638 142 638 212 c 0
 638 287 575 350 500 350 c 0
 369 350 262 457 262 588 c 0
 262 600 263 613 266 625 c 1
EndSplineSet
MultipleSubs2: "CCMP cartouches" t.taki cart.body
Ligature2: "LIGA basics" t a k i
EndChar

StartChar: t.te
Encoding: 272 989620 274
Width: 1000
Flags: W
HStem: 800 100<600 1000>
VStem: 500 100<200 800>
LayerCount: 2
Fore
SplineSet
500 900 m 1
 1000 900 l 1
 1000 800 l 1
 600 800 l 1
 600 200 l 1
 500 200 l 1
 500 900 l 1
EndSplineSet
LCarets2: 1 0
MultipleSubs2: "CCMP cartouches" t.te.fw cart.body
Ligature2: "LIGA basics" t e
EndChar

StartChar: t.to
Encoding: 273 989621 275
Width: 1000
Flags: W
HStem: -100 100<0 400>
VStem: 400 100<0 600>
LayerCount: 2
Fore
SplineSet
500 -100 m 1
 0 -100 l 1
 0 0 l 1
 400 0 l 1
 400 600 l 1
 500 600 l 1
 500 -100 l 1
EndSplineSet
LCarets2: 1 0
MultipleSubs2: "CCMP cartouches" t.to.fw cart.body
Ligature2: "LIGA basics" t o
EndChar

StartChar: t.unu
Encoding: 274 989622 276
Width: 1000
Flags: W
HStem: 0 100<377 623> 750 100<424.918 582.882>
VStem: 400 100<515.58 634.42> 675 100<490.748 657.882>
LayerCount: 2
Fore
SplineSet
500 850 m 0
 653 850 775 728 775 575 c 0
 775 464 708 366 606 322 c 1
 800 0 l 1
 200 0 l 1
 394 322 l 1
 364 334 334 353 311 375 c 0
 277 409 248 451 236 498 c 1
 255 482 277 475 300 475 c 0
 317 475 334 480 348 488 c 0
 379 507 400 539 400 575 c 0
 400 611 379 643 348 662 c 0
 334 670 317 675 300 675 c 0
 277 675 255 669 236 653 c 1
 248 700 277 741 311 775 c 0
 361 823 430 850 500 850 c 0
500 750 m 0
 473 750 446 743 423 731 c 1
 471 693 500 636 500 575 c 0
 500 514 471 457 423 419 c 1
 446 407 473 400 500 400 c 0
 597 400 675 478 675 575 c 0
 675 672 597 750 500 750 c 0
497 300 m 2
 377 100 l 1
 623 100 l 1
 503 300 l 2
 501 300 502 300 500 300 c 0
 498 300 499 300 497 300 c 2
EndSplineSet
MultipleSubs2: "CCMP cartouches" t.unu cart.body
Ligature2: "LIGA basics" u n u
EndChar

StartChar: t.usawi
Encoding: 275 989623 277
Width: 1000
Flags: W
HStem: 38 100<339.967 484.226> 325 100<458.659 541.341> 500 100<409.398 590.602>
VStem: 175 100<202.967 365.602> 350 100<246.641 316.341> 450 100<650 850> 550 100<204.369 316.341> 725 100<160.685 365.602>
LayerCount: 2
Fore
SplineSet
450 650 m 1xf5
 450 850 l 1
 550 850 l 1
 550 650 l 1
 450 650 l 1xf5
614 633 m 1
 712 808 l 1
 800 759 l 1
 702 584 l 1
 614 633 l 1
386 633 m 1
 298 584 l 1
 200 759 l 1
 288 808 l 1
 386 633 l 1
500 600 m 0
 680 600 825 455 825 275 c 0
 825 142 763 25 666 -50 c 1
 605 28 l 1
 678 86 725 175 725 275 c 0
 725 398 623 500 500 500 c 0
 377 500 275 398 275 275 c 0
 275 200 337 138 412 138 c 0
 487 138 550 200 550 275 c 0
 550 303 528 325 500 325 c 0
 472 325 450 303 450 275 c 0
 450 267 453 259 456 253 c 1
 366 208 l 1
 355 227 350 252 350 275 c 0
 350 358 417 425 500 425 c 0
 583 425 650 358 650 275 c 0xfb
 650 144 543 38 412 38 c 0
 281 38 175 144 175 275 c 0
 175 455 320 600 500 600 c 0
EndSplineSet
MultipleSubs2: "CCMP cartouches" t.usawi cart.body
Ligature2: "LIGA basics" u s a w i
EndChar

StartChar: t.wa
Encoding: 276 989624 278
Width: 1000
Flags: W
HStem: -25 87<359.487 441.411 558.589 640.513>
VStem: 250 100<71.5066 250> 450 100<70.4375 225 325 825> 650 100<71.5066 250>
CounterMasks: 1 70
LayerCount: 2
Fore
SplineSet
450 325 m 1
 450 825 l 1
 550 825 l 1
 550 325 l 1
 450 325 l 1
250 250 m 1
 350 250 l 1
 350 112 l 2
 350 84 372 62 400 62 c 0
 428 62 450 84 450 112 c 2
 450 225 l 1
 550 225 l 1
 550 112 l 2
 550 84 572 62 600 62 c 0
 628 62 650 84 650 112 c 2
 650 250 l 1
 750 250 l 1
 750 112 l 2
 750 37 687 -25 612 -25 c 0
 568 -25 527 -2 500 34 c 1
 473 -2 432 -25 388 -25 c 0
 313 -25 250 37 250 112 c 2
 250 250 l 1
EndSplineSet
MultipleSubs2: "CCMP cartouches" t.wa cart.body
Ligature2: "LIGA basics" w a
EndChar

StartChar: t.wuwojiti
Encoding: 277 989625 279
Width: 1000
Flags: W
HStem: 0 21G<150 190 810 850> 780 20G<150 190.212 809.788 850>
LayerCount: 2
Fore
SplineSet
170 800 m 1
 361 611 l 1
 500 750 l 1
 639 611 l 1
 830 800 l 1
 900 730 l 1
 711 539 l 1
 850 400 l 1
 711 261 l 1
 900 70 l 1
 830 0 l 1
 639 191 l 1
 500 50 l 1
 361 191 l 1
 170 0 l 1
 100 70 l 1
 289 261 l 1
 150 400 l 1
 289 539 l 1
 100 730 l 1
 170 800 l 1
500 608 m 1
 292 400 l 1
 500 191 l 1
 708 400 l 1
 500 608 l 1
EndSplineSet
MultipleSubs2: "CCMP cartouches" t.wuwojiti cart.body
Ligature2: "LIGA basics" w u w o j i t i
EndChar

StartChar: t.yupekosi
Encoding: 278 989626 280
Width: 1000
Flags: W
HStem: 309 99<447.002 458 472.002 489 489.004 531 531 569.91> 314 105<531 588.905> 331 102<371.998 396.996 397.004 419.858> 780 20G<700 798>
VStem: 191 101<684.003 700 714.002 778 778.002 784> 200 100<534.003 579.999 580.004 620 642 643.997 644 674.997> 669 136<525 533.999 534 625.75> 692 102<197.001 200 216 394> 692 102<179.1 184 189.001 196.998 197.001 200 233.46 393.898> 700 98<760.999 761.999 764 766.999 767 800>
LayerCount: 2
Fore
SplineSet
445 -20 m 1x52
 445 -20 449 -22 441 -20 c 0
 432 -17 434 -19 434 -19 c 1
 434 -19 431 -17 425 -14 c 0
 419 -11 419 -12 419 -12 c 1
 419 -12 414 -11 409 -8 c 0
 406 -6 406 -5 406 -5 c 1
 406 -5 406 -5 403 -3 c 0
 401 -3 402 -3 402 -3 c 2
 400 -3 398 -5 395 -3 c 0
 383 0 386 3 386 3 c 1
 386 3 383 3 381 3 c 0
 379 3 378 6 369 9 c 0
 360 12 353 19 353 19 c 1
 353 19 351 18 348 20 c 0
 345 22 340 25 334 30 c 0
 329 33 327 36 325 38 c 2
 325 38 325 39 323 41 c 0
 321 43 320 42 320 42 c 1
 320 42 318 41 312 44 c 0
 304 47 303 48 303 48 c 1
 303 48 301 48 292 53 c 0x5a
 286 56 284 58 284 58 c 2
 282 58 280 61 272 64 c 0
 261 69 255 73 255 73 c 1
 255 73 252 75 244 81 c 0
 238 86 235 90 233 92 c 2
 231 94 l 1
 231 95 l 2
 228 97 225 97 222 100 c 0
 216 103 216 106 216 106 c 1
 216 106 214 105 209 108 c 0
 208 109 l 1
 206 109 l 1
 206 111 l 2
 205 111 l 0
 203 111 204 110 209 108 c 1
 208 109 l 1
 206 109 208 111 206 111 c 0
 205 111 l 0
 203 111 202 110 200 112 c 0x54
 192 117 193 120 191 122 c 1
 262 192 l 1
 264 190 264 192 264 192 c 2
 266 190 265 189 267 189 c 1
 269 189 l 1
 267 189 267 189 267 189 c 1
 269 189 l 2
 269 189 270 188 273 186 c 0
 279 183 283 181 283 181 c 1
 283 181 284 178 289 175 c 0
 294 172 294 172 294 172 c 1
 294 172 298 169 303 164 c 0
 306 161 308 159 308 159 c 1
 308 159 310 158 316 155 c 0
 318 153 317 153 317 153 c 2
 319 153 322 151 327 148 c 0
 335 145 336 144 336 144 c 1
 336 144 337 144 342 141 c 0
 348 138 350 138 350 138 c 1
 350 138 351 137 359 134 c 0
 367 131 372 128 377 125 c 0
 382 122 383 120 383 120 c 1
 383 120 384 117 389 114 c 0
 392 111 394 111 394 111 c 1
 394 111 399 109 402 106 c 0
 405 103 408 101 411 98 c 0
 413 98 413 99 416 97 c 0
 421 95 427 95 430 92 c 2
 430 92 429 92 431 92 c 0
 439 89 438 89 438 89 c 1
 438 89 441 89 447 86 c 0
 453 83 455 81 455 81 c 1
 455 81 459 81 464 78 c 0
 467 76 464 79 466 77 c 2
 466 77 467 77 473 75 c 0
 481 73 478 75 480 75 c 2
 480 75 483 75 486 75 c 2
 486 75 488 75 491 75 c 2
 491 75 490 75 492 75 c 2
 492 75 494 75 500 78 c 0
 506 80 508 81 508 81 c 1
 508 81 509 79 512 81 c 0
 518 83 517 83 520 83 c 0
 523 83 532 87 541 89 c 0
 549 91 552 91 552 91 c 2
 554 91 551 91 553 91 c 0
 561 93 563 92 566 92 c 0
 569 92 573 95 578 97 c 0
 583 99 584 97 584 97 c 1
 584 97 586 98 592 100 c 0
 597 102 598 102 600 102 c 2
 600 102 603 102 605 102 c 0
 608 104 612 105 612 105 c 1
 612 105 614 103 619 106 c 0
 625 109 628 109 628 109 c 1
 628 109 632 113 644 116 c 0
 647 118 644 116 647 116 c 2
 647 116 648 119 653 125 c 0
 658 131 662 134 662 134 c 1
 666 139 l 2
 669 144 669 144 669 144 c 1x5a
 669 144 670 145 673 150 c 2
 675 152 l 2
 677 157 678 158 678 158 c 0
 678 158 679 160 681 166 c 0
 681 168 683 167 683 169 c 0
 685 172 684 172 684 172 c 1
 684 172 682 172 684 180 c 0
 686 185 686 187 686 189 c 2
 686 189 686 189 686 191 c 0
 686 194 688 197 688 197 c 1
 688 197 687 198 689 203 c 0
 689 206 689 208 689 208 c 2
 689 210 688 213 691 222 c 0
 693 225 692 225 692 227 c 2
 692 227 692 228 692 230 c 0
 694 236 694 233 694 233 c 2
 694 235 694 239 694 244 c 2
 694 272 l 1
 694 316 l 2
 694 328 694 336 694 339 c 0
 694 342 692 342 692 350 c 0
 692 358 692 366 692 372 c 2
 692 391 l 2
 692 393 692 392 692 394 c 1x51
 690 391 689 391 686 386 c 0
 683 381 683 382 681 380 c 2
 681 380 678 376 675 373 c 0
 672 370 672 369 670 367 c 0
 668 364 672 367 669 364 c 0
 663 356 660 357 658 355 c 0
 656 353 649 346 641 341 c 0
 633 336 626 333 623 331 c 0x32
 620 329 620 330 612 327 c 0
 609 325 610 325 608 325 c 2
 608 325 605 324 600 322 c 0
 589 319 589 319 589 319 c 1
 589 319 586 319 581 317 c 0
 576 315 571 316 566 314 c 2
 564 314 l 2x52
 562 314 559 311 550 309 c 0
 539 306 531 308 525 308 c 0
 519 308 508 309 500 309 c 0
 492 309 489 309 489 309 c 1
 489 309 487 309 481 309 c 0x92
 475 309 472 311 472 311 c 1
 472 311 475 310 466 312 c 0
 463 314 458 312 458 312 c 1
 458 312 458 314 456 314 c 0x52
 450 316 447 314 444 316 c 0
 441 318 435 318 430 320 c 0
 425 322 419 322 411 325 c 0
 405 328 402 329 400 331 c 0x32
 398 331 394 330 391 333 c 0
 388 333 384 334 378 336 c 0
 369 338 372 338 372 338 c 1
 372 338 364 338 356 338 c 0
 348 338 342 339 342 339 c 1
 342 339 337 338 323 344 c 0
 309 350 303 356 300 359 c 2
 286 373 l 2
 280 379 274 387 266 395 c 0
 260 403 253 414 253 414 c 1
 253 414 253 416 250 419 c 0
 247 422 250 420 247 423 c 0
 244 426 237 433 231 441 c 0
 225 449 222 458 219 466 c 0
 217 468 217 463 217 466 c 2
 217 466 218 468 216 473 c 0
 213 481 214 481 214 481 c 2
 214 483 212 483 212 486 c 0
 210 491 211 492 211 492 c 2
 211 494 211 494 211 497 c 0
 211 499 209 497 209 497 c 1
 209 497 208 500 206 506 c 0
 203 514 205 517 205 519 c 0
 205 521 202 532 200 544 c 0
 198 552 200 556 200 562 c 0
 200 565 200 572 200 575 c 0
 200 584 200 591 200 591 c 1
 200 592 l 2
 200 597 202 596 202 598 c 0
 202 600 202 606 202 611 c 0
 202 616 202 620 202 620 c 1
 202 620 202 619 200 628 c 0x56
 198 637 198 642 198 642 c 1
 198 642 198 645 198 653 c 0
 198 661 197 667 197 669 c 0
 197 671 195 675 195 675 c 2
 193 683 195 684 195 684 c 1
 195 684 194 688 194 694 c 0
 194 699 194 703 194 703 c 1
 194 703 194 702 192 708 c 0
 190 714 192 714 192 714 c 1
 192 714 191 717 191 725 c 0
 191 733 191 743 191 752 c 0
 191 761 191 770 191 778 c 0x58
 191 786 192 788 192 788 c 1
 192 788 190 791 192 800 c 0
 194 809 198 819 200 822 c 2x54
 292 784 l 1
 290 781 292 778 292 778 c 2
 290 770 292 775 292 772 c 0
 292 769 291 759 291 750 c 0
 291 742 292 734 292 731 c 0
 292 729 292 731 292 728 c 2x58
 294 720 l 1
 294 720 294 718 294 712 c 0
 296 704 294 702 294 700 c 0
 294 698 295 696 295 691 c 0
 295 686 295 684 295 684 c 1
 295 684 297 681 297 673 c 0
 297 665 297 660 297 658 c 0
 297 656 298 656 298 650 c 0
 298 644 298 644 298 644 c 1
 298 644 298 640 300 631 c 0
 302 622 302 616 302 611 c 0
 302 606 302 597 302 591 c 0
 302 585 300 580 300 580 c 1
 300 580 302 579 300 573 c 0
 300 571 298 571 298 569 c 1
 300 569 l 1
 300 566 300 556 300 553 c 0
 300 550 298 550 300 544 c 0
 302 538 303 534 303 534 c 1
 303 534 305 531 308 525 c 0
 311 517 309 512 309 512 c 1
 309 512 309 514 309 508 c 0
 309 506 311 505 311 505 c 1
 311 503 l 2
 311 500 312 502 312 500 c 2
 312 500 310 501 312 498 c 0
 314 496 319 493 322 488 c 0
 325 483 328 480 330 478 c 0
 332 476 335 472 338 467 c 0
 341 462 338 464 341 461 c 0
 344 458 352 450 358 444 c 2
 364 438 l 2
 367 438 372 438 380 436 c 0
 391 434 397 434 397 434 c 1
 397 434 403 435 409 433 c 0x34
 412 433 417 432 420 430 c 2
 422 428 l 2
 424 428 423 428 423 428 c 2
 426 426 430 427 433 425 c 0
 436 423 439 422 442 420 c 2
 447 419 l 1x54
 447 419 450 419 455 417 c 0
 460 415 465 414 470 412 c 0
 472 412 472 411 472 411 c 1
 472 411 475 413 478 411 c 0
 480 411 479 409 481 409 c 2
 481 409 482 409 484 409 c 0
 487 409 489 409 489 409 c 1
 489 409 494 411 502 409 c 0
 511 407 503 408 505 408 c 0
 507 408 519 408 525 408 c 2
 531 408 l 1x94
 531 408 531 407 534 409 c 0
 540 412 546 411 548 411 c 0
 550 411 553 412 556 414 c 0
 559 416 563 415 569 417 c 0
 571 417 568 419 570 419 c 0
 573 421 573 419 575 419 c 0x54
 577 419 577 420 580 422 c 0
 583 425 587 423 589 425 c 2
 589 425 589 427 591 427 c 2
 592 430 l 2
 594 432 593 430 595 433 c 0
 598 436 600 439 600 439 c 2
 602 441 603 444 606 447 c 0
 609 450 607 448 609 450 c 2
 609 450 609 450 612 455 c 0
 615 461 620 467 623 470 c 0
 626 473 630 479 633 484 c 0
 636 489 639 492 639 492 c 1
 639 492 635 489 644 498 c 2
 644 498 643 498 645 500 c 0
 647 503 648 503 648 503 c 1
 648 503 649 503 652 506 c 0
 652 508 652 509 655 512 c 0
 658 518 661 520 661 520 c 2
 663 522 664 523 666 525 c 1
 666 525 666 525 666 527 c 0
 666 525 l 1
 666 527 l 0
 669 532 669 534 669 534 c 1
 669 539 l 2x36
 671 544 670 544 672 547 c 0
 674 550 674 558 677 567 c 0
 680 576 681 588 684 597 c 0
 687 606 687 613 689 619 c 0
 691 622 690 625 692 628 c 0x3080
 692 630 692 634 695 642 c 0
 698 650 700 652 700 652 c 1
 700 652 698 654 700 659 c 0
 702 665 703 670 703 670 c 1
 703 670 703 672 703 675 c 0
 703 683 703 695 703 700 c 0
 703 705 702 710 702 719 c 0
 702 728 702 739 702 747 c 0
 702 755 702 757 702 759 c 0
 702 761 700 762 700 762 c 2
 698 773 700 764 700 764 c 2
 700 767 700 769 700 772 c 0
 700 775 700 774 700 777 c 0
 700 783 700 788 700 791 c 2
 700 792 l 1
 700 794 l 1
 700 798 l 1
 700 800 l 1
 798 800 l 1
 798 798 l 1
 798 794 l 1
 798 792 l 2
 798 789 798 786 798 784 c 1x3040
 800 784 l 1
 800 783 l 2
 802 772 800 778 800 778 c 2
 800 776 800 777 800 775 c 2
 800 775 798 777 800 772 c 0
 800 769 800 767 800 767 c 1
 800 767 802 765 802 762 c 0
 802 760 802 761 802 761 c 1
 803 759 l 2
 806 750 803 755 803 755 c 1
 803 755 803 753 805 750 c 0
 807 747 806 741 806 738 c 0
 806 729 806 717 806 708 c 0
 806 699 805 697 805 694 c 0
 805 691 805 683 805 675 c 0
 805 673 805 675 805 673 c 0
 805 671 805 672 805 670 c 0
 805 664 805 658 805 653 c 2
 805 627 l 1
 805 572 l 2
 805 569 805 562 805 559 c 0
 805 547 805 540 805 534 c 0x32
 805 526 803 521 803 519 c 2
 803 519 802 516 802 511 c 0
 802 505 802 503 802 503 c 1
 802 503 800 502 800 497 c 0
 800 492 800 490 800 488 c 0
 800 486 802 481 800 472 c 0
 798 464 797 458 797 456 c 2
 797 456 797 458 797 455 c 0
 797 450 796 444 794 441 c 0
 794 436 794 423 794 414 c 0
 794 405 794 400 794 400 c 1x3080
 794 400 792 396 792 391 c 2
 792 372 l 2
 792 366 794 358 794 356 c 0
 794 354 794 350 794 342 c 0
 794 334 794 326 794 314 c 2
 794 272 l 1
 794 242 l 2
 794 236 796 231 794 223 c 2x51
 792 216 l 1
 792 216 794 215 791 203 c 0
 789 195 789 200 789 200 c 2
 789 198 789 198 789 195 c 0
 789 190 788 189 788 189 c 1
 788 189 786 187 786 184 c 2
 784 177 l 1
 784 177 786 175 784 169 c 2
 783 161 l 1
 783 161 783 161 781 153 c 0
 779 147 778 144 778 144 c 1
 778 144 782 142 777 131 c 0
 774 125 772 123 772 123 c 2
 772 121 772 122 770 119 c 0
 767 111 764 106 764 106 c 1
 764 106 761 102 756 94 c 0
 753 89 754 88 752 86 c 2
 752 86 750 85 748 83 c 0
 745 80 747 81 747 81 c 2
 745 79 742 75 739 70 c 0
 734 64 731 61 731 61 c 0
 731 61 730 61 727 56 c 0
 722 50 720 47 720 47 c 1
 720 47 719 46 714 41 c 0
 708 35 706 34 706 34 c 1
 706 34 708 33 697 27 c 0
 685 21 680 19 680 19 c 1
 680 19 677 21 669 19 c 0
 667 19 667 17 667 17 c 2
 659 14 655 12 653 12 c 0
 651 12 648 11 642 8 c 0
 636 5 630 5 628 5 c 0
 626 5 623 5 617 3 c 0
 614 3 614 2 614 2 c 2
 612 2 611 2 608 0 c 2
 608 0 604 -2 602 -2 c 0
 600 -2 594 -3 588 -5 c 0
 583 -7 580 -6 578 -6 c 0
 575 -8 570 -9 567 -9 c 0
 558 -11 561 -9 559 -9 c 0
 557 -9 551 -10 545 -12 c 2
 539 -14 l 1
 539 -14 539 -14 531 -17 c 0
 529 -17 528 -17 528 -17 c 1
 528 -19 l 1
 528 -17 l 1
 523 -19 517 -20 512 -22 c 0
 501 -24 505 -23 505 -23 c 1
 505 -23 503 -25 495 -25 c 0
 487 -25 480 -25 472 -25 c 0
 464 -25 462 -23 462 -23 c 1
 462 -23 463 -25 455 -23 c 0
 449 -21 445 -20 445 -20 c 1x52
EndSplineSet
LCarets2: 7 0 0 0 0 0 0 0
MultipleSubs2: "CCMP cartouches" t.yupekosi cart.body
Ligature2: "LIGA basics" y u p e k o s i
EndChar

StartChar: t.te.fw
Encoding: 289 -1 281
Width: 1000
Flags: W
HStem: 650 100<350 750>
VStem: 250 100<50 650>
LayerCount: 2
Fore
SplineSet
250 750 m 1
 750 750 l 1
 750 650 l 1
 350 650 l 1
 350 50 l 1
 250 50 l 1
 250 750 l 1
EndSplineSet
EndChar

StartChar: t.to.fw
Encoding: 290 -1 282
Width: 1000
Flags: W
HStem: 50 100<250 650>
VStem: 650 100<150 750>
LayerCount: 2
Fore
SplineSet
750 50 m 1
 250 50 l 1
 250 150 l 1
 650 150 l 1
 650 750 l 1
 750 750 l 1
 750 50 l 1
EndSplineSet
EndChar

StartChar: n.lipamanka
Encoding: 291 -1 283
Width: 1000
Flags: W
HStem: -50 100<190.324 250 350 425> 375 113<494.46 563.624> 412 113<631.842 701.624> 675 100<626.878 700> 750 100<359.691 495.663>
VStem: 50 100<89.3412 210.752> 150 100<479.369 640.309> 250 100<50 125 175 250> 481 113<405.376 455.625> 619 112<424.158 494.624> 700 100<625 675> 750 100<-50 112 188 325>
LayerCount: 2
Fore
SplineSet
262 478 m 1x8a80
 295 600 385 698 497 745 c 1
 483 748 466 750 450 750 c 0
 339 750 250 661 250 550 c 0
 250 525 253 500 262 478 c 1x8a80
350 125 m 1x8180
 350 50 l 1
 425 50 l 1
 425 88 l 1
 350 125 l 1x8180
677 525 m 2xa0c0
 678 525 l 2
 698 523 716 514 725 495 c 0
 728 487 731 478 731 469 c 0
 731 449 721 430 702 419 c 0
 694 416 684 412 675 412 c 0
 655 412 636 423 625 442 c 0
 622 450 619 460 619 469 c 0
 619 489 631 508 650 519 c 0
 659 525 666 525 677 525 c 2xa0c0
541 488 m 0xc080
 561 486 579 475 588 456 c 0
 591 448 594 440 594 431 c 0
 594 411 583 392 564 381 c 0
 556 378 547 375 538 375 c 0
 518 375 499 386 488 405 c 0
 485 413 481 422 481 431 c 0
 481 451 493 470 512 481 c 0
 521 487 530 488 541 488 c 0xc080
250 250 m 1x8580
 195 250 150 205 150 150 c 0
 150 95 195 50 250 50 c 1
 250 250 l 1x8580
425 350 m 1
 562 281 l 1
 700 350 l 1
 700 212 l 1xd1a0
 750 188 l 1
 750 323 l 1
 750 366 l 1xd090
 817 434 l 1
 700 591 l 1
 700 675 l 1
 650 675 l 2
 484 675 350 541 350 375 c 2xd1a0
 350 175 l 1
 425 212 l 1
 425 350 l 1
562 212 m 1
 505 184 l 1
 505 116 l 1
 562 88 l 1
 620 116 l 1
 620 184 l 1
 562 212 l 1
450 850 m 0x8a80
 525 850 595 822 648 775 c 1
 650 775 l 1
 700 775 l 1
 800 775 l 1
 800 675 l 1
 800 625 l 1x92a0
 889 505 l 1
 950 425 l 1
 850 325 l 1
 850 -50 l 1
 750 -50 l 1
 750 112 l 1x9090
 700 88 l 1
 700 -50 l 1
 562 19 l 1
 425 -50 l 1
 250 -50 l 2
 139 -50 50 39 50 150 c 0x95a0
 50 253 128 336 228 348 c 1
 180 401 150 473 150 550 c 0
 150 716 284 850 450 850 c 0x8a80
EndSplineSet
MultipleSubs2: "CCMP cartouches" n.lipamanka cart.body
Ligature2: "LIGA basics" l i p a m a n k a
EndChar

StartChar: n.ante
Encoding: 292 -1 284
Width: 1000
Flags: W
HStem: -12 21G<150.304 199.299 489.635 510.299 800.635 849.696>
LayerCount: 2
Fore
SplineSet
402 398 m 1
 500 206 l 1
 598 398 l 1
 500 591 l 1
 402 398 l 1
189 809 m 1
 344 506 l 1
 500 809 l 1
 655 506 l 1
 811 809 l 1
 900 762 l 1
 712 398 l 1
 900 34 l 1
 811 -12 l 1
 655 289 l 1
 500 -12 l 1
 344 289 l 1
 189 -12 l 1
 100 34 l 1
 288 398 l 1
 100 762 l 1
 189 809 l 1
EndSplineSet
MultipleSubs2: "CCMP cartouches" n.ante cart.body
Ligature2: "LIGA alternates" t.ante nine nine
EndChar

StartChar: morae.colon.hw
Encoding: 293 -1 285
Width: 500
Flags: W
HStem: 125 200<188.358 311.642> 475 200<188.358 311.642>
VStem: 150 200<163.358 286.642 513.358 636.642>
LayerCount: 2
Fore
SplineSet
150 575 m 0
 150 630 195 675 250 675 c 0
 305 675 350 630 350 575 c 0
 350 520 305 475 250 475 c 0
 195 475 150 520 150 575 c 0
150 225 m 0
 150 280 195 325 250 325 c 0
 305 325 350 280 350 225 c 0
 350 170 305 125 250 125 c 0
 195 125 150 170 150 225 c 0
EndSplineSet
MultipleSubs2: "CCMP cartouches" morae.colon.hw cart.hwbody
EndChar

